<?xml version="1.0" encoding="utf-8" standalone="no"?>
<!DOCTYPE svg PUBLIC "-//W3C//DTD SVG 1.1//EN"
  "http://www.w3.org/Graphics/SVG/1.1/DTD/svg11.dtd">
<svg xmlns:xlink="http://www.w3.org/1999/xlink" width="576pt" height="324pt" viewBox="0 0 576 324" xmlns="http://www.w3.org/2000/svg" version="1.1">
 <metadata>
  <rdf:RDF xmlns:dc="http://purl.org/dc/elements/1.1/" xmlns:cc="http://creativecommons.org/ns#" xmlns:rdf="http://www.w3.org/1999/02/22-rdf-syntax-ns#">
   <cc:Work>
    <dc:type rdf:resource="http://purl.org/dc/dcmitype/StillImage"/>
    <dc:date>2026-10-09T21:18:58.580337</dc:date>
    <dc:format>image/svg+xml</dc:format>
    <dc:creator>
     <cc:Agent>
      <dc:title>Matplotlib v3.11.2, https://matplotlib.org/</dc:title>
     </cc:Agent>
    </dc:creator>
   </cc:Work>
  </rdf:RDF>
 </metadata>
 <defs>
  <style type="text/css">*{stroke-linejoin: round; stroke-linecap: butt}</style>
 </defs>
 <g id="figure_1">
  <g id="patch_1">
   <path d="M 0 324 
L 576 324 
L 576 0 
L 0 0 
z
" style="fill: #ffffff"/>
  </g>
  <g id="axes_1">
   <g id="patch_2">
    <path d="M 56.86 276.27 
L 563.04 276.27 
L 563.04 37 
L 56.86 37 
z
" style="fill: #ffffff"/>
   </g>
   <g id="matplotlib.axis_1">
    <g id="xtick_1">
     <g id="line2d_1">
      <path d="M 120.137429 276.27 
L 120.137429 37 
" clip-path="url(#p40495e370c)" style="fill: none; stroke-dasharray: 2.96,1.28; stroke-dashoffset: 0; stroke: #f1f3f5; stroke-width: 0.8"/>
     </g>
     <g id="line2d_2">
      <defs>
       <path id="mf49d71c124" d="M 0 0 
L 0 3.5 
" style="stroke: #6b7280; stroke-width: 0.8"/>
      </defs>
      <g>
       <use xlink:href="#mf49d71c124" x="120.137429" y="276.27" style="fill: #6b7280; stroke: #6b7280; stroke-width: 0.8"/>
      </g>
     </g>
     <g id="text_1">
      <!-- $\mathdefault{10^{0}}$ -->
      <g style="fill: #6b7280" transform="translate(112.107429 293.5) scale(0.11 -0.11)">
       <defs>
        <path id="PingFangSC-Regular-14" d="M 1472 4570 
C 1318 4397 1139 4243 922 4102 
C 704 3974 486 3885 282 3827 
L 282 3302 
C 710 3430 1069 3635 1357 3930 
L 1357 0 
L 1882 0 
L 1882 4570 
L 1472 4570 
z
" transform="scale(0.015625)"/>
        <path id="PingFangSC-Regular-13" d="M 1920 4659 
C 1370 4659 960 4422 685 3936 
C 442 3526 320 2976 320 2285 
C 320 1594 442 1043 685 634 
C 960 154 1370 -90 1920 -90 
C 2464 -90 2874 154 3155 634 
C 3398 1043 3520 1594 3520 2285 
C 3520 2976 3398 3526 3155 3936 
C 2874 4422 2464 4659 1920 4659 
z
M 1920 4211 
C 2330 4211 2624 3994 2803 3552 
C 2931 3245 3002 2822 3002 2285 
C 3002 1754 2931 1331 2803 1018 
C 2624 582 2330 358 1920 358 
C 1510 358 1216 582 1037 1018 
C 909 1331 845 1754 845 2285 
C 845 2822 909 3245 1037 3552 
C 1216 3994 1510 4211 1920 4211 
z
" transform="scale(0.015625)"/>
       </defs>
       <use xlink:href="#PingFangSC-Regular-14" transform="translate(0 0.742188)"/>
       <use xlink:href="#PingFangSC-Regular-13" transform="translate(40.09996 0.742188)"/>
       <use xlink:href="#PingFangSC-Regular-13" transform="translate(101.056931 42.042187) scale(0.7)"/>
      </g>
     </g>
    </g>
    <g id="xtick_2">
     <g id="line2d_3">
      <defs>
       <path id="meae8d8b1e9" d="M 0 0 
L 0 2 
" style="stroke: #6b7280; stroke-width: 0.6"/>
      </defs>
      <g>
       <use xlink:href="#meae8d8b1e9" x="79.868182" y="276.27" style="fill: #6b7280; stroke: #6b7280; stroke-width: 0.6"/>
      </g>
     </g>
    </g>
    <g id="xtick_3">
     <g id="line2d_4">
      <g>
       <use xlink:href="#meae8d8b1e9" x="385.061292" y="276.27" style="fill: #6b7280; stroke: #6b7280; stroke-width: 0.6"/>
      </g>
     </g>
     <g id="text_2">
      <!-- $\mathdefault{2\times10^{0}}$ -->
      <g style="fill: #6b7280" transform="translate(368.231292 291.9) scale(0.11 -0.11)">
       <defs>
        <path id="PingFangSC-Regular-15" d="M 1984 4659 
C 1523 4659 1146 4506 864 4198 
C 582 3898 435 3488 435 2976 
L 960 2976 
C 966 3379 1062 3686 1242 3891 
C 1408 4109 1651 4211 1965 4211 
C 2259 4211 2496 4134 2662 3981 
C 2829 3827 2912 3616 2912 3334 
C 2912 3040 2790 2765 2560 2515 
C 2438 2387 2202 2202 1843 1946 
C 1357 1613 1030 1338 851 1133 
C 544 794 397 416 397 0 
L 3443 0 
L 3443 467 
L 1043 467 
C 1126 774 1459 1126 2042 1517 
C 2515 1837 2829 2086 2989 2253 
C 3283 2573 3437 2931 3437 3328 
C 3437 3725 3296 4051 3027 4294 
C 2752 4538 2406 4659 1984 4659 
z
" transform="scale(0.015625)"/>
        <path id="PingFangSC-Regular-9a" d="M 672 3226 
L 365 2918 
L 1638 1658 
L 365 390 
L 672 83 
L 1939 1350 
L 3200 83 
L 3507 390 
L 2240 1658 
L 3507 2918 
L 3200 3226 
L 1939 1958 
L 672 3226 
z
" transform="scale(0.015625)"/>
       </defs>
       <use xlink:href="#PingFangSC-Regular-15" transform="translate(0 0.742188)"/>
       <use xlink:href="#PingFangSC-Regular-9a" transform="translate(79.482361 0.742188)"/>
       <use xlink:href="#PingFangSC-Regular-14" transform="translate(159.464722 0.742188)"/>
       <use xlink:href="#PingFangSC-Regular-13" transform="translate(199.564682 0.742188)"/>
       <use xlink:href="#PingFangSC-Regular-13" transform="translate(260.521652 42.042187) scale(0.7)"/>
      </g>
     </g>
    </g>
    <g id="xtick_4">
     <g id="line2d_5">
      <g>
       <use xlink:href="#meae8d8b1e9" x="540.031818" y="276.27" style="fill: #6b7280; stroke: #6b7280; stroke-width: 0.6"/>
      </g>
     </g>
     <g id="text_3">
      <!-- $\mathdefault{3\times10^{0}}$ -->
      <g style="fill: #6b7280" transform="translate(523.201818 291.9) scale(0.11 -0.11)">
       <defs>
        <path id="PingFangSC-Regular-16" d="M 1965 4659 
C 1530 4659 1178 4538 909 4288 
C 627 4038 461 3693 422 3251 
L 941 3251 
C 973 3558 1075 3795 1254 3962 
C 1427 4128 1664 4205 1971 4205 
C 2266 4205 2502 4134 2669 3981 
C 2822 3840 2906 3642 2906 3386 
C 2906 3130 2822 2931 2662 2790 
C 2502 2656 2272 2586 1965 2586 
L 1613 2586 
L 1613 2176 
L 1984 2176 
C 2304 2176 2547 2106 2726 1952 
C 2906 1798 2995 1587 2995 1312 
C 2995 1043 2899 819 2720 640 
C 2522 454 2259 358 1933 358 
C 1645 358 1408 442 1216 595 
C 992 781 870 1056 858 1414 
L 326 1414 
C 365 902 544 512 870 243 
C 1146 26 1498 -90 1933 -90 
C 2406 -90 2790 45 3085 314 
C 3373 576 3520 915 3520 1331 
C 3520 1600 3443 1824 3290 2003 
C 3149 2182 2944 2310 2675 2394 
C 3174 2560 3424 2906 3424 3418 
C 3424 3802 3290 4102 3027 4326 
C 2758 4550 2400 4659 1965 4659 
z
" transform="scale(0.015625)"/>
       </defs>
       <use xlink:href="#PingFangSC-Regular-16" transform="translate(0 0.742188)"/>
       <use xlink:href="#PingFangSC-Regular-9a" transform="translate(79.482361 0.742188)"/>
       <use xlink:href="#PingFangSC-Regular-14" transform="translate(159.464722 0.742188)"/>
       <use xlink:href="#PingFangSC-Regular-13" transform="translate(199.564682 0.742188)"/>
       <use xlink:href="#PingFangSC-Regular-13" transform="translate(260.521652 42.042187) scale(0.7)"/>
      </g>
     </g>
    </g>
    <g id="text_4">
     <!-- PC1 -->
     <g style="fill: #4b5563" transform="translate(299.324375 309.36) scale(0.12 -0.12)">
      <defs>
       <path id="PingFangSC-Regular-33" d="M 461 4570 
L 461 0 
L 986 0 
L 986 1869 
L 2323 1869 
C 3373 1869 3904 2323 3904 3226 
C 3904 4122 3379 4570 2330 4570 
L 461 4570 
z
M 986 4115 
L 2298 4115 
C 2662 4115 2931 4045 3110 3891 
C 3290 3757 3379 3533 3379 3226 
C 3379 2918 3290 2694 3117 2547 
C 2938 2400 2669 2323 2298 2323 
L 986 2323 
L 986 4115 
z
" transform="scale(0.015625)"/>
       <path id="PingFangSC-Regular-26" d="M 2432 4659 
C 1728 4659 1178 4422 794 3936 
C 442 3501 269 2944 269 2266 
C 269 1587 435 1037 781 614 
C 1158 147 1702 -90 2413 -90 
C 2899 -90 3322 51 3674 326 
C 4051 621 4288 1037 4390 1568 
L 3885 1568 
C 3795 1171 3610 870 3341 666 
C 3085 474 2778 378 2413 378 
C 1875 378 1472 557 1190 909 
C 922 1242 794 1696 794 2266 
C 794 2835 928 3290 1197 3635 
C 1485 4006 1894 4192 2426 4192 
C 2784 4192 3085 4109 3334 3936 
C 3590 3757 3757 3501 3821 3168 
L 4326 3168 
C 4262 3622 4058 3987 3712 4256 
C 3366 4525 2938 4659 2432 4659 
z
" transform="scale(0.015625)"/>
      </defs>
      <use xlink:href="#PingFangSC-Regular-33"/>
      <use xlink:href="#PingFangSC-Regular-26" transform="translate(64.203125 0)"/>
      <use xlink:href="#PingFangSC-Regular-14" transform="translate(137 0)"/>
     </g>
    </g>
   </g>
   <g id="matplotlib.axis_2">
    <g id="ytick_1">
     <g id="line2d_6">
      <path d="M 56.86 265.394091 
L 563.04 265.394091 
" clip-path="url(#p40495e370c)" style="fill: none; stroke-dasharray: 2.96,1.28; stroke-dashoffset: 0; stroke: #f1f3f5; stroke-width: 0.8"/>
     </g>
     <g id="line2d_7">
      <defs>
       <path id="m8d33a76dce" d="M 0 0 
L -3.5 0 
" style="stroke: #6b7280; stroke-width: 0.8"/>
      </defs>
      <g>
       <use xlink:href="#m8d33a76dce" x="56.86" y="265.394091" style="fill: #6b7280; stroke: #6b7280; stroke-width: 0.8"/>
      </g>
     </g>
     <g id="text_5">
      <!-- $\mathdefault{10^{-1}}$ -->
      <g style="fill: #6b7280" transform="translate(28.96 270.454091) scale(0.11 -0.11)">
       <defs>
        <path id="PingFangSC-Regular-17a" d="M 320 2566 
L 320 2042 
L 4954 2042 
L 4954 2566 
L 320 2566 
z
" transform="scale(0.015625)"/>
       </defs>
       <use xlink:href="#PingFangSC-Regular-14" transform="translate(0 0.715625)"/>
       <use xlink:href="#PingFangSC-Regular-13" transform="translate(40.09996 0.715625)"/>
       <use xlink:href="#PingFangSC-Regular-17a" transform="translate(101.056931 42.015625) scale(0.7)"/>
       <use xlink:href="#PingFangSC-Regular-14" transform="translate(158.736873 42.015625) scale(0.7)"/>
      </g>
     </g>
    </g>
    <g id="ytick_2">
     <g id="line2d_8">
      <path d="M 56.86 70.12547 
L 563.04 70.12547 
" clip-path="url(#p40495e370c)" style="fill: none; stroke-dasharray: 2.96,1.28; stroke-dashoffset: 0; stroke: #f1f3f5; stroke-width: 0.8"/>
     </g>
     <g id="line2d_9">
      <g>
       <use xlink:href="#m8d33a76dce" x="56.86" y="70.12547" style="fill: #6b7280; stroke: #6b7280; stroke-width: 0.8"/>
      </g>
     </g>
     <g id="text_6">
      <!-- $\mathdefault{10^{0}}$ -->
      <g style="fill: #6b7280" transform="translate(33.8 75.24047) scale(0.11 -0.11)">
       <use xlink:href="#PingFangSC-Regular-14" transform="translate(0 0.742188)"/>
       <use xlink:href="#PingFangSC-Regular-13" transform="translate(40.09996 0.742188)"/>
       <use xlink:href="#PingFangSC-Regular-13" transform="translate(101.056931 42.042187) scale(0.7)"/>
      </g>
     </g>
    </g>
    <g id="ytick_3">
     <g id="line2d_10">
      <defs>
       <path id="m549b264a0c" d="M 0 0 
L -2 0 
" style="stroke: #6b7280; stroke-width: 0.6"/>
      </defs>
      <g>
       <use xlink:href="#m549b264a0c" x="56.86" y="274.329093" style="fill: #6b7280; stroke: #6b7280; stroke-width: 0.6"/>
      </g>
     </g>
    </g>
    <g id="ytick_4">
     <g id="line2d_11">
      <g>
       <use xlink:href="#m549b264a0c" x="56.86" y="206.612379" style="fill: #6b7280; stroke: #6b7280; stroke-width: 0.6"/>
      </g>
     </g>
    </g>
    <g id="ytick_5">
     <g id="line2d_12">
      <g>
       <use xlink:href="#m549b264a0c" x="56.86" y="172.227282" style="fill: #6b7280; stroke: #6b7280; stroke-width: 0.6"/>
      </g>
     </g>
    </g>
    <g id="ytick_6">
     <g id="line2d_13">
      <g>
       <use xlink:href="#m549b264a0c" x="56.86" y="147.830667" style="fill: #6b7280; stroke: #6b7280; stroke-width: 0.6"/>
      </g>
     </g>
    </g>
    <g id="ytick_7">
     <g id="line2d_14">
      <g>
       <use xlink:href="#m549b264a0c" x="56.86" y="128.907182" style="fill: #6b7280; stroke: #6b7280; stroke-width: 0.6"/>
      </g>
     </g>
    </g>
    <g id="ytick_8">
     <g id="line2d_15">
      <g>
       <use xlink:href="#m549b264a0c" x="56.86" y="113.44557" style="fill: #6b7280; stroke: #6b7280; stroke-width: 0.6"/>
      </g>
     </g>
    </g>
    <g id="ytick_9">
     <g id="line2d_16">
      <g>
       <use xlink:href="#m549b264a0c" x="56.86" y="100.372962" style="fill: #6b7280; stroke: #6b7280; stroke-width: 0.6"/>
      </g>
     </g>
    </g>
    <g id="ytick_10">
     <g id="line2d_17">
      <g>
       <use xlink:href="#m549b264a0c" x="56.86" y="89.048955" style="fill: #6b7280; stroke: #6b7280; stroke-width: 0.6"/>
      </g>
     </g>
    </g>
    <g id="ytick_11">
     <g id="line2d_18">
      <g>
       <use xlink:href="#m549b264a0c" x="56.86" y="79.060472" style="fill: #6b7280; stroke: #6b7280; stroke-width: 0.6"/>
      </g>
     </g>
    </g>
    <g id="text_7">
     <!-- PC2 -->
     <g style="fill: #4b5563" transform="translate(23.28 168.455) rotate(-90) scale(0.12 -0.12)">
      <use xlink:href="#PingFangSC-Regular-33"/>
      <use xlink:href="#PingFangSC-Regular-26" transform="translate(64.203125 0)"/>
      <use xlink:href="#PingFangSC-Regular-15" transform="translate(137 0)"/>
     </g>
    </g>
   </g>
   <g id="patch_3">
    <path d="M 56.86 276.27 
L 56.86 37 
" style="fill: none; stroke: #d1d5db; stroke-width: 0.8; stroke-linejoin: miter; stroke-linecap: square"/>
   </g>
   <g id="patch_4">
    <path d="M 56.86 276.27 
L 563.04 276.27 
" style="fill: none; stroke: #d1d5db; stroke-width: 0.8; stroke-linejoin: miter; stroke-linecap: square"/>
   </g>
   <g id="PathCollection_1">
    <defs>
     <path id="m7191d44d53" d="M 0 3.391165 
C 0.899347 3.391165 1.761981 3.03385 2.397916 2.397916 
C 3.03385 1.761981 3.391165 0.899347 3.391165 0 
C 3.391165 -0.899347 3.03385 -1.761981 2.397916 -2.397916 
C 1.761981 -3.03385 0.899347 -3.391165 0 -3.391165 
C -0.899347 -3.391165 -1.761981 -3.03385 -2.397916 -2.397916 
C -3.03385 -1.761981 -3.391165 -0.899347 -3.391165 0 
C -3.391165 0.899347 -3.03385 1.761981 -2.397916 2.397916 
C -1.761981 3.03385 -0.899347 3.391165 0 3.391165 
z
" style="stroke: #ffffff; stroke-width: 0.8"/>
    </defs>
    <g clip-path="url(#p40495e370c)"/>
   </g>
   <g id="PathCollection_2">
    <defs>
     <path id="m17cb66e9c2" d="M 0 3.391165 
C 0.899347 3.391165 1.761981 3.03385 2.397916 2.397916 
C 3.03385 1.761981 3.391165 0.899347 3.391165 0 
C 3.391165 -0.899347 3.03385 -1.761981 2.397916 -2.397916 
C 1.761981 -3.03385 0.899347 -3.391165 0 -3.391165 
C -0.899347 -3.391165 -1.761981 -3.03385 -2.397916 -2.397916 
C -3.03385 -1.761981 -3.391165 -0.899347 -3.391165 0 
C -3.391165 0.899347 -3.03385 1.761981 -2.397916 2.397916 
C -1.761981 3.03385 -0.899347 3.391165 0 3.391165 
z
" style="stroke: #ffffff; stroke-width: 0.8"/>
    </defs>
    <g clip-path="url(#p40495e370c)"/>
   </g>
   <g id="PathCollection_3">
    <defs>
     <path id="m5a9b1d05c4" d="M 0 3.391165 
C 0.899347 3.391165 1.761981 3.03385 2.397916 2.397916 
C 3.03385 1.761981 3.391165 0.899347 3.391165 0 
C 3.391165 -0.899347 3.03385 -1.761981 2.397916 -2.397916 
C 1.761981 -3.03385 0.899347 -3.391165 0 -3.391165 
C -0.899347 -3.391165 -1.761981 -3.03385 -2.397916 -2.397916 
C -3.03385 -1.761981 -3.391165 -0.899347 -3.391165 0 
C -3.391165 0.899347 -3.03385 1.761981 -2.397916 2.397916 
C -1.761981 3.03385 -0.899347 3.391165 0 3.391165 
z
" style="stroke: #ffffff; stroke-width: 0.8"/>
    </defs>
    <g clip-path="url(#p40495e370c)">
     <use xlink:href="#m5a9b1d05c4" x="470.347727" y="89.048955" style="fill: #86efac; stroke: #ffffff; stroke-width: 0.8"/>
     <use xlink:href="#m5a9b1d05c4" x="513.662443" y="62.042778" style="fill: #86efac; stroke: #ffffff; stroke-width: 0.8"/>
     <use xlink:href="#m5a9b1d05c4" x="540.031818" y="128.907182" style="fill: #86efac; stroke: #ffffff; stroke-width: 0.8"/>
     <use xlink:href="#m5a9b1d05c4" x="421.489257" y="47.875909" style="fill: #86efac; stroke: #ffffff; stroke-width: 0.8"/>
     <use xlink:href="#m5a9b1d05c4" x="485.338054" y="79.060472" style="fill: #86efac; stroke: #ffffff; stroke-width: 0.8"/>
     <use xlink:href="#m5a9b1d05c4" x="438.478914" y="113.44557" style="fill: #86efac; stroke: #ffffff; stroke-width: 0.8"/>
     <use xlink:href="#m5a9b1d05c4" x="527.074498" y="70.12547" style="fill: #86efac; stroke: #ffffff; stroke-width: 0.8"/>
     <use xlink:href="#m5a9b1d05c4" x="454.745383" y="100.372962" style="fill: #86efac; stroke: #ffffff; stroke-width: 0.8"/>
     <use xlink:href="#m5a9b1d05c4" x="499.762571" y="54.663858" style="fill: #86efac; stroke: #ffffff; stroke-width: 0.8"/>
     <use xlink:href="#m5a9b1d05c4" x="403.709105" y="147.830667" style="fill: #86efac; stroke: #ffffff; stroke-width: 0.8"/>
    </g>
   </g>
   <g id="text_8">
    <!-- PCA 降维后聚类结构可视化 -->
    <g style="fill: #212529" transform="translate(223.156562 25) scale(0.14 -0.14)">
     <defs>
      <path id="PingFangSC-Semibold-33" d="M 448 4570 
L 448 0 
L 1197 0 
L 1197 1754 
L 2330 1754 
C 3443 1754 4000 2227 4000 3168 
C 4000 4102 3443 4570 2342 4570 
L 448 4570 
z
M 1197 3930 
L 2285 3930 
C 2611 3930 2854 3872 3008 3750 
C 3162 3635 3245 3443 3245 3168 
C 3245 2893 3168 2694 3014 2573 
C 2861 2458 2618 2394 2285 2394 
L 1197 2394 
L 1197 3930 
z
" transform="scale(0.015625)"/>
      <path id="PingFangSC-Semibold-26" d="M 2432 4659 
C 1702 4659 1146 4422 762 3936 
C 422 3514 256 2957 256 2278 
C 256 1587 416 1037 742 627 
C 1114 154 1683 -90 2445 -90 
C 2938 -90 3360 51 3712 333 
C 4090 634 4326 1050 4429 1587 
L 3699 1587 
C 3610 1242 3456 979 3238 806 
C 3034 653 2765 570 2438 570 
C 1939 570 1568 730 1331 1037 
C 1114 1325 1005 1741 1005 2278 
C 1005 2803 1114 3213 1338 3507 
C 1581 3840 1939 4000 2419 4000 
C 2739 4000 3002 3936 3206 3795 
C 3418 3654 3558 3437 3635 3136 
L 4365 3136 
C 4294 3597 4096 3968 3763 4237 
C 3418 4518 2970 4659 2432 4659 
z
" transform="scale(0.015625)"/>
      <path id="PingFangSC-Semibold-24" d="M 1747 4570 
L 0 0 
L 800 0 
L 1216 1146 
L 3130 1146 
L 3546 0 
L 4346 0 
L 2598 4570 
L 1747 4570 
z
M 1440 1760 
L 2163 3763 
L 2189 3763 
L 2906 1760 
L 1440 1760 
z
" transform="scale(0.015625)"/>
      <path id="PingFangSC-Semibold-3" transform="scale(0.015625)"/>
      <path id="PingFangSC-Semibold-1d33" d="M 2496 314 
L 4045 314 
L 4045 -659 
L 4678 -659 
L 4678 314 
L 5965 314 
L 5965 909 
L 4678 909 
L 4678 1626 
L 5747 1626 
L 5747 2221 
L 4678 2221 
L 4678 2611 
L 4045 2611 
L 4045 2221 
L 2598 2221 
L 2598 1626 
L 4045 1626 
L 4045 909 
L 3264 909 
L 3386 1363 
L 2784 1446 
L 2496 314 
z
M 435 5056 
L 435 -666 
L 1062 -666 
L 1062 4429 
L 1818 4429 
C 1664 3923 1459 3354 1190 2720 
C 1594 2189 1798 1709 1798 1280 
C 1798 1178 1773 1107 1734 1069 
C 1683 1030 1594 1011 1459 998 
C 1363 998 1242 1011 1094 1037 
L 1318 358 
C 1766 365 2080 454 2266 621 
C 2387 749 2451 973 2451 1280 
C 2413 1715 2208 2227 1837 2822 
C 2080 3424 2291 3994 2470 4531 
L 2470 5056 
L 435 5056 
z
M 3488 5254 
C 3142 4666 2733 4218 2272 3898 
L 2688 3405 
C 2829 3514 2963 3635 3104 3763 
C 3245 3590 3411 3430 3616 3277 
C 3219 3130 2765 3008 2240 2918 
L 2554 2336 
C 3200 2490 3757 2682 4224 2906 
C 4685 2682 5254 2509 5933 2381 
L 6170 2970 
C 5683 3053 5254 3162 4883 3302 
C 5267 3584 5549 3904 5722 4275 
L 5722 4800 
L 3936 4800 
C 3994 4902 4051 5005 4115 5114 
L 3488 5254 
z
M 4256 3584 
C 3949 3763 3699 3968 3514 4205 
C 3520 4218 3526 4224 3539 4237 
L 4992 4237 
C 4813 3994 4570 3776 4256 3584 
z
" transform="scale(0.015625)"/>
      <path id="PingFangSC-Semibold-158c" d="M 2522 742 
C 1882 512 1139 333 288 198 
L 378 -467 
C 1178 -320 1894 -128 2522 102 
L 2522 742 
z
M 1235 5293 
C 1037 4608 806 3981 544 3411 
C 461 3296 371 3213 269 3168 
L 429 2560 
C 723 2605 1011 2650 1286 2688 
C 1037 2195 832 1850 666 1658 
C 582 1581 480 1517 365 1466 
L 538 864 
C 1114 954 1728 1133 2381 1402 
L 2381 2016 
C 2022 1856 1664 1728 1318 1632 
C 1638 2106 2035 2829 2496 3808 
L 1914 4032 
C 1798 3770 1683 3526 1581 3296 
L 1043 3219 
C 1325 3693 1606 4294 1875 5037 
L 1235 5293 
z
M 3546 2317 
L 4486 2317 
L 4486 1664 
L 3546 1664 
L 3546 2317 
z
M 3546 1056 
L 4486 1056 
L 4486 294 
L 3546 294 
L 3546 1056 
z
M 3546 -326 
L 6176 -326 
L 6176 294 
L 5126 294 
L 5126 1056 
L 5939 1056 
L 5939 1664 
L 5126 1664 
L 5126 2317 
L 5939 2317 
L 5939 2931 
L 5126 2931 
L 5126 3603 
L 6048 3603 
L 6048 4230 
L 5152 4230 
C 5069 4550 4960 4896 4826 5274 
L 4179 5101 
C 4307 4819 4416 4525 4512 4230 
L 3597 4230 
C 3699 4512 3795 4806 3872 5107 
L 3238 5235 
C 3046 4378 2714 3590 2240 2874 
L 2445 2195 
C 2605 2406 2758 2624 2906 2854 
L 2906 -653 
L 3546 -653 
L 3546 -326 
z
M 4486 3603 
L 4486 2931 
L 3546 2931 
L 3546 3603 
L 4486 3603 
z
" transform="scale(0.015625)"/>
      <path id="PingFangSC-Semibold-778" d="M 1555 2848 
L 6080 2848 
L 6080 3501 
L 1555 3501 
L 1555 4218 
C 3104 4256 4499 4390 5741 4621 
L 5414 5222 
C 4096 4966 2586 4832 896 4819 
L 896 2803 
C 864 1549 634 570 211 -134 
L 710 -659 
C 1235 198 1517 1357 1555 2803 
L 1555 2848 
z
M 5613 2150 
L 1997 2150 
L 1997 -672 
L 2669 -672 
L 2669 -429 
L 4941 -429 
L 4941 -672 
L 5613 -672 
L 5613 2150 
z
M 2669 224 
L 2669 1510 
L 4941 1510 
L 4941 224 
L 2669 224 
z
" transform="scale(0.015625)"/>
      <path id="PingFangSC-Semibold-1638" d="M 2918 1485 
L 2918 -653 
L 3533 -653 
L 3533 1562 
L 3712 1587 
C 3955 659 4634 -77 5734 -627 
L 6067 -70 
C 5606 122 5229 352 4934 608 
C 5267 800 5536 986 5754 1178 
L 5395 1638 
C 5171 1414 4896 1203 4570 998 
C 4410 1203 4294 1434 4218 1683 
C 4634 1773 5018 1888 5376 2016 
L 5082 2509 
C 3930 2150 2522 1965 858 1965 
L 1050 1402 
C 1254 1402 1466 1408 1670 1408 
C 1517 1299 1363 1203 1210 1120 
C 960 1005 698 909 422 845 
L 736 333 
C 1133 480 1434 608 1638 723 
C 1850 845 2061 998 2266 1190 
L 1894 1414 
C 2246 1434 2586 1459 2918 1485 
z
M 474 5069 
L 474 4557 
L 902 4557 
L 902 2835 
L 346 2797 
L 410 2259 
C 1139 2323 1811 2394 2438 2477 
L 2438 2214 
L 3014 2214 
L 3014 2560 
L 3398 2624 
L 3398 3110 
C 3270 3098 3142 3078 3014 3053 
L 3014 4557 
L 3430 4557 
L 3430 5069 
L 474 5069 
z
M 1472 2886 
L 1472 3181 
L 2438 3181 
L 2438 2982 
C 2131 2950 1805 2918 1472 2886 
z
M 1472 3616 
L 1472 3866 
L 2438 3866 
L 2438 3616 
L 1472 3616 
z
M 1472 4301 
L 1472 4557 
L 2438 4557 
L 2438 4301 
L 1472 4301 
z
M 3891 4205 
L 3494 3808 
C 3802 3616 4083 3430 4352 3238 
C 4090 3027 3795 2874 3475 2771 
L 3738 2234 
C 4147 2374 4518 2586 4845 2874 
C 5094 2675 5312 2483 5504 2291 
L 5939 2720 
C 5728 2912 5491 3104 5235 3296 
C 5472 3603 5677 3968 5850 4390 
L 5850 4877 
L 3558 4877 
L 3558 4314 
L 5165 4314 
C 5043 4070 4902 3853 4749 3648 
C 4480 3834 4198 4019 3891 4205 
z
M 2278 774 
C 2042 582 1792 422 1523 282 
C 1197 115 851 -6 486 -90 
L 806 -608 
C 1312 -429 1696 -262 1965 -109 
C 2234 38 2502 230 2771 474 
L 2278 774 
z
" transform="scale(0.015625)"/>
      <path id="PingFangSC-Semibold-1504" d="M 3539 2944 
C 4205 2714 4864 2419 5504 2048 
L 5869 2605 
C 5165 2912 4384 3168 3539 3386 
L 3539 3430 
L 5926 3430 
L 5926 4051 
L 3539 4051 
L 3539 5267 
L 2861 5267 
L 2861 4051 
L 474 4051 
L 474 3430 
L 2259 3430 
C 1894 3110 1286 2822 435 2554 
L 787 1978 
C 1779 2381 2470 2854 2861 3398 
L 2861 2355 
L 3539 2355 
L 3539 2944 
z
M 3155 870 
C 3750 141 4614 -384 5741 -691 
L 6080 -90 
C 5120 128 4352 499 3789 1024 
L 5978 1024 
L 5978 1645 
L 3462 1645 
C 3501 1811 3533 1984 3558 2163 
L 2880 2163 
C 2854 1984 2816 1811 2765 1645 
L 422 1645 
L 422 1024 
L 2464 1024 
C 2387 922 2291 819 2189 723 
C 1805 390 1190 134 333 -51 
L 602 -672 
C 1619 -429 2330 -102 2739 307 
C 2893 474 3034 659 3155 870 
z
M 1715 5171 
L 1139 4979 
C 1331 4704 1491 4416 1619 4115 
L 2182 4262 
C 2042 4608 1888 4909 1715 5171 
z
M 4678 5184 
C 4538 4838 4378 4550 4186 4320 
L 4742 4122 
C 4954 4384 5126 4685 5261 5030 
L 4678 5184 
z
" transform="scale(0.015625)"/>
      <path id="PingFangSC-Semibold-156e" d="M 2637 736 
C 1978 506 1210 326 333 192 
L 416 -461 
C 1248 -314 1984 -122 2637 109 
L 2637 736 
z
M 1318 5293 
C 1094 4608 832 3981 525 3411 
C 442 3296 352 3213 250 3168 
L 410 2560 
C 742 2605 1062 2650 1370 2688 
C 1075 2195 832 1850 640 1658 
C 557 1581 454 1517 339 1466 
L 518 864 
C 1158 947 1837 1114 2560 1357 
L 2560 1952 
C 2138 1811 1728 1696 1318 1606 
C 1677 2067 2125 2778 2650 3744 
L 2067 3962 
C 1939 3725 1824 3501 1715 3290 
C 1485 3258 1254 3232 1024 3206 
C 1338 3686 1645 4301 1946 5050 
L 1318 5293 
z
M 2534 4531 
L 2534 3891 
L 3987 3891 
L 3987 3136 
L 2746 3136 
L 2746 2496 
L 5926 2496 
L 5926 3136 
L 4659 3136 
L 4659 3891 
L 6112 3891 
L 6112 4531 
L 4659 4531 
L 4659 5235 
L 3987 5235 
L 3987 4531 
L 2534 4531 
z
M 5805 2048 
L 2880 2048 
L 2880 -646 
L 3533 -646 
L 3533 -410 
L 5158 -410 
L 5158 -646 
L 5805 -646 
L 5805 2048 
z
M 3533 218 
L 3533 1421 
L 5158 1421 
L 5158 218 
L 3533 218 
z
" transform="scale(0.015625)"/>
      <path id="PingFangSC-Semibold-e85" d="M 3258 5248 
C 3123 4384 2867 3654 2490 3059 
L 2925 2496 
C 3181 2874 3392 3296 3565 3770 
L 5338 3770 
C 5325 1869 5299 762 5261 448 
C 5216 134 5056 -26 4774 -26 
C 4563 -26 4314 -13 4026 6 
L 4179 -589 
C 4512 -608 4742 -621 4883 -621 
C 5466 -621 5792 -352 5869 173 
C 5933 710 5965 2112 5965 4390 
L 3757 4390 
C 3821 4640 3872 4896 3917 5165 
L 3258 5248 
z
M 2803 653 
C 3411 781 3955 909 4429 1050 
C 4480 883 4525 704 4576 518 
L 5158 787 
C 4998 1350 4813 1875 4595 2362 
L 4045 2170 
C 4122 1978 4198 1766 4275 1542 
C 4038 1491 3782 1434 3501 1370 
C 3680 1728 3910 2272 4192 3002 
L 3603 3219 
C 3162 1978 2854 1306 2682 1210 
L 2803 653 
z
M 1850 2374 
C 1984 2176 2138 1939 2310 1658 
L 2694 2227 
C 2413 2560 2131 2861 1850 3142 
L 1850 3430 
L 2560 3430 
L 2560 4077 
L 1850 4077 
L 1850 5254 
L 1190 5254 
L 1190 4077 
L 339 4077 
L 339 3430 
L 1146 3430 
C 954 2707 640 2067 211 1504 
L 499 762 
C 768 1210 998 1696 1190 2221 
L 1190 -646 
L 1850 -646 
L 1850 2374 
z
" transform="scale(0.015625)"/>
      <path id="PingFangSC-Semibold-762" d="M 326 4915 
L 326 4269 
L 4627 4269 
L 4627 262 
C 4627 83 4544 -13 4390 -13 
C 4070 -13 3731 0 3386 26 
L 3539 -621 
L 4621 -621 
C 5069 -621 5299 -378 5299 96 
L 5299 4269 
L 6093 4269 
L 6093 4915 
L 326 4915 
z
M 3654 3501 
L 1011 3501 
L 1011 480 
L 1651 480 
L 1651 992 
L 3654 992 
L 3654 3501 
z
M 1651 1594 
L 1651 2906 
L 3021 2906 
L 3021 1594 
L 1651 1594 
z
" transform="scale(0.015625)"/>
      <path id="PingFangSC-Semibold-1964" d="M 1120 1760 
L 1120 -666 
L 1779 -666 
L 1779 1830 
C 1958 1677 2144 1498 2336 1286 
L 2714 1862 
C 2432 2118 2131 2342 1805 2547 
C 2131 2989 2374 3437 2534 3885 
L 2534 4448 
L 1894 4448 
C 1818 4710 1709 4998 1581 5312 
L 947 5133 
C 1062 4915 1165 4685 1261 4448 
L 390 4448 
L 390 3808 
L 1862 3808 
C 1574 3174 1037 2522 243 1856 
L 454 1152 
C 691 1357 915 1555 1120 1760 
z
M 5728 5056 
L 2842 5056 
L 2842 1427 
L 3507 1427 
L 3507 4416 
L 5050 4416 
L 5050 1427 
L 5728 1427 
L 5728 5056 
z
M 5510 -563 
C 5722 -563 5882 -512 5990 -416 
C 6093 -314 6170 19 6214 570 
L 5594 768 
C 5581 422 5555 218 5523 141 
C 5491 77 5446 45 5389 45 
L 5069 45 
C 4966 45 4922 109 4922 230 
L 4922 1446 
L 4416 1446 
C 4512 1850 4570 2310 4589 2829 
L 4589 4032 
L 3949 4032 
L 3949 2829 
C 3923 2074 3795 1453 3565 973 
C 3328 531 2874 160 2202 -134 
L 2566 -723 
C 3258 -429 3757 -19 4070 518 
C 4141 653 4205 800 4269 960 
L 4269 90 
C 4269 -346 4467 -563 4870 -563 
L 5510 -563 
z
" transform="scale(0.015625)"/>
      <path id="PingFangSC-Semibold-6f8" d="M 2106 5318 
C 1696 4326 1062 3462 211 2733 
L 429 2035 
C 710 2272 979 2515 1229 2765 
L 1229 -678 
L 1894 -678 
L 1894 3546 
C 2240 4013 2522 4506 2733 5024 
L 2106 5318 
z
M 5184 -563 
C 5510 -563 5734 -486 5856 -339 
C 5978 -186 6061 262 6106 998 
L 5491 1210 
C 5478 640 5440 307 5376 211 
C 5312 122 5210 70 5069 70 
L 4147 70 
C 3949 70 3853 160 3853 333 
L 3853 2355 
C 4627 2835 5318 3386 5933 4013 
L 5466 4544 
C 4998 4032 4461 3571 3853 3162 
L 3853 5210 
L 3187 5210 
L 3187 2752 
C 2880 2586 2560 2426 2221 2272 
L 2522 1638 
C 2746 1747 2970 1856 3187 1971 
L 3187 237 
C 3187 -294 3456 -563 3994 -563 
L 5184 -563 
z
" transform="scale(0.015625)"/>
     </defs>
     <use xlink:href="#PingFangSC-Semibold-33"/>
     <use xlink:href="#PingFangSC-Semibold-26" transform="translate(65.5 0)"/>
     <use xlink:href="#PingFangSC-Semibold-24" transform="translate(138.703125 0)"/>
     <use xlink:href="#PingFangSC-Semibold-3" transform="translate(206.609375 0)"/>
     <use xlink:href="#PingFangSC-Semibold-1d33" transform="translate(239.90625 0)"/>
     <use xlink:href="#PingFangSC-Semibold-158c" transform="translate(339.90625 0)"/>
     <use xlink:href="#PingFangSC-Semibold-778" transform="translate(439.90625 0)"/>
     <use xlink:href="#PingFangSC-Semibold-1638" transform="translate(539.90625 0)"/>
     <use xlink:href="#PingFangSC-Semibold-1504" transform="translate(639.90625 0)"/>
     <use xlink:href="#PingFangSC-Semibold-156e" transform="translate(739.90625 0)"/>
     <use xlink:href="#PingFangSC-Semibold-e85" transform="translate(839.90625 0)"/>
     <use xlink:href="#PingFangSC-Semibold-762" transform="translate(939.90625 0)"/>
     <use xlink:href="#PingFangSC-Semibold-1964" transform="translate(1039.90625 0)"/>
     <use xlink:href="#PingFangSC-Semibold-6f8" transform="translate(1139.90625 0)"/>
    </g>
   </g>
   <g id="legend_1">
    <g id="PathCollection_4">
     <g>
      <use xlink:href="#m7191d44d53" x="75.86" y="51.975" style="fill: #93c5fd; stroke: #ffffff; stroke-width: 0.8"/>
     </g>
    </g>
    <g id="text_9">
     <!-- 类别 A -->
     <g style="fill: #374151" transform="translate(93.86 54.6) scale(0.1 -0.1)">
      <defs>
       <path id="PingFangSC-Regular-1504" d="M 3437 3098 
C 4154 2848 4864 2522 5555 2118 
L 5805 2502 
C 5088 2854 4294 3155 3437 3411 
L 3437 3526 
L 5901 3526 
L 5901 3955 
L 3437 3955 
L 3437 5235 
L 2963 5235 
L 2963 3955 
L 499 3955 
L 499 3526 
L 2522 3526 
C 2163 3117 1485 2752 493 2432 
L 742 2035 
C 1811 2451 2541 2950 2925 3526 
L 2963 3526 
L 2963 2362 
L 3437 2362 
L 3437 3098 
z
M 3117 998 
C 3718 218 4621 -326 5811 -640 
L 6042 -230 
C 4960 26 4122 474 3520 1120 
L 5952 1120 
L 5952 1549 
L 3334 1549 
C 3386 1734 3430 1939 3456 2157 
L 2982 2157 
C 2957 1939 2912 1741 2848 1549 
L 448 1549 
L 448 1120 
L 2662 1120 
C 2560 934 2426 768 2272 621 
C 1882 262 1248 -13 371 -205 
L 550 -634 
C 1530 -397 2227 -77 2643 333 
C 2835 525 2989 749 3117 998 
z
M 1638 5139 
L 1242 5005 
C 1446 4730 1613 4442 1741 4147 
L 2131 4250 
C 1990 4582 1824 4883 1638 5139 
z
M 4742 5152 
C 4602 4800 4429 4506 4230 4275 
L 4614 4134 
C 4832 4403 5011 4704 5146 5050 
L 4742 5152 
z
" transform="scale(0.015625)"/>
       <path id="PingFangSC-Regular-6a6" d="M 1638 2938 
C 1626 2656 1600 2400 1574 2157 
L 378 2157 
L 378 1728 
L 1517 1728 
C 1459 1421 1389 1158 1299 954 
C 1094 480 742 77 250 -262 
L 544 -627 
C 1088 -237 1478 230 1715 768 
C 1818 1011 1901 1331 1971 1728 
L 2950 1728 
C 2938 915 2918 429 2880 269 
C 2829 -6 2637 -147 2317 -147 
C 2182 -147 2022 -134 1837 -122 
L 1946 -531 
C 2150 -544 2291 -550 2381 -550 
C 2938 -550 3245 -333 3309 90 
C 3373 358 3405 1043 3405 2157 
L 2029 2157 
C 2054 2400 2074 2656 2086 2938 
L 3341 2938 
L 3341 4973 
L 621 4973 
L 621 2938 
L 1638 2938 
z
M 4064 4666 
L 4064 678 
L 4512 678 
L 4512 4666 
L 4064 4666 
z
M 5254 -582 
C 5651 -582 5856 -365 5856 58 
L 5856 5210 
L 5395 5210 
L 5395 173 
C 5395 -58 5293 -173 5094 -173 
C 4826 -173 4544 -160 4243 -141 
L 4346 -582 
L 5254 -582 
z
M 2899 3360 
L 1062 3360 
L 1062 4557 
L 2899 4557 
L 2899 3360 
z
" transform="scale(0.015625)"/>
       <path id="PingFangSC-Regular-3" transform="scale(0.015625)"/>
       <path id="PingFangSC-Regular-24" d="M 1798 4570 
L 0 0 
L 563 0 
L 1050 1280 
L 3149 1280 
L 3635 0 
L 4205 0 
L 2406 4570 
L 1798 4570 
z
M 1216 1722 
L 2093 4006 
L 2118 4006 
L 2982 1722 
L 1216 1722 
z
" transform="scale(0.015625)"/>
      </defs>
      <use xlink:href="#PingFangSC-Regular-1504"/>
      <use xlink:href="#PingFangSC-Regular-6a6" transform="translate(100 0)"/>
      <use xlink:href="#PingFangSC-Regular-3" transform="translate(200 0)"/>
      <use xlink:href="#PingFangSC-Regular-24" transform="translate(233.296875 0)"/>
     </g>
    </g>
    <g id="PathCollection_5">
     <g>
      <use xlink:href="#m17cb66e9c2" x="75.86" y="66.975" style="fill: #e9b08a; stroke: #ffffff; stroke-width: 0.8"/>
     </g>
    </g>
    <g id="text_10">
     <!-- 类别 B -->
     <g style="fill: #374151" transform="translate(93.86 69.6) scale(0.1 -0.1)">
      <defs>
       <path id="PingFangSC-Regular-25" d="M 461 4570 
L 461 0 
L 2490 0 
C 2957 0 3328 96 3597 275 
C 3910 493 4070 826 4070 1274 
C 4070 1581 3981 1824 3814 2016 
C 3648 2208 3418 2336 3117 2387 
C 3347 2464 3533 2586 3674 2752 
C 3808 2938 3878 3162 3878 3418 
C 3878 3776 3757 4058 3514 4262 
C 3264 4467 2925 4570 2502 4570 
L 461 4570 
z
M 986 4128 
L 2381 4128 
C 2701 4128 2944 4070 3110 3942 
C 3277 3814 3360 3622 3360 3366 
C 3360 3104 3270 2906 3104 2771 
C 2938 2643 2694 2573 2374 2573 
L 986 2573 
L 986 4128 
z
M 986 2138 
L 2445 2138 
C 2797 2138 3066 2074 3251 1933 
C 3443 1792 3546 1574 3546 1280 
C 3546 986 3430 762 3206 621 
C 3014 506 2765 442 2445 442 
L 986 442 
L 986 2138 
z
" transform="scale(0.015625)"/>
      </defs>
      <use xlink:href="#PingFangSC-Regular-1504"/>
      <use xlink:href="#PingFangSC-Regular-6a6" transform="translate(100 0)"/>
      <use xlink:href="#PingFangSC-Regular-3" transform="translate(200 0)"/>
      <use xlink:href="#PingFangSC-Regular-25" transform="translate(233.296875 0)"/>
     </g>
    </g>
    <g id="PathCollection_6">
     <g>
      <use xlink:href="#m5a9b1d05c4" x="75.86" y="81.975" style="fill: #86efac; stroke: #ffffff; stroke-width: 0.8"/>
     </g>
    </g>
    <g id="text_11">
     <!-- 类别 C -->
     <g style="fill: #374151" transform="translate(93.86 84.6) scale(0.1 -0.1)">
      <use xlink:href="#PingFangSC-Regular-1504"/>
      <use xlink:href="#PingFangSC-Regular-6a6" transform="translate(100 0)"/>
      <use xlink:href="#PingFangSC-Regular-3" transform="translate(200 0)"/>
      <use xlink:href="#PingFangSC-Regular-26" transform="translate(233.296875 0)"/>
     </g>
    </g>
   </g>
  </g>
 </g>
 <defs>
  <clipPath id="p40495e370c">
   <rect x="56.86" y="37" width="506.18" height="239.27"/>
  </clipPath>
 </defs>
</svg>
