<?xml version="1.0" encoding="utf-8" standalone="no"?>
<!DOCTYPE svg PUBLIC "-//W3C//DTD SVG 1.1//EN"
  "http://www.w3.org/Graphics/SVG/1.1/DTD/svg11.dtd">
<svg stroke-linejoin="round" stroke-linecap="butt" xmlns:xlink="http://www.w3.org/1999/xlink" width="498.24pt" height="355.68pt" viewBox="0 0 498.24 355.68" xmlns="http://www.w3.org/2000/svg" version="1.1">
 <metadata>
  <rdf:RDF xmlns:dc="http://purl.org/dc/elements/1.1/" xmlns:cc="http://creativecommons.org/ns#" xmlns:rdf="http://www.w3.org/1999/02/22-rdf-syntax-ns#">
   <cc:Work>
    <dc:type rdf:resource="http://purl.org/dc/dcmitype/StillImage"/>
    <dc:date>1970-01-01T00:00:00</dc:date>
    <dc:format>image/svg+xml</dc:format>
    <dc:creator>
     <cc:Agent>
      <dc:title>Matplotlib v3.11.2, https://matplotlib.org/</dc:title>
     </cc:Agent>
    </dc:creator>
   </cc:Work>
  </rdf:RDF>
 </metadata>
 <defs>
  
 </defs>
 <g id="figure_1">
  <g id="patch_1">
   <path d="M 0 355.68 
L 498.24 355.68 
L 498.24 0 
L 0 0 
z
" style="fill: #ffffff"/>
  </g>
  <g id="axes_1">
   <g id="patch_2">
    <path d="M 249.12 135.520598 
Q 249.12 135.62172 249.12 133.933989 
" style="fill: none; stroke: #1e293b; stroke-width: 1.6; stroke-linecap: round"/>
    <path d="M 251.92 128.333989 
L 249.12 133.933989 
L 246.32 128.333989 
" style="fill: none; stroke: #1e293b; stroke-width: 1.6; stroke-linecap: round"/>
   </g>
   <g id="patch_3">
    <path d="M 249.12 180.052103 
Q 249.12 180.153226 249.12 178.465495 
" style="fill: none; stroke: #1e293b; stroke-width: 1.6; stroke-linecap: round"/>
    <path d="M 251.92 172.865495 
L 249.12 178.465495 
L 246.32 172.865495 
" style="fill: none; stroke: #1e293b; stroke-width: 1.6; stroke-linecap: round"/>
   </g>
   <g id="patch_4">
    <path d="M 249.12 224.583609 
Q 249.12 224.684732 249.12 222.997 
" style="fill: none; stroke: #1e293b; stroke-width: 1.6; stroke-linecap: round"/>
    <path d="M 251.92 217.397 
L 249.12 222.997 
L 246.32 217.397 
" style="fill: none; stroke: #1e293b; stroke-width: 1.6; stroke-linecap: round"/>
   </g>
   <g id="patch_5">
    <path d="M 249.12 269.115115 
Q 249.12 269.216237 249.12 267.528506 
" style="fill: none; stroke: #1e293b; stroke-width: 1.6; stroke-linecap: round"/>
    <path d="M 251.92 261.928506 
L 249.12 267.528506 
L 246.32 261.928506 
" style="fill: none; stroke: #1e293b; stroke-width: 1.6; stroke-linecap: round"/>
   </g>
   <g id="text_1">
    <!-- SIMT 线程层次 -->
    <g style="fill: #1e293b" transform="translate(195.495 35.36) scale(0.16 -0.16)">
     <defs>
      <path id="PingFangSC-Regular-36" d="M 1997 4659 
C 1523 4659 1133 4557 832 4352 
C 493 4134 326 3821 326 3424 
C 326 3040 499 2746 851 2541 
C 998 2464 1350 2336 1901 2170 
C 2413 2022 2739 1914 2867 1837 
C 3168 1677 3322 1453 3322 1165 
C 3322 922 3206 730 2976 589 
C 2746 448 2438 378 2067 378 
C 1658 378 1350 467 1139 634 
C 909 819 768 1114 723 1510 
L 205 1510 
C 243 947 442 531 800 256 
C 1107 26 1530 -90 2067 -90 
C 2611 -90 3040 26 3360 250 
C 3680 480 3840 800 3840 1197 
C 3840 1613 3648 1933 3270 2163 
C 3078 2278 2682 2426 2080 2605 
C 1638 2733 1357 2829 1242 2893 
C 979 3034 851 3219 851 3450 
C 851 3712 960 3904 1178 4032 
C 1370 4147 1632 4198 1971 4198 
C 2342 4198 2630 4122 2835 3955 
C 3034 3795 3162 3552 3219 3219 
L 3738 3219 
C 3693 3699 3520 4064 3213 4307 
C 2918 4544 2509 4659 1997 4659 
z
" transform="scale(0.015625)"/>
      <path id="PingFangSC-Regular-2c" d="M 499 4570 
L 499 0 
L 1018 0 
L 1018 4570 
L 499 4570 
z
" transform="scale(0.015625)"/>
      <path id="PingFangSC-Regular-30" d="M 461 4570 
L 461 0 
L 986 0 
L 986 3635 
L 1005 3635 
L 2586 0 
L 3059 0 
L 4640 3635 
L 4659 3635 
L 4659 0 
L 5184 0 
L 5184 4570 
L 4531 4570 
L 2835 672 
L 2816 672 
L 1114 4570 
L 461 4570 
z
" transform="scale(0.015625)"/>
      <path id="PingFangSC-Regular-37" d="M 109 4570 
L 109 4115 
L 1722 4115 
L 1722 0 
L 2240 0 
L 2240 4115 
L 3853 4115 
L 3853 4570 
L 109 4570 
z
" transform="scale(0.015625)"/>
      <path id="PingFangSC-Regular-3" transform="scale(0.015625)"/>
      <path id="PingFangSC-Regular-155a" d="M 2547 634 
C 1920 390 1184 192 339 51 
L 397 -397 
C 1203 -250 1920 -51 2547 192 
L 2547 634 
z
M 1408 5261 
C 1152 4499 851 3821 506 3232 
C 448 3149 384 3091 314 3066 
L 422 2643 
C 781 2688 1139 2733 1491 2784 
C 1158 2189 870 1766 634 1523 
C 576 1472 506 1427 422 1389 
L 550 966 
C 1165 1050 1805 1203 2477 1421 
L 2477 1837 
C 2016 1683 1555 1562 1094 1472 
C 1466 1926 1939 2694 2502 3776 
L 2093 3930 
C 1965 3674 1837 3430 1722 3200 
C 1434 3155 1146 3117 858 3091 
C 1190 3590 1523 4256 1850 5088 
L 1408 5261 
z
M 5651 4096 
L 4058 3872 
L 4058 5229 
L 3597 5229 
L 3597 3808 
L 2618 3667 
L 2688 3245 
L 3610 3379 
C 3616 3072 3635 2778 3667 2502 
L 2509 2317 
L 2573 1882 
L 3725 2067 
C 3750 1901 3776 1741 3814 1574 
C 3891 1229 3987 922 4109 640 
C 3635 288 3104 19 2515 -173 
L 2784 -544 
C 3328 -378 3840 -115 4314 237 
C 4352 154 4403 77 4461 0 
C 4736 -384 5024 -576 5331 -589 
C 5664 -589 5920 -160 6099 685 
L 5709 941 
C 5594 256 5446 -90 5280 -90 
C 5114 -90 4928 70 4717 384 
C 4691 422 4672 467 4646 506 
C 5043 851 5408 1274 5747 1766 
L 5382 2016 
C 5114 1606 4806 1248 4461 928 
C 4371 1184 4294 1472 4230 1805 
C 4211 1907 4192 2022 4179 2138 
L 5894 2406 
L 5824 2842 
L 4128 2573 
C 4102 2848 4083 3136 4070 3443 
L 5715 3674 
L 5651 4096 
z
M 4774 5248 
L 4416 5024 
C 4736 4730 4992 4454 5171 4205 
L 5530 4454 
C 5350 4678 5101 4941 4774 5248 
z
" transform="scale(0.015625)"/>
      <path id="PingFangSC-Regular-1455" d="M 3014 4992 
L 3014 3142 
L 5670 3142 
L 5670 4992 
L 3014 4992 
z
M 5222 3558 
L 3469 3558 
L 3469 4582 
L 5222 4582 
L 5222 3558 
z
M 2765 2547 
L 2765 2125 
L 4077 2125 
L 4077 1306 
L 2912 1306 
L 2912 890 
L 4077 890 
L 4077 26 
L 2509 26 
L 2509 -410 
L 6099 -410 
L 6099 26 
L 4550 26 
L 4550 890 
L 5747 890 
L 5747 1306 
L 4550 1306 
L 4550 2125 
L 5946 2125 
L 5946 2547 
L 2765 2547 
z
M 371 3475 
L 371 3034 
L 1261 3034 
C 1056 2304 710 1658 224 1088 
L 422 576 
C 787 1082 1082 1645 1306 2272 
L 1306 -614 
L 1747 -614 
L 1747 2272 
C 1926 2035 2150 1715 2406 1318 
L 2662 1702 
C 2355 2067 2048 2400 1747 2694 
L 1747 3034 
L 2573 3034 
L 2573 3475 
L 1747 3475 
L 1747 4480 
C 2067 4544 2374 4614 2662 4698 
L 2502 5133 
C 1888 4941 1178 4806 378 4730 
L 467 4294 
C 755 4326 1037 4365 1306 4403 
L 1306 3475 
L 371 3475 
z
" transform="scale(0.015625)"/>
      <path id="PingFangSC-Regular-a76" d="M 2074 2778 
L 2074 2368 
L 5549 2368 
L 5549 2778 
L 2074 2778 
z
M 1626 1734 
L 1626 1312 
L 3021 1312 
C 2573 589 2202 147 1920 -19 
C 1894 -32 1862 -51 1824 -64 
L 1926 -454 
C 3130 -378 4243 -269 5261 -128 
C 5389 -294 5504 -461 5606 -627 
L 5978 -365 
C 5696 45 5286 531 4762 1088 
L 4422 877 
C 4614 659 4800 448 4973 237 
C 4154 115 3322 26 2483 -38 
C 2778 237 3117 685 3514 1312 
L 5965 1312 
L 5965 1734 
L 1626 1734 
z
M 5184 4544 
L 5184 3802 
L 1427 3802 
L 1427 4544 
L 5184 4544 
z
M 1427 3386 
L 5632 3386 
L 5632 4973 
L 973 4973 
L 973 2854 
C 966 1568 742 518 301 -294 
L 634 -595 
C 1158 365 1421 1517 1427 2854 
L 1427 3386 
z
" transform="scale(0.015625)"/>
      <path id="PingFangSC-Regular-f7a" d="M 3091 3814 
L 5414 3814 
C 5286 3315 5126 2867 4928 2470 
L 5382 2342 
C 5600 2874 5773 3411 5907 3955 
L 5907 4256 
L 3219 4256 
C 3290 4538 3347 4845 3398 5178 
L 2938 5248 
C 2784 4134 2445 3258 1920 2630 
L 2304 2362 
C 2630 2733 2893 3219 3091 3814 
z
M 3750 3379 
C 3738 2547 3629 1856 3424 1312 
C 3136 672 2560 134 1690 -288 
L 1990 -653 
C 2976 -166 3603 461 3878 1229 
C 3930 1370 3974 1517 4013 1677 
C 4422 755 5037 -13 5869 -640 
L 6170 -288 
C 5203 378 4531 1280 4147 2419 
C 4179 2714 4198 3034 4198 3379 
L 3750 3379 
z
M 691 4954 
L 320 4723 
C 806 4237 1197 3789 1485 3392 
L 1843 3648 
C 1574 4019 1190 4454 691 4954 
z
M 1472 2208 
C 1126 1376 723 557 250 -243 
L 678 -435 
C 1120 339 1517 1171 1875 2054 
L 1472 2208 
z
" transform="scale(0.015625)"/>
     </defs>
     <use xlink:href="#PingFangSC-Regular-36"/>
     <use xlink:href="#PingFangSC-Regular-2c" transform="translate(63.203125 0)"/>
     <use xlink:href="#PingFangSC-Regular-30" transform="translate(86.90625 0)"/>
     <use xlink:href="#PingFangSC-Regular-37" transform="translate(175.109375 0)"/>
     <use xlink:href="#PingFangSC-Regular-3" transform="translate(237.015625 0)"/>
     <use xlink:href="#PingFangSC-Regular-155a" transform="translate(270.3125 0)"/>
     <use xlink:href="#PingFangSC-Regular-1455" transform="translate(370.3125 0)"/>
     <use xlink:href="#PingFangSC-Regular-a76" transform="translate(470.3125 0)"/>
     <use xlink:href="#PingFangSC-Regular-f7a" transform="translate(570.3125 0)"/>
    </g>
   </g>
   <g id="text_2">
    <g id="patch_6">
     <path d="M 211.27125 124.355496 
L 286.96875 124.355496 
Q 290.56875 124.355496 290.56875 120.755496 
L 290.56875 103.955496 
Q 290.56875 100.355496 286.96875 100.355496 
L 211.27125 100.355496 
Q 207.67125 100.355496 207.67125 103.955496 
L 207.67125 120.755496 
Q 207.67125 124.355496 211.27125 124.355496 
z
" style="fill: #ffffff; stroke: #3b82f6; stroke-width: 1.6; stroke-linejoin: miter"/>
    </g>
    <!-- Kernel launch -->
    <g style="fill: #1e293b" transform="translate(211.27125 116.638934) scale(0.12 -0.12)">
     <defs>
      <path id="PingFangSC-Regular-2e" d="M 3443 4570 
L 986 2195 
L 986 4570 
L 461 4570 
L 461 0 
L 986 0 
L 986 1600 
L 1696 2272 
L 3712 0 
L 4416 0 
L 2061 2611 
L 4128 4570 
L 3443 4570 
z
" transform="scale(0.015625)"/>
      <path id="PingFangSC-Regular-48" d="M 1760 3398 
C 1280 3398 902 3226 621 2880 
C 339 2554 205 2144 205 1658 
C 205 1120 346 698 640 378 
C 922 70 1306 -90 1779 -90 
C 2208 -90 2560 38 2835 282 
C 3059 486 3206 742 3283 1062 
L 2771 1062 
C 2688 832 2579 659 2438 544 
C 2272 410 2048 339 1779 339 
C 1466 339 1216 442 1037 646 
C 858 851 762 1139 736 1510 
L 3347 1510 
C 3334 2086 3206 2541 2963 2861 
C 2694 3219 2291 3398 1760 3398 
z
M 1773 2970 
C 2400 2970 2752 2618 2816 1907 
L 749 1907 
C 781 2234 883 2490 1062 2682 
C 1242 2874 1478 2970 1773 2970 
z
" transform="scale(0.015625)"/>
      <path id="PingFangSC-Regular-55" d="M 1850 3398 
C 1619 3398 1421 3328 1248 3187 
C 1107 3078 992 2925 902 2733 
L 902 3309 
L 397 3309 
L 397 0 
L 902 0 
L 902 1754 
C 902 2061 986 2323 1165 2541 
C 1338 2771 1555 2880 1811 2880 
C 1971 2880 2138 2861 2304 2810 
L 2304 3322 
C 2182 3373 2029 3398 1850 3398 
z
" transform="scale(0.015625)"/>
      <path id="PingFangSC-Regular-51" d="M 1946 3398 
C 1728 3398 1530 3347 1350 3245 
C 1171 3149 1024 3008 909 2822 
L 909 3309 
L 397 3309 
L 397 0 
L 909 0 
L 909 1997 
C 928 2298 1024 2534 1203 2714 
C 1370 2880 1568 2963 1798 2963 
C 2374 2963 2669 2643 2669 1997 
L 2669 0 
L 3181 0 
L 3181 2035 
C 3181 2944 2765 3398 1946 3398 
z
" transform="scale(0.015625)"/>
      <path id="PingFangSC-Regular-4f" d="M 499 4659 
L 499 0 
L 1005 0 
L 1005 4659 
L 499 4659 
z
" transform="scale(0.015625)"/>
      <path id="PingFangSC-Regular-44" d="M 1837 3398 
C 1440 3398 1126 3322 883 3168 
C 614 3002 442 2739 371 2394 
L 877 2355 
C 928 2566 1037 2726 1210 2829 
C 1363 2931 1562 2976 1805 2976 
C 2381 2976 2669 2701 2669 2144 
L 2669 1971 
L 1875 1958 
C 1376 1952 992 1856 723 1677 
C 416 1485 269 1203 269 826 
C 269 557 371 333 576 160 
C 774 -6 1037 -90 1370 -90 
C 1677 -90 1952 -19 2195 115 
C 2400 230 2573 378 2701 557 
L 2701 0 
L 3181 0 
L 3181 2125 
C 3181 2509 3078 2810 2886 3027 
C 2656 3277 2310 3398 1837 3398 
z
M 2669 1587 
L 2669 1306 
C 2669 1050 2547 819 2310 621 
C 2067 416 1792 314 1478 314 
C 1274 314 1107 365 979 461 
C 851 563 794 685 794 838 
C 794 1318 1165 1562 1907 1574 
L 2669 1587 
z
" transform="scale(0.015625)"/>
      <path id="PingFangSC-Regular-58" d="M 397 3309 
L 397 1261 
C 397 365 794 -90 1600 -90 
C 2048 -90 2406 115 2675 512 
L 2675 0 
L 3187 0 
L 3187 3309 
L 2675 3309 
L 2675 1293 
C 2637 1011 2528 781 2349 602 
C 2176 435 1978 346 1760 346 
C 1459 346 1242 429 1107 582 
C 973 736 909 973 909 1286 
L 909 3309 
L 397 3309 
z
" transform="scale(0.015625)"/>
      <path id="PingFangSC-Regular-46" d="M 1824 3398 
C 1331 3398 941 3226 659 2874 
C 397 2554 269 2144 269 1638 
C 269 1133 397 723 659 410 
C 934 77 1318 -90 1818 -90 
C 2227 -90 2554 19 2803 230 
C 3059 448 3219 774 3296 1197 
L 2784 1197 
C 2707 627 2381 339 1818 339 
C 1485 339 1229 461 1056 691 
C 877 922 794 1242 794 1645 
C 794 2048 883 2368 1062 2605 
C 1248 2848 1504 2970 1824 2970 
C 2086 2970 2298 2912 2464 2784 
C 2624 2656 2726 2464 2771 2208 
L 3277 2208 
C 3219 2611 3066 2912 2810 3110 
C 2560 3302 2234 3398 1824 3398 
z
" transform="scale(0.015625)"/>
      <path id="PingFangSC-Regular-4b" d="M 397 4659 
L 397 0 
L 909 0 
L 909 1888 
C 909 2195 992 2458 1165 2662 
C 1331 2867 1542 2970 1798 2970 
C 2074 2970 2285 2886 2438 2720 
C 2579 2554 2656 2317 2656 2010 
L 2656 0 
L 3168 0 
L 3168 2086 
C 3168 2509 3066 2835 2861 3059 
C 2656 3290 2355 3398 1971 3398 
C 1747 3398 1549 3347 1370 3245 
C 1178 3136 1024 2976 909 2765 
L 909 4659 
L 397 4659 
z
" transform="scale(0.015625)"/>
     </defs>
     <use xlink:href="#PingFangSC-Regular-2e"/>
     <use xlink:href="#PingFangSC-Regular-48" transform="translate(69 0)"/>
     <use xlink:href="#PingFangSC-Regular-55" transform="translate(124.5 0)"/>
     <use xlink:href="#PingFangSC-Regular-51" transform="translate(161 0)"/>
     <use xlink:href="#PingFangSC-Regular-48" transform="translate(216.90625 0)"/>
     <use xlink:href="#PingFangSC-Regular-4f" transform="translate(272.40625 0)"/>
     <use xlink:href="#PingFangSC-Regular-3" transform="translate(295.90625 0)"/>
     <use xlink:href="#PingFangSC-Regular-4f" transform="translate(329.203125 0)"/>
     <use xlink:href="#PingFangSC-Regular-44" transform="translate(352.703125 0)"/>
     <use xlink:href="#PingFangSC-Regular-58" transform="translate(408.609375 0)"/>
     <use xlink:href="#PingFangSC-Regular-51" transform="translate(464.609375 0)"/>
     <use xlink:href="#PingFangSC-Regular-46" transform="translate(520.515625 0)"/>
     <use xlink:href="#PingFangSC-Regular-4b" transform="translate(575.21875 0)"/>
    </g>
   </g>
   <g id="text_3">
    <g id="patch_7">
     <path d="M 202.495312 168.887002 
L 295.744687 168.887002 
Q 299.344687 168.887002 299.344687 165.287002 
L 299.344687 148.487002 
Q 299.344687 144.887002 295.744687 144.887002 
L 202.495312 144.887002 
Q 198.895312 144.887002 198.895312 148.487002 
L 198.895312 165.287002 
Q 198.895312 168.887002 202.495312 168.887002 
z
" style="fill: #ffffff; stroke: #3b82f6; stroke-width: 1.6; stroke-linejoin: miter"/>
    </g>
    <!-- Grid：全部 block -->
    <g style="fill: #1e293b" transform="translate(202.495312 161.237002) scale(0.12 -0.12)">
     <defs>
      <path id="PingFangSC-Regular-2a" d="M 2413 4659 
C 1741 4659 1210 4422 819 3942 
C 448 3501 269 2944 269 2266 
C 269 1587 454 1030 826 602 
C 1222 141 1786 -90 2509 -90 
C 2886 -90 3238 -38 3571 64 
C 3885 166 4154 301 4371 480 
L 4371 2349 
L 2419 2349 
L 2419 1894 
L 3853 1894 
L 3853 730 
C 3693 627 3501 538 3277 474 
C 3046 410 2810 371 2560 371 
C 1965 371 1517 550 1216 902 
C 934 1235 794 1690 794 2266 
C 794 2854 934 3322 1229 3667 
C 1523 4019 1914 4192 2413 4192 
C 2816 4192 3142 4096 3392 3898 
C 3629 3712 3782 3450 3853 3104 
L 4378 3104 
C 4294 3603 4096 3981 3776 4243 
C 3437 4525 2982 4659 2413 4659 
z
" transform="scale(0.015625)"/>
      <path id="PingFangSC-Regular-4c" d="M 819 4557 
C 710 4557 621 4525 544 4448 
C 467 4384 435 4294 435 4179 
C 435 4070 467 3981 544 3904 
C 621 3834 710 3795 819 3795 
C 928 3795 1018 3834 1094 3904 
C 1171 3981 1210 4070 1210 4179 
C 1210 4294 1171 4384 1094 4448 
C 1018 4525 928 4557 819 4557 
z
M 563 3309 
L 563 0 
L 1075 0 
L 1075 3309 
L 563 3309 
z
" transform="scale(0.015625)"/>
      <path id="PingFangSC-Regular-47" d="M 2842 4659 
L 2842 2701 
C 2586 3168 2221 3398 1747 3398 
C 1274 3398 909 3226 640 2867 
C 390 2547 269 2150 269 1664 
C 269 1165 390 755 640 435 
C 909 90 1286 -90 1773 -90 
C 2272 -90 2643 122 2874 544 
L 2874 0 
L 3354 0 
L 3354 4659 
L 2842 4659 
z
M 1856 2976 
C 2150 2976 2394 2861 2579 2618 
C 2758 2381 2854 2067 2854 1683 
L 2854 1619 
C 2854 1248 2771 947 2611 717 
C 2426 461 2170 333 1837 333 
C 1478 333 1210 467 1030 723 
C 870 954 794 1267 794 1664 
C 794 2061 870 2368 1037 2592 
C 1216 2848 1491 2976 1856 2976 
z
" transform="scale(0.015625)"/>
      <path id="PingFangSC-Regular-493" d="M 1600 3898 
C 1485 3898 1395 3859 1318 3776 
C 1242 3706 1210 3616 1210 3501 
C 1210 3392 1242 3302 1318 3226 
C 1395 3149 1485 3110 1600 3110 
C 1709 3110 1805 3149 1882 3226 
C 1958 3302 1997 3392 1997 3501 
C 1997 3616 1958 3706 1882 3776 
C 1805 3859 1709 3898 1600 3898 
z
M 1600 1555 
C 1485 1555 1395 1517 1318 1434 
C 1242 1363 1210 1274 1210 1158 
C 1210 1050 1242 960 1318 883 
C 1395 806 1485 768 1600 768 
C 1709 768 1805 806 1882 883 
C 1958 960 1997 1050 1997 1158 
C 1997 1274 1958 1363 1882 1434 
C 1805 1517 1709 1555 1600 1555 
z
" transform="scale(0.015625)"/>
      <path id="PingFangSC-Regular-642" d="M 3034 5210 
C 2291 4403 1357 3725 230 3181 
L 454 2778 
C 1587 3347 2502 4019 3200 4794 
C 3955 3981 4858 3322 5920 2810 
L 6150 3219 
C 5101 3706 4173 4365 3366 5210 
L 3034 5210 
z
M 1414 3187 
L 1414 2746 
L 2963 2746 
L 2963 1632 
L 1107 1632 
L 1107 1190 
L 2963 1190 
L 2963 6 
L 538 6 
L 538 -448 
L 5869 -448 
L 5869 6 
L 3437 6 
L 3437 1190 
L 5286 1190 
L 5286 1632 
L 3437 1632 
L 3437 2746 
L 4986 2746 
L 4986 3187 
L 1414 3187 
z
" transform="scale(0.015625)"/>
      <path id="PingFangSC-Regular-1bb1" d="M 1203 3923 
L 781 3770 
C 941 3488 1075 3181 1190 2848 
L 326 2848 
L 326 2400 
L 3533 2400 
L 3533 2848 
L 2758 2848 
C 2925 3136 3072 3462 3206 3827 
L 2778 3974 
C 2650 3578 2490 3200 2304 2848 
L 1632 2848 
C 1504 3270 1357 3629 1203 3923 
z
M 3827 4960 
L 3827 -627 
L 4275 -627 
L 4275 4538 
L 5421 4538 
C 5216 3846 5005 3245 4794 2739 
C 5293 2125 5549 1632 5555 1254 
C 5549 1024 5517 870 5453 787 
C 5389 710 5242 666 5011 653 
C 4890 653 4742 666 4563 678 
L 4710 192 
C 5235 192 5587 275 5766 429 
C 5933 582 6016 858 6016 1254 
C 6010 1638 5766 2138 5286 2739 
C 5517 3315 5728 3942 5926 4614 
L 5926 4960 
L 3827 4960 
z
M 448 4608 
L 448 4160 
L 3488 4160 
L 3488 4608 
L 2182 4608 
C 2112 4851 2042 5075 1971 5267 
L 1498 5184 
C 1581 5011 1658 4819 1734 4608 
L 448 4608 
z
M 3238 1818 
L 691 1818 
L 691 -595 
L 1146 -595 
L 1146 -237 
L 2784 -237 
L 2784 -595 
L 3238 -595 
L 3238 1818 
z
M 1146 198 
L 1146 1382 
L 2784 1382 
L 2784 198 
L 1146 198 
z
" transform="scale(0.015625)"/>
      <path id="PingFangSC-Regular-45" d="M 397 4659 
L 397 0 
L 877 0 
L 877 544 
C 1101 122 1466 -90 1978 -90 
C 2458 -90 2835 90 3110 435 
C 3354 755 3482 1165 3482 1664 
C 3482 2150 3354 2547 3110 2867 
C 2842 3226 2470 3398 2003 3398 
C 1530 3398 1165 3168 909 2701 
L 909 4659 
L 397 4659 
z
M 1894 2976 
C 2253 2976 2522 2848 2707 2592 
C 2874 2368 2957 2061 2957 1664 
C 2957 1267 2874 954 2720 723 
C 2541 467 2272 333 1914 333 
C 1581 333 1318 461 1139 717 
C 973 947 890 1248 890 1619 
L 890 1683 
C 890 2067 979 2381 1171 2618 
C 1350 2861 1594 2976 1894 2976 
z
" transform="scale(0.015625)"/>
      <path id="PingFangSC-Regular-52" d="M 1875 3398 
C 1376 3398 986 3232 691 2886 
C 410 2560 269 2150 269 1651 
C 269 1158 410 749 691 429 
C 986 83 1376 -90 1875 -90 
C 2368 -90 2765 83 3066 429 
C 3341 749 3482 1158 3482 1651 
C 3482 2150 3341 2560 3059 2886 
C 2765 3232 2368 3398 1875 3398 
z
M 1875 2970 
C 2221 2970 2496 2835 2701 2566 
C 2874 2323 2963 2022 2963 1651 
C 2963 1293 2874 986 2701 742 
C 2496 474 2221 339 1875 339 
C 1523 339 1248 474 1056 742 
C 877 986 794 1286 794 1651 
C 794 2022 877 2323 1056 2566 
C 1248 2835 1523 2970 1875 2970 
z
" transform="scale(0.015625)"/>
      <path id="PingFangSC-Regular-4e" d="M 397 4659 
L 397 0 
L 909 0 
L 909 1171 
L 1434 1645 
L 2726 0 
L 3386 0 
L 1786 1978 
L 3245 3309 
L 2566 3309 
L 909 1773 
L 909 4659 
L 397 4659 
z
" transform="scale(0.015625)"/>
     </defs>
     <use xlink:href="#PingFangSC-Regular-2a"/>
     <use xlink:href="#PingFangSC-Regular-55" transform="translate(74.796875 0)"/>
     <use xlink:href="#PingFangSC-Regular-4c" transform="translate(111.296875 0)"/>
     <use xlink:href="#PingFangSC-Regular-47" transform="translate(136.890625 0)"/>
     <use xlink:href="#PingFangSC-Regular-493" transform="translate(195.484375 0)"/>
     <use xlink:href="#PingFangSC-Regular-642" transform="translate(295.484375 0)"/>
     <use xlink:href="#PingFangSC-Regular-1bb1" transform="translate(395.484375 0)"/>
     <use xlink:href="#PingFangSC-Regular-3" transform="translate(495.484375 0)"/>
     <use xlink:href="#PingFangSC-Regular-45" transform="translate(528.78125 0)"/>
     <use xlink:href="#PingFangSC-Regular-4f" transform="translate(587.375 0)"/>
     <use xlink:href="#PingFangSC-Regular-52" transform="translate(610.875 0)"/>
     <use xlink:href="#PingFangSC-Regular-46" transform="translate(669.46875 0)"/>
     <use xlink:href="#PingFangSC-Regular-4e" transform="translate(724.171875 0)"/>
    </g>
   </g>
   <g id="text_4">
    <g id="patch_8">
     <path d="M 196.595625 213.418507 
L 301.644375 213.418507 
Q 305.244375 213.418507 305.244375 209.818507 
L 305.244375 193.018507 
Q 305.244375 189.418507 301.644375 189.418507 
L 196.595625 189.418507 
Q 192.995625 189.418507 192.995625 193.018507 
L 192.995625 209.818507 
Q 192.995625 213.418507 196.595625 213.418507 
z
" style="fill: #ffffff; stroke: #3b82f6; stroke-width: 1.6; stroke-linejoin: miter"/>
    </g>
    <!-- Block：同一 SM 内 -->
    <g style="fill: #1e293b" transform="translate(196.595625 205.744132) scale(0.12 -0.12)">
     <defs>
      <path id="PingFangSC-Regular-25" d="M 461 4570 
L 461 0 
L 2490 0 
C 2957 0 3328 96 3597 275 
C 3910 493 4070 826 4070 1274 
C 4070 1581 3981 1824 3814 2016 
C 3648 2208 3418 2336 3117 2387 
C 3347 2464 3533 2586 3674 2752 
C 3808 2938 3878 3162 3878 3418 
C 3878 3776 3757 4058 3514 4262 
C 3264 4467 2925 4570 2502 4570 
L 461 4570 
z
M 986 4128 
L 2381 4128 
C 2701 4128 2944 4070 3110 3942 
C 3277 3814 3360 3622 3360 3366 
C 3360 3104 3270 2906 3104 2771 
C 2938 2643 2694 2573 2374 2573 
L 986 2573 
L 986 4128 
z
M 986 2138 
L 2445 2138 
C 2797 2138 3066 2074 3251 1933 
C 3443 1792 3546 1574 3546 1280 
C 3546 986 3430 762 3206 621 
C 3014 506 2765 442 2445 442 
L 986 442 
L 986 2138 
z
" transform="scale(0.015625)"/>
      <path id="PingFangSC-Regular-776" d="M 5210 -614 
C 5581 -614 5766 -403 5766 13 
L 5766 4979 
L 634 4979 
L 634 -634 
L 1094 -634 
L 1094 4531 
L 5306 4531 
L 5306 115 
C 5306 -77 5222 -173 5062 -173 
L 4230 -154 
L 4358 -614 
L 5210 -614 
z
M 1562 3795 
L 1562 3366 
L 4845 3366 
L 4845 3795 
L 1562 3795 
z
M 1920 2675 
L 1920 614 
L 4486 614 
L 4486 2675 
L 1920 2675 
z
M 4038 1024 
L 2368 1024 
L 2368 2259 
L 4038 2259 
L 4038 1024 
z
" transform="scale(0.015625)"/>
      <path id="PingFangSC-Regular-4de" d="M 320 2579 
L 320 2118 
L 6074 2118 
L 6074 2579 
L 320 2579 
z
" transform="scale(0.015625)"/>
      <path id="PingFangSC-Regular-656" d="M 3181 2605 
C 3782 1990 4275 1408 4646 858 
L 4992 1210 
C 4538 1818 3981 2438 3315 3066 
C 3366 3277 3405 3507 3437 3750 
L 5267 3750 
L 5267 179 
C 5267 -26 5165 -134 4960 -134 
L 3981 -109 
L 4109 -570 
L 5114 -570 
C 5523 -570 5734 -352 5734 77 
L 5734 4198 
L 3488 4198 
C 3514 4518 3533 4870 3533 5248 
L 3066 5248 
C 3066 4877 3046 4525 3014 4198 
L 672 4198 
L 672 -634 
L 1139 -634 
L 1139 3750 
L 2963 3750 
C 2918 3456 2861 3187 2790 2938 
C 2560 2227 2086 1638 1370 1165 
L 1677 787 
C 2419 1274 2918 1875 3181 2605 
z
" transform="scale(0.015625)"/>
     </defs>
     <use xlink:href="#PingFangSC-Regular-25"/>
     <use xlink:href="#PingFangSC-Regular-4f" transform="translate(67.703125 0)"/>
     <use xlink:href="#PingFangSC-Regular-52" transform="translate(91.203125 0)"/>
     <use xlink:href="#PingFangSC-Regular-46" transform="translate(149.796875 0)"/>
     <use xlink:href="#PingFangSC-Regular-4e" transform="translate(204.5 0)"/>
     <use xlink:href="#PingFangSC-Regular-493" transform="translate(257.40625 0)"/>
     <use xlink:href="#PingFangSC-Regular-776" transform="translate(357.40625 0)"/>
     <use xlink:href="#PingFangSC-Regular-4de" transform="translate(457.40625 0)"/>
     <use xlink:href="#PingFangSC-Regular-3" transform="translate(557.40625 0)"/>
     <use xlink:href="#PingFangSC-Regular-36" transform="translate(590.703125 0)"/>
     <use xlink:href="#PingFangSC-Regular-30" transform="translate(653.90625 0)"/>
     <use xlink:href="#PingFangSC-Regular-3" transform="translate(742.109375 0)"/>
     <use xlink:href="#PingFangSC-Regular-656" transform="translate(775.40625 0)"/>
    </g>
   </g>
   <g id="text_5">
    <g id="patch_9">
     <path d="M 201.282187 257.950013 
L 296.957812 257.950013 
Q 300.557812 257.950013 300.557812 254.350013 
L 300.557812 237.550013 
Q 300.557812 233.950013 296.957812 233.950013 
L 201.282187 233.950013 
Q 197.682187 233.950013 197.682187 237.550013 
L 197.682187 254.350013 
Q 197.682187 257.950013 201.282187 257.950013 
z
" style="fill: #ffffff; stroke: #3b82f6; stroke-width: 1.6; stroke-linejoin: miter"/>
    </g>
    <!-- Warp：32 个线程 -->
    <g style="fill: #1e293b" transform="translate(201.282187 249.694388) scale(0.12 -0.12)">
     <defs>
      <path id="PingFangSC-Regular-3a" d="M 32 4570 
L 1344 0 
L 1926 0 
L 2970 3808 
L 2989 3808 
L 4026 0 
L 4608 0 
L 5920 4570 
L 5331 4570 
L 4326 736 
L 4301 736 
L 3264 4570 
L 2694 4570 
L 1651 736 
L 1626 736 
L 621 4570 
L 32 4570 
z
" transform="scale(0.015625)"/>
      <path id="PingFangSC-Regular-53" d="M 1978 3398 
C 1478 3398 1114 3187 877 2765 
L 877 3309 
L 397 3309 
L 397 -1267 
L 909 -1267 
L 909 602 
C 1165 141 1530 -90 2003 -90 
C 2477 -90 2842 90 3110 435 
C 3354 755 3482 1158 3482 1645 
C 3482 2144 3354 2547 3104 2867 
C 2829 3226 2451 3398 1978 3398 
z
M 1914 2976 
C 2266 2976 2534 2848 2720 2579 
C 2874 2349 2957 2035 2957 1645 
C 2957 1248 2874 934 2707 704 
C 2522 461 2253 333 1894 333 
C 1587 333 1350 454 1171 685 
C 979 922 890 1229 890 1613 
L 890 1677 
C 890 2048 973 2355 1139 2586 
C 1318 2848 1581 2976 1914 2976 
z
" transform="scale(0.015625)"/>
      <path id="PingFangSC-Regular-16" d="M 1965 4659 
C 1530 4659 1178 4538 909 4288 
C 627 4038 461 3693 422 3251 
L 941 3251 
C 973 3558 1075 3795 1254 3962 
C 1427 4128 1664 4205 1971 4205 
C 2266 4205 2502 4134 2669 3981 
C 2822 3840 2906 3642 2906 3386 
C 2906 3130 2822 2931 2662 2790 
C 2502 2656 2272 2586 1965 2586 
L 1613 2586 
L 1613 2176 
L 1984 2176 
C 2304 2176 2547 2106 2726 1952 
C 2906 1798 2995 1587 2995 1312 
C 2995 1043 2899 819 2720 640 
C 2522 454 2259 358 1933 358 
C 1645 358 1408 442 1216 595 
C 992 781 870 1056 858 1414 
L 326 1414 
C 365 902 544 512 870 243 
C 1146 26 1498 -90 1933 -90 
C 2406 -90 2790 45 3085 314 
C 3373 576 3520 915 3520 1331 
C 3520 1600 3443 1824 3290 2003 
C 3149 2182 2944 2310 2675 2394 
C 3174 2560 3424 2906 3424 3418 
C 3424 3802 3290 4102 3027 4326 
C 2758 4550 2400 4659 1965 4659 
z
" transform="scale(0.015625)"/>
      <path id="PingFangSC-Regular-15" d="M 1984 4659 
C 1523 4659 1146 4506 864 4198 
C 582 3898 435 3488 435 2976 
L 960 2976 
C 966 3379 1062 3686 1242 3891 
C 1408 4109 1651 4211 1965 4211 
C 2259 4211 2496 4134 2662 3981 
C 2829 3827 2912 3616 2912 3334 
C 2912 3040 2790 2765 2560 2515 
C 2438 2387 2202 2202 1843 1946 
C 1357 1613 1030 1338 851 1133 
C 544 794 397 416 397 0 
L 3443 0 
L 3443 467 
L 1043 467 
C 1126 774 1459 1126 2042 1517 
C 2515 1837 2829 2086 2989 2253 
C 3283 2573 3437 2931 3437 3328 
C 3437 3725 3296 4051 3027 4294 
C 2752 4538 2406 4659 1984 4659 
z
" transform="scale(0.015625)"/>
      <path id="PingFangSC-Regular-4fb" d="M 2963 3334 
L 2963 -634 
L 3437 -634 
L 3437 3334 
L 2963 3334 
z
M 2995 5222 
C 2349 4262 1427 3475 230 2867 
L 506 2451 
C 1594 3002 2490 3782 3200 4794 
C 3789 3872 4691 3104 5894 2477 
L 6170 2893 
C 4864 3565 3942 4339 3405 5222 
L 2995 5222 
z
" transform="scale(0.015625)"/>
     </defs>
     <use xlink:href="#PingFangSC-Regular-3a"/>
     <use xlink:href="#PingFangSC-Regular-44" transform="translate(93 0)"/>
     <use xlink:href="#PingFangSC-Regular-55" transform="translate(148.90625 0)"/>
     <use xlink:href="#PingFangSC-Regular-53" transform="translate(185.40625 0)"/>
     <use xlink:href="#PingFangSC-Regular-493" transform="translate(244 0)"/>
     <use xlink:href="#PingFangSC-Regular-16" transform="translate(344 0)"/>
     <use xlink:href="#PingFangSC-Regular-15" transform="translate(404 0)"/>
     <use xlink:href="#PingFangSC-Regular-3" transform="translate(464 0)"/>
     <use xlink:href="#PingFangSC-Regular-4fb" transform="translate(497.296875 0)"/>
     <use xlink:href="#PingFangSC-Regular-155a" transform="translate(597.296875 0)"/>
     <use xlink:href="#PingFangSC-Regular-1455" transform="translate(697.296875 0)"/>
    </g>
   </g>
   <g id="text_6">
    <g id="patch_10">
     <path d="M 199.553437 302.481519 
L 298.686562 302.481519 
Q 302.286562 302.481519 302.286562 298.881519 
L 302.286562 282.081519 
Q 302.286562 278.481519 298.686562 278.481519 
L 199.553437 278.481519 
Q 195.953437 278.481519 195.953437 282.081519 
L 195.953437 298.881519 
Q 195.953437 302.481519 199.553437 302.481519 
z
" style="fill: #ffffff; stroke: #3b82f6; stroke-width: 1.6; stroke-linejoin: miter"/>
    </g>
    <!-- Lane：每线程状态 -->
    <g style="fill: #1e293b" transform="translate(199.553437 294.837144) scale(0.12 -0.12)">
     <defs>
      <path id="PingFangSC-Regular-2f" d="M 461 4570 
L 461 0 
L 3622 0 
L 3622 454 
L 979 454 
L 979 4570 
L 461 4570 
z
" transform="scale(0.015625)"/>
      <path id="PingFangSC-Regular-faf" d="M 1664 4237 
L 5856 4237 
L 5856 4678 
L 1914 4678 
C 1990 4832 2067 4998 2144 5165 
L 1677 5274 
C 1325 4467 877 3821 326 3322 
L 621 2963 
C 1018 3322 1363 3750 1664 4237 
z
M 2694 1670 
L 2483 1370 
C 2918 1216 3347 1005 3770 736 
L 3987 1069 
C 3597 1306 3168 1504 2694 1670 
z
M 1062 275 
L 4800 275 
C 4787 186 4781 122 4768 96 
C 4710 -45 4621 -141 4506 -186 
C 4390 -218 4256 -237 4102 -237 
C 3859 -237 3584 -224 3277 -211 
L 3418 -640 
C 3699 -640 3955 -634 4173 -634 
C 4480 -634 4717 -589 4870 -499 
C 5037 -397 5146 -250 5203 -51 
C 5216 0 5235 109 5248 275 
L 5984 275 
L 5984 704 
L 5280 704 
C 5293 986 5312 1350 5331 1798 
L 6157 1798 
L 6157 2234 
L 5350 2234 
L 5395 3706 
L 1421 3706 
C 1408 3213 1382 2720 1338 2234 
L 256 2234 
L 256 1798 
L 1293 1798 
C 1235 1286 1158 774 1062 275 
z
M 4838 704 
L 1594 704 
C 1658 1037 1709 1402 1754 1798 
L 4890 1798 
C 4870 1350 4851 986 4838 704 
z
M 1798 2234 
C 1824 2560 1843 2906 1856 3277 
L 4934 3277 
C 4922 2899 4915 2554 4902 2234 
L 3814 2234 
L 4026 2554 
C 3642 2790 3213 2989 2746 3155 
L 2534 2848 
C 2957 2694 3379 2490 3789 2234 
L 1798 2234 
z
" transform="scale(0.015625)"/>
      <path id="PingFangSC-Regular-11eb" d="M 1722 2150 
C 1286 1690 800 1280 269 928 
L 410 448 
C 896 806 1338 1197 1722 1606 
L 1722 -621 
L 2176 -621 
L 2176 5190 
L 1722 5190 
L 1722 2150 
z
M 787 4557 
L 352 4416 
C 595 3930 819 3366 1018 2726 
L 1421 2912 
C 1242 3494 1030 4045 787 4557 
z
M 5107 5101 
L 4749 4877 
C 5082 4499 5350 4154 5542 3834 
L 5901 4090 
C 5715 4378 5453 4717 5107 5101 
z
M 4397 5210 
L 3942 5210 
C 3942 4819 3930 4250 3910 3507 
L 2598 3507 
L 2598 3066 
L 3885 3066 
C 3757 1798 3264 678 2406 -282 
L 2714 -627 
C 3443 154 3949 1126 4218 2285 
C 4499 1120 5043 154 5850 -608 
L 6163 -262 
C 5280 518 4704 1632 4429 3066 
L 5939 3066 
L 5939 3507 
L 4378 3507 
C 4390 4173 4397 4736 4397 5210 
z
" transform="scale(0.015625)"/>
      <path id="PingFangSC-Regular-bbe" d="M 2970 5286 
C 2944 5030 2893 4787 2822 4557 
L 563 4557 
L 563 4115 
L 2662 4115 
C 2547 3866 2406 3642 2227 3450 
C 1824 3027 1165 2694 256 2464 
L 435 2042 
C 1203 2246 1805 2502 2227 2816 
C 2534 2573 2842 2298 3149 1990 
L 3469 2310 
C 3123 2624 2816 2880 2534 3078 
C 2554 3104 2573 3123 2598 3149 
C 2835 3418 3027 3744 3168 4115 
L 3264 4115 
C 3584 3245 4448 2560 5869 2061 
L 6112 2458 
C 4838 2854 4045 3405 3731 4115 
L 5779 4115 
L 5779 4557 
L 3309 4557 
C 3360 4774 3405 4998 3430 5242 
L 2970 5286 
z
M 915 1504 
C 794 928 595 403 326 -70 
L 723 -320 
C 998 166 1216 742 1370 1408 
L 915 1504 
z
M 3341 1734 
L 2938 1606 
C 3142 1280 3328 902 3507 474 
L 3930 659 
C 3763 1043 3565 1402 3341 1734 
z
M 5254 1600 
L 4813 1459 
C 5114 1005 5389 480 5638 -122 
L 6061 64 
C 5830 614 5562 1126 5254 1600 
z
M 4083 -506 
C 4326 -506 4499 -448 4614 -339 
C 4742 -211 4832 134 4877 710 
L 4442 851 
C 4416 410 4365 147 4288 58 
C 4230 -19 4134 -58 4000 -58 
L 2605 -58 
C 2413 -58 2323 38 2323 230 
L 2323 1523 
L 1850 1523 
L 1850 134 
C 1850 -288 2048 -506 2458 -506 
L 4083 -506 
z
" transform="scale(0.015625)"/>
     </defs>
     <use xlink:href="#PingFangSC-Regular-2f"/>
     <use xlink:href="#PingFangSC-Regular-44" transform="translate(58.796875 0)"/>
     <use xlink:href="#PingFangSC-Regular-51" transform="translate(114.703125 0)"/>
     <use xlink:href="#PingFangSC-Regular-48" transform="translate(170.609375 0)"/>
     <use xlink:href="#PingFangSC-Regular-493" transform="translate(226.109375 0)"/>
     <use xlink:href="#PingFangSC-Regular-faf" transform="translate(326.109375 0)"/>
     <use xlink:href="#PingFangSC-Regular-155a" transform="translate(426.109375 0)"/>
     <use xlink:href="#PingFangSC-Regular-1455" transform="translate(526.109375 0)"/>
     <use xlink:href="#PingFangSC-Regular-11eb" transform="translate(626.109375 0)"/>
     <use xlink:href="#PingFangSC-Regular-bbe" transform="translate(726.109375 0)"/>
    </g>
   </g>
  </g>
 </g>
</svg>
