<?xml version="1.0" encoding="utf-8" standalone="no"?>
<!DOCTYPE svg PUBLIC "-//W3C//DTD SVG 1.1//EN"
  "http://www.w3.org/Graphics/SVG/1.1/DTD/svg11.dtd">
<svg stroke-linejoin="round" stroke-linecap="butt" xmlns:xlink="http://www.w3.org/1999/xlink" width="498.24pt" height="355.68pt" viewBox="0 0 498.24 355.68" xmlns="http://www.w3.org/2000/svg" version="1.1">
 <metadata>
  <rdf:RDF xmlns:dc="http://purl.org/dc/elements/1.1/" xmlns:cc="http://creativecommons.org/ns#" xmlns:rdf="http://www.w3.org/1999/02/22-rdf-syntax-ns#">
   <cc:Work>
    <dc:type rdf:resource="http://purl.org/dc/dcmitype/StillImage"/>
    <dc:date>1970-01-01T00:00:00</dc:date>
    <dc:format>image/svg+xml</dc:format>
    <dc:creator>
     <cc:Agent>
      <dc:title>Matplotlib v3.11.2, https://matplotlib.org/</dc:title>
     </cc:Agent>
    </dc:creator>
   </cc:Work>
  </rdf:RDF>
 </metadata>
 <defs>
  
 </defs>
 <g id="figure_1">
  <g id="patch_1">
   <path d="M 0 355.68 
L 498.24 355.68 
L 498.24 0 
L 0 0 
z
" style="fill: #ffffff"/>
  </g>
  <g id="axes_1">
   <g id="patch_2">
    <path d="M 249.12 166.334276 
Q 249.12 166.921895 249.12 165.720659 
" style="fill: none; stroke: #1e293b; stroke-width: 1.6; stroke-linecap: round"/>
    <path d="M 251.92 160.120659 
L 249.12 165.720659 
L 246.32 160.120659 
" style="fill: none; stroke: #1e293b; stroke-width: 1.6; stroke-linecap: round"/>
   </g>
   <g id="patch_3">
    <path d="M 249.12 230.514614 
Q 249.12 231.102233 249.12 229.900997 
" style="fill: none; stroke: #1e293b; stroke-width: 1.6; stroke-linecap: round"/>
    <path d="M 251.92 224.300997 
L 249.12 229.900997 
L 246.32 224.300997 
" style="fill: none; stroke: #1e293b; stroke-width: 1.6; stroke-linecap: round"/>
   </g>
   <g id="text_1">
    <!-- 函数逼近：状态 -&gt; 特征向量 -&gt; 线性组 -->
    <g style="fill: #1e293b" transform="translate(107.105 38.56) scale(0.16 -0.16)">
     <defs>
      <path id="PingFangSC-Regular-68d" d="M 1350 781 
C 1965 1171 2541 1626 3085 2144 
L 3085 1152 
C 3085 947 2995 845 2822 845 
C 2630 845 2451 851 2291 858 
L 2406 429 
L 2989 429 
C 3334 429 3514 621 3514 992 
L 3514 2067 
C 3904 1766 4378 1350 4934 813 
L 5203 1216 
C 4627 1709 4064 2144 3514 2528 
L 3514 3507 
C 4141 3853 4710 4198 5222 4550 
L 5222 4986 
L 1261 4986 
L 1261 4550 
L 4531 4550 
C 4211 4346 3731 4083 3085 3763 
L 3085 2669 
C 2483 2093 1856 1613 1190 1229 
L 1350 781 
z
M 5331 3821 
L 5331 128 
L 1069 128 
L 1069 3827 
L 627 3827 
L 627 -294 
L 5331 -294 
L 5331 -653 
L 5773 -653 
L 5773 3821 
L 5331 3821 
z
M 1760 3622 
L 1421 3411 
C 1792 3059 2093 2739 2310 2445 
L 2662 2688 
C 2451 2957 2150 3264 1760 3622 
z
M 4672 3667 
C 4429 3277 4134 2938 3802 2656 
L 4134 2419 
C 4480 2720 4787 3078 5043 3488 
L 4672 3667 
z
" transform="scale(0.015625)"/>
      <path id="PingFangSC-Regular-dc4" d="M 4211 3808 
L 5158 3808 
C 5133 2944 4998 2189 4749 1542 
C 4493 2080 4288 2726 4128 3475 
L 4211 3808 
z
M 4538 1082 
C 4243 538 3853 96 3354 -250 
L 3590 -634 
C 4070 -288 4467 141 4774 653 
C 5094 115 5478 -320 5926 -640 
L 6176 -262 
C 5715 51 5325 493 4992 1069 
C 5350 1824 5549 2739 5581 3808 
L 5997 3808 
L 5997 4250 
L 4307 4250 
C 4358 4531 4410 4838 4448 5165 
L 4000 5242 
C 3872 4026 3616 3059 3238 2342 
L 3526 1990 
C 3661 2221 3789 2483 3904 2778 
C 4077 2138 4288 1574 4538 1082 
z
M 1504 2253 
C 1459 2125 1408 1990 1350 1850 
L 416 1850 
L 416 1446 
L 1171 1446 
C 1043 1190 896 928 730 646 
C 1043 531 1338 410 1619 288 
C 1248 77 794 -96 269 -237 
L 486 -621 
C 1126 -442 1658 -205 2080 90 
C 2458 -77 2784 -250 3066 -416 
L 3315 -58 
C 3034 96 2739 237 2432 378 
C 2765 685 3002 1050 3142 1472 
L 3142 1850 
L 1805 1850 
C 1843 1965 1888 2080 1933 2202 
L 1504 2253 
z
M 2010 557 
C 1779 653 1536 742 1280 832 
C 1408 1024 1523 1229 1626 1446 
L 2726 1446 
C 2573 1114 2330 813 2010 557 
z
M 922 5107 
L 557 4986 
C 710 4742 851 4467 986 4154 
L 1318 4307 
C 1203 4589 1075 4858 922 5107 
z
M 2867 5126 
C 2752 4858 2586 4589 2381 4314 
L 2707 4147 
C 2912 4416 3072 4691 3200 4973 
L 2867 5126 
z
M 429 4000 
L 429 3597 
L 1338 3597 
C 1146 3245 800 2925 307 2637 
L 531 2266 
C 1082 2637 1466 3072 1677 3578 
L 1677 2362 
L 2106 2362 
L 2106 3194 
C 2336 3040 2611 2835 2931 2579 
L 3168 2938 
C 2810 3155 2451 3354 2106 3526 
L 2106 3597 
L 3270 3597 
L 3270 4000 
L 2106 4000 
L 2106 5222 
L 1677 5222 
L 1677 4000 
L 429 4000 
z
" transform="scale(0.015625)"/>
      <path id="PingFangSC-Regular-1b67" d="M 806 5152 
L 493 4851 
C 960 4480 1325 4134 1594 3808 
L 1920 4128 
C 1619 4467 1248 4806 806 5152 
z
M 4525 -538 
L 6010 -538 
L 6118 -77 
C 5952 -90 5709 -96 5395 -102 
C 5075 -109 4768 -115 4461 -115 
C 3962 -115 3552 -109 3219 -102 
C 2842 -90 2554 -38 2362 51 
C 2182 141 2016 275 1862 461 
C 1811 518 1766 570 1715 608 
L 1715 3008 
L 346 3008 
L 346 2586 
L 1286 2586 
L 1286 646 
C 1018 538 710 211 352 -339 
L 698 -653 
C 1069 -64 1331 230 1485 230 
C 1562 230 1645 179 1734 64 
C 1926 -166 2150 -326 2400 -403 
C 2656 -480 2989 -518 3398 -525 
C 3802 -531 4179 -538 4525 -538 
z
M 2189 4979 
L 2189 4595 
L 6016 4595 
L 6016 4979 
L 2189 4979 
z
M 2701 4186 
L 2701 2931 
L 5504 2931 
L 5504 4186 
L 2701 4186 
z
M 5082 3270 
L 3123 3270 
L 3123 3846 
L 5082 3846 
L 5082 3270 
z
M 2426 2554 
L 2426 416 
L 5779 416 
L 5779 2554 
L 2426 2554 
z
M 5350 781 
L 4307 781 
L 4307 1306 
L 5350 1306 
L 5350 781 
z
M 4307 1651 
L 4307 2182 
L 5350 2182 
L 5350 1651 
L 4307 1651 
z
M 3898 781 
L 2854 781 
L 2854 1306 
L 3898 1306 
L 3898 781 
z
M 2854 1651 
L 2854 2182 
L 3898 2182 
L 3898 1651 
L 2854 1651 
z
" transform="scale(0.015625)"/>
      <path id="PingFangSC-Regular-1b2a" d="M 4378 2995 
L 4378 301 
L 4826 301 
L 4826 2995 
L 5939 2995 
L 5939 3437 
L 3136 3437 
L 3136 4435 
C 4038 4467 4858 4582 5587 4774 
L 5370 5178 
C 4576 4960 3693 4845 2707 4826 
L 2707 3168 
C 2675 2170 2464 1389 2067 826 
L 2387 493 
C 2822 1120 3072 1958 3123 2995 
L 4378 2995 
z
M 819 5139 
L 506 4838 
C 954 4467 1306 4115 1562 3795 
L 1894 4122 
C 1600 4461 1242 4800 819 5139 
z
M 4538 -531 
L 6016 -531 
L 6131 -70 
C 5965 -83 5722 -90 5408 -96 
C 5088 -96 4781 -102 4474 -102 
C 3981 -102 3565 -96 3232 -90 
C 2861 -77 2573 -32 2381 58 
C 2202 147 2042 282 1888 461 
C 1837 518 1786 570 1734 608 
L 1734 3008 
L 390 3008 
L 390 2586 
L 1306 2586 
L 1306 640 
C 1043 525 742 198 403 -339 
L 749 -653 
C 1101 -64 1350 230 1504 230 
C 1581 230 1664 179 1747 70 
C 1946 -166 2170 -326 2419 -403 
C 2675 -467 3002 -506 3411 -518 
C 3814 -525 4192 -531 4538 -531 
z
" transform="scale(0.015625)"/>
      <path id="PingFangSC-Regular-493" d="M 1600 3898 
C 1485 3898 1395 3859 1318 3776 
C 1242 3706 1210 3616 1210 3501 
C 1210 3392 1242 3302 1318 3226 
C 1395 3149 1485 3110 1600 3110 
C 1709 3110 1805 3149 1882 3226 
C 1958 3302 1997 3392 1997 3501 
C 1997 3616 1958 3706 1882 3776 
C 1805 3859 1709 3898 1600 3898 
z
M 1600 1555 
C 1485 1555 1395 1517 1318 1434 
C 1242 1363 1210 1274 1210 1158 
C 1210 1050 1242 960 1318 883 
C 1395 806 1485 768 1600 768 
C 1709 768 1805 806 1882 883 
C 1958 960 1997 1050 1997 1158 
C 1997 1274 1958 1363 1882 1434 
C 1805 1517 1709 1555 1600 1555 
z
" transform="scale(0.015625)"/>
      <path id="PingFangSC-Regular-11eb" d="M 1722 2150 
C 1286 1690 800 1280 269 928 
L 410 448 
C 896 806 1338 1197 1722 1606 
L 1722 -621 
L 2176 -621 
L 2176 5190 
L 1722 5190 
L 1722 2150 
z
M 787 4557 
L 352 4416 
C 595 3930 819 3366 1018 2726 
L 1421 2912 
C 1242 3494 1030 4045 787 4557 
z
M 5107 5101 
L 4749 4877 
C 5082 4499 5350 4154 5542 3834 
L 5901 4090 
C 5715 4378 5453 4717 5107 5101 
z
M 4397 5210 
L 3942 5210 
C 3942 4819 3930 4250 3910 3507 
L 2598 3507 
L 2598 3066 
L 3885 3066 
C 3757 1798 3264 678 2406 -282 
L 2714 -627 
C 3443 154 3949 1126 4218 2285 
C 4499 1120 5043 154 5850 -608 
L 6163 -262 
C 5280 518 4704 1632 4429 3066 
L 5939 3066 
L 5939 3507 
L 4378 3507 
C 4390 4173 4397 4736 4397 5210 
z
" transform="scale(0.015625)"/>
      <path id="PingFangSC-Regular-bbe" d="M 2970 5286 
C 2944 5030 2893 4787 2822 4557 
L 563 4557 
L 563 4115 
L 2662 4115 
C 2547 3866 2406 3642 2227 3450 
C 1824 3027 1165 2694 256 2464 
L 435 2042 
C 1203 2246 1805 2502 2227 2816 
C 2534 2573 2842 2298 3149 1990 
L 3469 2310 
C 3123 2624 2816 2880 2534 3078 
C 2554 3104 2573 3123 2598 3149 
C 2835 3418 3027 3744 3168 4115 
L 3264 4115 
C 3584 3245 4448 2560 5869 2061 
L 6112 2458 
C 4838 2854 4045 3405 3731 4115 
L 5779 4115 
L 5779 4557 
L 3309 4557 
C 3360 4774 3405 4998 3430 5242 
L 2970 5286 
z
M 915 1504 
C 794 928 595 403 326 -70 
L 723 -320 
C 998 166 1216 742 1370 1408 
L 915 1504 
z
M 3341 1734 
L 2938 1606 
C 3142 1280 3328 902 3507 474 
L 3930 659 
C 3763 1043 3565 1402 3341 1734 
z
M 5254 1600 
L 4813 1459 
C 5114 1005 5389 480 5638 -122 
L 6061 64 
C 5830 614 5562 1126 5254 1600 
z
M 4083 -506 
C 4326 -506 4499 -448 4614 -339 
C 4742 -211 4832 134 4877 710 
L 4442 851 
C 4416 410 4365 147 4288 58 
C 4230 -19 4134 -58 4000 -58 
L 2605 -58 
C 2413 -58 2323 38 2323 230 
L 2323 1523 
L 1850 1523 
L 1850 134 
C 1850 -288 2048 -506 2458 -506 
L 4083 -506 
z
" transform="scale(0.015625)"/>
      <path id="PingFangSC-Regular-3" transform="scale(0.015625)"/>
      <path id="PingFangSC-Regular-10" d="M 320 1875 
L 320 1440 
L 3552 1440 
L 3552 1875 
L 320 1875 
z
" transform="scale(0.015625)"/>
      <path id="PingFangSC-Regular-21" d="M 320 3296 
L 320 2822 
L 2950 1651 
L 320 486 
L 320 6 
L 3552 1453 
L 3552 1856 
L 320 3296 
z
" transform="scale(0.015625)"/>
      <path id="PingFangSC-Regular-11d9" d="M 4173 5229 
L 4173 4544 
L 3046 4544 
L 3046 4128 
L 4173 4128 
L 4173 3379 
L 2694 3379 
L 2694 2944 
L 6099 2944 
L 6099 3379 
L 4634 3379 
L 4634 4128 
L 5818 4128 
L 5818 4544 
L 4634 4544 
L 4634 5229 
L 4173 5229 
z
M 2848 2189 
L 2848 1754 
L 4896 1754 
L 4896 64 
C 4896 -102 4819 -192 4678 -192 
C 4435 -192 4186 -179 3930 -160 
L 4026 -595 
L 4838 -595 
C 5171 -595 5344 -410 5344 -51 
L 5344 1754 
L 6048 1754 
L 6048 2189 
L 5344 2189 
L 5344 2605 
L 4896 2605 
L 4896 2189 
L 2848 2189 
z
M 3322 1459 
L 2963 1235 
C 3283 870 3539 538 3725 230 
L 4090 486 
C 3910 768 3654 1088 3322 1459 
z
M 902 3443 
L 1504 3443 
L 1504 1747 
C 1107 1619 704 1510 294 1427 
L 403 979 
C 774 1082 1146 1190 1504 1312 
L 1504 -640 
L 1946 -640 
L 1946 1478 
C 2144 1555 2342 1638 2547 1728 
L 2547 2163 
C 2349 2074 2150 1990 1946 1907 
L 1946 3443 
L 2528 3443 
L 2528 3891 
L 1946 3891 
L 1946 5222 
L 1504 5222 
L 1504 3891 
L 966 3891 
C 998 4147 1018 4410 1030 4685 
L 608 4717 
C 582 3981 467 3283 269 2618 
L 672 2502 
C 762 2803 838 3117 902 3443 
z
" transform="scale(0.015625)"/>
      <path id="PingFangSC-Regular-b84" d="M 4173 4410 
L 4173 64 
L 3194 64 
L 3194 3418 
L 2746 3418 
L 2746 64 
L 2125 64 
L 2125 -384 
L 6189 -384 
L 6189 64 
L 4634 64 
L 4634 2253 
L 5888 2253 
L 5888 2682 
L 4634 2682 
L 4634 4410 
L 6029 4410 
L 6029 4851 
L 2310 4851 
L 2310 4410 
L 4173 4410 
z
M 1568 5254 
C 1293 4653 858 4122 262 3661 
L 397 3200 
C 1126 3738 1651 4358 1971 5062 
L 1568 5254 
z
M 1798 3603 
C 1478 2944 979 2362 294 1850 
L 429 1402 
C 685 1594 928 1792 1146 1997 
L 1146 -640 
L 1594 -640 
L 1594 2477 
C 1837 2778 2035 3091 2195 3424 
L 1798 3603 
z
" transform="scale(0.015625)"/>
      <path id="PingFangSC-Regular-77b" d="M 2029 2950 
L 2029 710 
L 4390 710 
L 4390 2950 
L 2029 2950 
z
M 3942 1146 
L 2477 1146 
L 2477 2515 
L 3942 2515 
L 3942 1146 
z
M 2784 5248 
C 2714 4915 2605 4602 2451 4294 
L 691 4294 
L 691 -627 
L 1152 -627 
L 1152 3853 
L 5299 3853 
L 5299 128 
C 5299 -58 5203 -154 5024 -154 
L 4090 -134 
L 4218 -602 
L 5178 -602 
C 5562 -602 5760 -390 5760 26 
L 5760 4294 
L 2938 4294 
C 3078 4570 3187 4864 3264 5184 
L 2784 5248 
z
" transform="scale(0.015625)"/>
      <path id="PingFangSC-Regular-1c01" d="M 979 2547 
L 979 915 
L 2963 915 
L 2963 557 
L 819 557 
L 819 250 
L 2963 250 
L 2963 -128 
L 339 -128 
L 339 -486 
L 6061 -486 
L 6061 -128 
L 3424 -128 
L 3424 250 
L 5594 250 
L 5594 557 
L 3424 557 
L 3424 915 
L 5434 915 
L 5434 2547 
L 979 2547 
z
M 4992 1203 
L 3424 1203 
L 3424 1594 
L 4992 1594 
L 4992 1203 
z
M 2963 1203 
L 1421 1203 
L 1421 1594 
L 2963 1594 
L 2963 1203 
z
M 1421 1862 
L 1421 2259 
L 2963 2259 
L 2963 1862 
L 1421 1862 
z
M 3424 2259 
L 4992 2259 
L 4992 1862 
L 3424 1862 
L 3424 2259 
z
M 1120 5126 
L 1120 3546 
L 5299 3546 
L 5299 5126 
L 1120 5126 
z
M 4851 3821 
L 1568 3821 
L 1568 4198 
L 4851 4198 
L 4851 3821 
z
M 1568 4474 
L 1568 4845 
L 4851 4845 
L 4851 4474 
L 1568 4474 
z
M 333 3213 
L 333 2867 
L 6067 2867 
L 6067 3213 
L 333 3213 
z
" transform="scale(0.015625)"/>
      <path id="PingFangSC-Regular-155a" d="M 2547 634 
C 1920 390 1184 192 339 51 
L 397 -397 
C 1203 -250 1920 -51 2547 192 
L 2547 634 
z
M 1408 5261 
C 1152 4499 851 3821 506 3232 
C 448 3149 384 3091 314 3066 
L 422 2643 
C 781 2688 1139 2733 1491 2784 
C 1158 2189 870 1766 634 1523 
C 576 1472 506 1427 422 1389 
L 550 966 
C 1165 1050 1805 1203 2477 1421 
L 2477 1837 
C 2016 1683 1555 1562 1094 1472 
C 1466 1926 1939 2694 2502 3776 
L 2093 3930 
C 1965 3674 1837 3430 1722 3200 
C 1434 3155 1146 3117 858 3091 
C 1190 3590 1523 4256 1850 5088 
L 1408 5261 
z
M 5651 4096 
L 4058 3872 
L 4058 5229 
L 3597 5229 
L 3597 3808 
L 2618 3667 
L 2688 3245 
L 3610 3379 
C 3616 3072 3635 2778 3667 2502 
L 2509 2317 
L 2573 1882 
L 3725 2067 
C 3750 1901 3776 1741 3814 1574 
C 3891 1229 3987 922 4109 640 
C 3635 288 3104 19 2515 -173 
L 2784 -544 
C 3328 -378 3840 -115 4314 237 
C 4352 154 4403 77 4461 0 
C 4736 -384 5024 -576 5331 -589 
C 5664 -589 5920 -160 6099 685 
L 5709 941 
C 5594 256 5446 -90 5280 -90 
C 5114 -90 4928 70 4717 384 
C 4691 422 4672 467 4646 506 
C 5043 851 5408 1274 5747 1766 
L 5382 2016 
C 5114 1606 4806 1248 4461 928 
C 4371 1184 4294 1472 4230 1805 
C 4211 1907 4192 2022 4179 2138 
L 5894 2406 
L 5824 2842 
L 4128 2573 
C 4102 2848 4083 3136 4070 3443 
L 5715 3674 
L 5651 4096 
z
M 4774 5248 
L 4416 5024 
C 4736 4730 4992 4454 5171 4205 
L 5530 4454 
C 5350 4678 5101 4941 4774 5248 
z
" transform="scale(0.015625)"/>
      <path id="PingFangSC-Regular-bd4" d="M 474 3994 
C 454 3379 378 2797 243 2246 
L 621 2138 
C 749 2714 826 3328 838 3968 
L 474 3994 
z
M 2080 4128 
L 1741 4019 
C 1888 3661 2010 3283 2106 2893 
L 2426 2976 
C 2368 2848 2304 2714 2234 2573 
L 2573 2266 
C 2797 2662 2970 3098 3085 3565 
L 4083 3565 
L 4083 2016 
L 2618 2016 
L 2618 1562 
L 4083 1562 
L 4083 0 
L 2253 0 
L 2253 -448 
L 6118 -448 
L 6118 0 
L 4557 0 
L 4557 1562 
L 5856 1562 
L 5856 2016 
L 4557 2016 
L 4557 3565 
L 5952 3565 
L 5952 4006 
L 4557 4006 
L 4557 5203 
L 4083 5203 
L 4083 4006 
L 3168 4006 
C 3206 4250 3232 4506 3245 4774 
L 2829 4832 
C 2797 4198 2669 3603 2451 3046 
C 2342 3456 2221 3814 2080 4128 
z
M 1165 5210 
L 1165 -614 
L 1632 -614 
L 1632 5210 
L 1165 5210 
z
" transform="scale(0.015625)"/>
      <path id="PingFangSC-Regular-155f" d="M 2522 794 
C 1920 518 1210 301 390 134 
L 448 -320 
C 1229 -154 1920 77 2522 358 
L 2522 794 
z
M 1517 5222 
C 1235 4493 909 3853 531 3290 
C 467 3200 403 3142 333 3117 
L 448 2688 
C 832 2739 1203 2790 1574 2848 
C 1210 2253 902 1830 646 1581 
C 589 1530 518 1485 435 1446 
L 557 1018 
C 1197 1107 1862 1280 2560 1530 
L 2560 1952 
C 2086 1773 1613 1632 1139 1530 
C 1542 1997 2048 2778 2662 3878 
L 2246 4038 
C 2099 3763 1958 3507 1824 3270 
C 1517 3219 1216 3174 909 3149 
C 1261 3622 1606 4256 1952 5050 
L 1517 5222 
z
M 5568 4928 
L 2970 4928 
L 2970 32 
L 2413 32 
L 2413 -416 
L 6112 -416 
L 6112 32 
L 5568 32 
L 5568 4928 
z
M 3424 32 
L 3424 1248 
L 5114 1248 
L 5114 32 
L 3424 32 
z
M 3424 1683 
L 3424 2893 
L 5114 2893 
L 5114 1683 
L 3424 1683 
z
M 3424 3328 
L 3424 4486 
L 5114 4486 
L 5114 3328 
L 3424 3328 
z
" transform="scale(0.015625)"/>
     </defs>
     <use xlink:href="#PingFangSC-Regular-68d"/>
     <use xlink:href="#PingFangSC-Regular-dc4" transform="translate(100 0)"/>
     <use xlink:href="#PingFangSC-Regular-1b67" transform="translate(200 0)"/>
     <use xlink:href="#PingFangSC-Regular-1b2a" transform="translate(300 0)"/>
     <use xlink:href="#PingFangSC-Regular-493" transform="translate(400 0)"/>
     <use xlink:href="#PingFangSC-Regular-11eb" transform="translate(500 0)"/>
     <use xlink:href="#PingFangSC-Regular-bbe" transform="translate(600 0)"/>
     <use xlink:href="#PingFangSC-Regular-3" transform="translate(700 0)"/>
     <use xlink:href="#PingFangSC-Regular-10" transform="translate(733.296875 0)"/>
     <use xlink:href="#PingFangSC-Regular-21" transform="translate(793.796875 0)"/>
     <use xlink:href="#PingFangSC-Regular-3" transform="translate(854.296875 0)"/>
     <use xlink:href="#PingFangSC-Regular-11d9" transform="translate(887.59375 0)"/>
     <use xlink:href="#PingFangSC-Regular-b84" transform="translate(987.59375 0)"/>
     <use xlink:href="#PingFangSC-Regular-77b" transform="translate(1087.59375 0)"/>
     <use xlink:href="#PingFangSC-Regular-1c01" transform="translate(1187.59375 0)"/>
     <use xlink:href="#PingFangSC-Regular-3" transform="translate(1287.59375 0)"/>
     <use xlink:href="#PingFangSC-Regular-10" transform="translate(1320.890625 0)"/>
     <use xlink:href="#PingFangSC-Regular-21" transform="translate(1381.390625 0)"/>
     <use xlink:href="#PingFangSC-Regular-3" transform="translate(1441.890625 0)"/>
     <use xlink:href="#PingFangSC-Regular-155a" transform="translate(1475.1875 0)"/>
     <use xlink:href="#PingFangSC-Regular-bd4" transform="translate(1575.1875 0)"/>
     <use xlink:href="#PingFangSC-Regular-155f" transform="translate(1675.1875 0)"/>
    </g>
    <!-- 合 -&gt; 价值估计 -->
    <g style="fill: #1e293b" transform="translate(194.1125 60.96) scale(0.16 -0.16)">
     <defs>
      <path id="PingFangSC-Regular-773" d="M 3034 5235 
C 2278 4346 1338 3603 198 3002 
L 442 2560 
C 1581 3200 2502 3949 3200 4819 
C 3955 3898 4864 3149 5933 2573 
L 6182 3014 
C 5120 3552 4179 4294 3366 5235 
L 3034 5235 
z
M 5222 1946 
L 1178 1946 
L 1178 -634 
L 1626 -634 
L 1626 -250 
L 4774 -250 
L 4774 -634 
L 5222 -634 
L 5222 1946 
z
M 1626 192 
L 1626 1510 
L 4774 1510 
L 4774 192 
L 1626 192 
z
M 1536 3200 
L 1536 2758 
L 4864 2758 
L 4864 3200 
L 1536 3200 
z
" transform="scale(0.015625)"/>
      <path id="PingFangSC-Regular-570" d="M 1069 3008 
L 1069 -621 
L 1542 -621 
L 1542 3802 
C 1741 4192 1907 4602 2042 5030 
L 1606 5229 
C 1325 4256 864 3392 237 2637 
L 390 2150 
C 634 2419 864 2707 1069 3008 
z
M 4531 2989 
L 4531 -582 
L 4979 -582 
L 4979 2989 
L 4531 2989 
z
M 2886 2970 
L 2886 2003 
C 2874 922 2592 134 2042 -352 
L 2387 -653 
C 3002 -90 3315 794 3328 2003 
L 3328 2970 
L 2886 2970 
z
M 3699 5197 
C 3238 4243 2579 3469 1722 2874 
L 1978 2483 
C 2752 3021 3392 3776 3904 4755 
C 4346 3885 5018 3149 5914 2554 
L 6176 2944 
C 5203 3590 4512 4339 4115 5197 
L 3699 5197 
z
" transform="scale(0.015625)"/>
      <path id="PingFangSC-Regular-a9ca" d="M 3942 5254 
C 3930 5050 3910 4838 3891 4627 
L 2208 4627 
L 2208 4205 
L 3846 4205 
C 3821 4019 3789 3834 3763 3648 
L 2592 3648 
L 2592 -26 
L 1933 -26 
L 1933 -448 
L 6125 -448 
L 6125 -26 
L 5517 -26 
L 5517 3648 
L 4218 3648 
C 4243 3827 4275 4013 4301 4205 
L 5939 4205 
L 5939 4627 
L 4352 4627 
C 4365 4806 4384 4998 4397 5190 
L 3942 5254 
z
M 3034 -26 
L 3034 538 
L 5075 538 
L 5075 -26 
L 3034 -26 
z
M 3034 909 
L 3034 1446 
L 5075 1446 
L 5075 909 
L 3034 909 
z
M 3034 1818 
L 3034 2342 
L 5075 2342 
L 5075 1818 
L 3034 1818 
z
M 3034 2714 
L 3034 3232 
L 5075 3232 
L 5075 2714 
L 3034 2714 
z
M 1146 3078 
L 1146 -640 
L 1594 -640 
L 1594 3866 
C 1779 4243 1939 4640 2067 5056 
L 1651 5248 
C 1370 4262 909 3386 275 2624 
L 429 2138 
C 691 2432 928 2746 1146 3078 
z
" transform="scale(0.015625)"/>
      <path id="PingFangSC-Regular-58c" d="M 1664 5261 
C 1357 4256 870 3366 205 2592 
L 352 2106 
C 589 2362 806 2624 1005 2893 
L 1005 -653 
L 1466 -653 
L 1466 3603 
C 1722 4058 1933 4544 2099 5056 
L 1664 5261 
z
M 2074 3955 
L 2074 3514 
L 3821 3514 
L 3821 2176 
L 2451 2176 
L 2451 -634 
L 2912 -634 
L 2912 -352 
L 5248 -352 
L 5248 -634 
L 5702 -634 
L 5702 2176 
L 4294 2176 
L 4294 3514 
L 6118 3514 
L 6118 3955 
L 4294 3955 
L 4294 5222 
L 3821 5222 
L 3821 3955 
L 2074 3955 
z
M 2912 90 
L 2912 1734 
L 5248 1734 
L 5248 90 
L 2912 90 
z
" transform="scale(0.015625)"/>
      <path id="PingFangSC-Regular-1987" d="M 2291 3309 
L 2291 2848 
L 4026 2848 
L 4026 -653 
L 4499 -653 
L 4499 2848 
L 6144 2848 
L 6144 3309 
L 4499 3309 
L 4499 5235 
L 4026 5235 
L 4026 3309 
L 2291 3309 
z
M 1037 5165 
L 717 4851 
C 1178 4506 1549 4173 1818 3859 
L 2131 4179 
C 1837 4512 1472 4838 1037 5165 
z
M 288 3270 
L 288 2829 
L 1229 2829 
L 1229 275 
C 1229 173 1178 83 1082 6 
L 1261 -410 
C 1715 -109 2144 230 2541 614 
L 2426 1088 
C 2157 832 1901 614 1670 422 
L 1670 3270 
L 288 3270 
z
" transform="scale(0.015625)"/>
     </defs>
     <use xlink:href="#PingFangSC-Regular-773"/>
     <use xlink:href="#PingFangSC-Regular-3" transform="translate(100 0)"/>
     <use xlink:href="#PingFangSC-Regular-10" transform="translate(133.296875 0)"/>
     <use xlink:href="#PingFangSC-Regular-21" transform="translate(193.796875 0)"/>
     <use xlink:href="#PingFangSC-Regular-3" transform="translate(254.296875 0)"/>
     <use xlink:href="#PingFangSC-Regular-570" transform="translate(287.59375 0)"/>
     <use xlink:href="#PingFangSC-Regular-a9ca" transform="translate(387.59375 0)"/>
     <use xlink:href="#PingFangSC-Regular-58c" transform="translate(487.59375 0)"/>
     <use xlink:href="#PingFangSC-Regular-1987" transform="translate(587.59375 0)"/>
    </g>
   </g>
   <g id="text_2">
    <g id="patch_4">
     <path d="M 178.092187 145.831689 
L 320.147812 145.831689 
Q 323.747812 145.831689 323.747812 142.231689 
L 323.747812 125.431689 
Q 323.747812 121.831689 320.147812 121.831689 
L 178.092187 121.831689 
Q 174.492187 121.831689 174.492187 125.431689 
L 174.492187 142.231689 
Q 174.492187 145.831689 178.092187 145.831689 
z
" style="fill: #ffffff; stroke: #3b82f6; stroke-width: 1.6; stroke-linejoin: miter"/>
    </g>
    <!-- 状态 s（连续空间中的点） -->
    <g style="fill: #1e293b" transform="translate(178.092187 138.151689) scale(0.12 -0.12)">
     <defs>
      <path id="PingFangSC-Regular-56" d="M 1568 3398 
C 1197 3398 890 3315 659 3149 
C 410 2982 288 2765 288 2483 
C 288 2202 410 1990 666 1837 
C 819 1734 1094 1638 1485 1542 
C 1843 1453 2080 1382 2189 1331 
C 2394 1229 2502 1088 2502 902 
C 2502 531 2202 339 1613 339 
C 1331 339 1120 390 979 493 
C 838 608 742 794 704 1056 
L 205 1056 
C 282 294 755 -90 1626 -90 
C 2560 -90 3027 256 3027 934 
C 3027 1222 2893 1446 2630 1613 
C 2458 1722 2176 1824 1779 1920 
C 1446 2010 1216 2080 1094 2138 
C 902 2234 813 2355 813 2496 
C 813 2643 883 2758 1024 2842 
C 1152 2931 1331 2970 1562 2970 
C 1824 2970 2029 2918 2170 2816 
C 2298 2726 2381 2573 2426 2368 
L 2925 2368 
C 2835 3059 2387 3398 1568 3398 
z
" transform="scale(0.015625)"/>
      <path id="PingFangSC-Regular-481" d="M 5440 5293 
C 5158 4883 4941 4442 4781 3974 
C 4589 3424 4499 2867 4499 2298 
C 4499 1741 4589 1184 4781 634 
C 4941 173 5158 -269 5440 -685 
L 5888 -685 
C 5632 -256 5427 186 5280 640 
C 5088 1203 4998 1760 4998 2304 
C 4998 2854 5088 3405 5280 3968 
C 5427 4429 5632 4870 5888 5293 
L 5440 5293 
z
" transform="scale(0.015625)"/>
      <path id="PingFangSC-Regular-1b33" d="M 819 5126 
L 506 4826 
C 960 4461 1318 4122 1574 3808 
L 1907 4134 
C 1613 4467 1248 4794 819 5126 
z
M 4538 -525 
L 6003 -525 
L 6112 -64 
C 5946 -77 5702 -83 5395 -90 
C 5082 -96 4774 -102 4474 -102 
C 3981 -102 3565 -96 3232 -90 
C 2861 -77 2573 -26 2381 64 
C 2202 147 2042 282 1888 467 
C 1837 525 1786 576 1734 614 
L 1734 3008 
L 390 3008 
L 390 2586 
L 1306 2586 
L 1306 640 
C 1043 525 742 198 403 -339 
L 749 -653 
C 1101 -64 1350 230 1504 230 
C 1581 230 1664 179 1747 70 
C 1946 -160 2170 -320 2419 -397 
C 2675 -467 3002 -506 3411 -512 
C 3814 -518 4192 -525 4538 -525 
z
M 2176 4570 
L 2176 4141 
L 3021 4141 
C 2810 3686 2573 3302 2317 2995 
L 2419 2573 
L 3898 2573 
L 3898 1811 
L 2125 1811 
L 2125 1376 
L 3898 1376 
L 3898 186 
L 4339 186 
L 4339 1376 
L 6016 1376 
L 6016 1811 
L 4339 1811 
L 4339 2573 
L 5734 2573 
L 5734 2995 
L 4339 2995 
L 4339 3757 
L 3898 3757 
L 3898 2995 
L 2867 2995 
C 3098 3328 3315 3712 3507 4141 
L 5933 4141 
L 5933 4570 
L 3686 4570 
C 3763 4762 3834 4960 3904 5171 
L 3462 5274 
C 3386 5030 3296 4794 3206 4570 
L 2176 4570 
z
" transform="scale(0.015625)"/>
      <path id="PingFangSC-Regular-1585" d="M 2304 710 
C 1747 480 1101 301 358 166 
L 416 -282 
C 1120 -141 1747 45 2304 275 
L 2304 710 
z
M 1331 5229 
C 1101 4499 826 3846 512 3277 
C 454 3194 390 3136 320 3110 
L 435 2688 
C 768 2739 1101 2790 1427 2848 
C 1094 2278 813 1875 582 1632 
C 525 1574 454 1530 371 1504 
L 499 1082 
C 1043 1158 1613 1293 2214 1498 
L 2214 1914 
C 1830 1773 1440 1664 1056 1587 
C 1414 2022 1875 2758 2432 3782 
L 2010 3942 
C 1888 3706 1773 3482 1658 3270 
C 1389 3219 1126 3174 864 3142 
C 1171 3622 1472 4262 1766 5056 
L 1331 5229 
z
M 2758 4819 
L 2758 4403 
L 4045 4403 
L 4045 3821 
L 2560 3821 
L 2560 3398 
L 5485 3398 
C 5395 3053 5286 2733 5152 2451 
L 5594 2323 
C 5747 2720 5869 3123 5958 3533 
L 5958 3821 
L 4493 3821 
L 4493 4403 
L 5869 4403 
L 5869 4819 
L 4493 4819 
L 4493 5242 
L 4045 5242 
L 4045 4819 
L 2758 4819 
z
M 2419 1517 
L 2419 1094 
L 4090 1094 
C 4026 902 3936 723 3821 563 
C 3552 218 3078 -58 2394 -262 
L 2650 -666 
C 3354 -442 3859 -134 4173 256 
C 4211 314 4256 371 4294 435 
C 4845 154 5389 -211 5926 -659 
L 6182 -262 
C 5664 134 5088 480 4461 774 
C 4499 877 4531 979 4563 1094 
L 6138 1094 
L 6138 1517 
L 4646 1517 
C 4659 1658 4672 1798 4678 1952 
L 4678 3136 
L 4230 3136 
L 4230 1952 
C 4224 1805 4211 1658 4192 1517 
L 2419 1517 
z
M 2669 2560 
L 2451 2246 
C 2784 2086 3104 1869 3418 1600 
L 3635 1939 
C 3341 2182 3021 2394 2669 2560 
z
M 3162 3219 
L 2957 2912 
C 3258 2771 3552 2566 3846 2310 
L 4064 2637 
C 3789 2867 3488 3066 3162 3219 
z
" transform="scale(0.015625)"/>
      <path id="PingFangSC-Regular-146e" d="M 1011 1965 
L 1011 1530 
L 2963 1530 
L 2963 13 
L 474 13 
L 474 -429 
L 5933 -429 
L 5933 13 
L 3430 13 
L 3430 1530 
L 5395 1530 
L 5395 1965 
L 1011 1965 
z
M 3795 3763 
L 3552 3398 
C 4173 3117 4781 2733 5370 2246 
L 5632 2637 
C 5082 3078 4467 3456 3795 3763 
z
M 2458 3718 
C 1990 3290 1402 2944 685 2682 
L 883 2259 
C 1626 2560 2246 2938 2746 3386 
L 2458 3718 
z
M 3226 5267 
L 2726 5190 
C 2822 5011 2912 4813 2995 4595 
L 486 4595 
L 486 3315 
L 954 3315 
L 954 4166 
L 5453 4166 
L 5453 3309 
L 5920 3309 
L 5920 4595 
L 3469 4595 
C 3392 4845 3309 5069 3226 5267 
z
" transform="scale(0.015625)"/>
      <path id="PingFangSC-Regular-1cf5" d="M 1958 3494 
L 1958 512 
L 4390 512 
L 4390 3494 
L 1958 3494 
z
M 3962 922 
L 2394 922 
L 2394 1798 
L 3962 1798 
L 3962 922 
z
M 2394 2208 
L 2394 3085 
L 3962 3085 
L 3962 2208 
L 2394 2208 
z
M 5107 -589 
C 5536 -589 5754 -358 5754 90 
L 5754 4909 
L 2822 4909 
L 2822 4480 
L 5306 4480 
L 5306 218 
C 5306 -38 5203 -173 5011 -173 
L 4454 -160 
L 4570 -589 
L 5107 -589 
z
M 634 4166 
L 634 -646 
L 1082 -646 
L 1082 4166 
L 634 4166 
z
M 1562 5286 
L 1139 5101 
C 1427 4755 1690 4358 1933 3910 
L 2342 4128 
C 2118 4550 1856 4934 1562 5286 
z
" transform="scale(0.015625)"/>
      <path id="PingFangSC-Regular-4fe" d="M 2963 5254 
L 2963 4102 
L 672 4102 
L 672 1094 
L 1133 1094 
L 1133 1498 
L 2963 1498 
L 2963 -685 
L 3437 -685 
L 3437 1498 
L 5274 1498 
L 5274 1094 
L 5734 1094 
L 5734 4102 
L 3437 4102 
L 3437 5254 
L 2963 5254 
z
M 1133 1946 
L 1133 3654 
L 2963 3654 
L 2963 1946 
L 1133 1946 
z
M 3437 1946 
L 3437 3654 
L 5274 3654 
L 5274 1946 
L 3437 1946 
z
" transform="scale(0.015625)"/>
      <path id="PingFangSC-Regular-1331" d="M 2586 4122 
L 1555 4122 
C 1683 4442 1779 4794 1856 5171 
L 1395 5235 
C 1338 4851 1248 4480 1120 4122 
L 525 4122 
L 525 -429 
L 973 -429 
L 973 122 
L 2138 122 
L 2138 -243 
L 2586 -243 
L 2586 4122 
z
M 973 550 
L 973 1952 
L 2138 1952 
L 2138 550 
L 973 550 
z
M 973 2368 
L 973 3686 
L 2138 3686 
L 2138 2368 
L 973 2368 
z
M 3699 2637 
L 3328 2406 
C 3770 1882 4122 1408 4384 986 
L 4749 1242 
C 4506 1638 4160 2106 3699 2637 
z
M 5894 4115 
L 3853 4115 
C 3968 4448 4058 4806 4134 5184 
L 3680 5242 
C 3514 4333 3213 3565 2765 2938 
L 3040 2573 
C 3290 2899 3501 3264 3680 3667 
L 5440 3667 
C 5427 1824 5402 717 5363 358 
C 5312 32 5139 -134 4838 -134 
C 4640 -134 4410 -128 4141 -115 
L 4250 -538 
C 4557 -550 4774 -563 4902 -563 
C 5440 -563 5734 -314 5798 173 
C 5862 672 5894 1990 5894 4115 
z
" transform="scale(0.015625)"/>
      <path id="PingFangSC-Regular-1169" d="M 2867 5216 
L 2867 3347 
L 1126 3347 
L 1126 1293 
L 5363 1293 
L 5363 3347 
L 3322 3347 
L 3322 4160 
L 5805 4160 
L 5805 4595 
L 3322 4595 
L 3322 5216 
L 2867 5216 
z
M 4902 1722 
L 1587 1722 
L 1587 2912 
L 4902 2912 
L 4902 1722 
z
M 1114 1011 
C 883 486 608 32 288 -346 
L 666 -621 
C 986 -211 1261 269 1504 826 
L 1114 1011 
z
M 2509 826 
L 2080 736 
C 2202 333 2304 -128 2394 -653 
L 2854 -550 
C 2752 -58 2637 403 2509 826 
z
M 3846 890 
L 3411 800 
C 3603 384 3763 -96 3891 -640 
L 4346 -538 
C 4205 -26 4038 454 3846 890 
z
M 5158 1018 
L 4787 781 
C 5178 256 5485 -218 5709 -653 
L 6093 -384 
C 5875 13 5568 480 5158 1018 
z
" transform="scale(0.015625)"/>
      <path id="PingFangSC-Regular-482" d="M 512 5293 
C 768 4870 966 4429 1120 3968 
C 1306 3405 1402 2854 1402 2304 
C 1402 1760 1306 1203 1120 640 
C 966 186 768 -256 512 -685 
L 960 -685 
C 1235 -269 1453 173 1619 634 
C 1805 1184 1901 1741 1901 2298 
C 1901 2867 1805 3424 1619 3974 
C 1453 4442 1235 4883 960 5293 
L 512 5293 
z
" transform="scale(0.015625)"/>
     </defs>
     <use xlink:href="#PingFangSC-Regular-11eb"/>
     <use xlink:href="#PingFangSC-Regular-bbe" transform="translate(100 0)"/>
     <use xlink:href="#PingFangSC-Regular-3" transform="translate(200 0)"/>
     <use xlink:href="#PingFangSC-Regular-56" transform="translate(233.296875 0)"/>
     <use xlink:href="#PingFangSC-Regular-481" transform="translate(283.796875 0)"/>
     <use xlink:href="#PingFangSC-Regular-1b33" transform="translate(383.796875 0)"/>
     <use xlink:href="#PingFangSC-Regular-1585" transform="translate(483.796875 0)"/>
     <use xlink:href="#PingFangSC-Regular-146e" transform="translate(583.796875 0)"/>
     <use xlink:href="#PingFangSC-Regular-1cf5" transform="translate(683.796875 0)"/>
     <use xlink:href="#PingFangSC-Regular-4fe" transform="translate(783.796875 0)"/>
     <use xlink:href="#PingFangSC-Regular-1331" transform="translate(883.796875 0)"/>
     <use xlink:href="#PingFangSC-Regular-1169" transform="translate(983.796875 0)"/>
     <use xlink:href="#PingFangSC-Regular-482" transform="translate(1083.796875 0)"/>
    </g>
   </g>
   <g id="text_3">
    <g id="patch_5">
     <path d="M 171.709687 210.012027 
L 326.530312 210.012027 
Q 330.130312 210.012027 330.130312 206.412027 
L 330.130312 189.612027 
Q 330.130312 186.012027 326.530312 186.012027 
L 171.709687 186.012027 
Q 168.109687 186.012027 168.109687 189.612027 
L 168.109687 206.412027 
Q 168.109687 210.012027 171.709687 210.012027 
z
" style="fill: #ffffff; stroke: #3b82f6; stroke-width: 1.6; stroke-linejoin: miter"/>
    </g>
    <!-- 特征向量 phi(s)（提取特征） -->
    <g style="fill: #1e293b" transform="translate(171.709687 201.786402) scale(0.12 -0.12)">
     <defs>
      <path id="PingFangSC-Regular-53" d="M 1978 3398 
C 1478 3398 1114 3187 877 2765 
L 877 3309 
L 397 3309 
L 397 -1267 
L 909 -1267 
L 909 602 
C 1165 141 1530 -90 2003 -90 
C 2477 -90 2842 90 3110 435 
C 3354 755 3482 1158 3482 1645 
C 3482 2144 3354 2547 3104 2867 
C 2829 3226 2451 3398 1978 3398 
z
M 1914 2976 
C 2266 2976 2534 2848 2720 2579 
C 2874 2349 2957 2035 2957 1645 
C 2957 1248 2874 934 2707 704 
C 2522 461 2253 333 1894 333 
C 1587 333 1350 454 1171 685 
C 979 922 890 1229 890 1613 
L 890 1677 
C 890 2048 973 2355 1139 2586 
C 1318 2848 1581 2976 1914 2976 
z
" transform="scale(0.015625)"/>
      <path id="PingFangSC-Regular-4b" d="M 397 4659 
L 397 0 
L 909 0 
L 909 1888 
C 909 2195 992 2458 1165 2662 
C 1331 2867 1542 2970 1798 2970 
C 2074 2970 2285 2886 2438 2720 
C 2579 2554 2656 2317 2656 2010 
L 2656 0 
L 3168 0 
L 3168 2086 
C 3168 2509 3066 2835 2861 3059 
C 2656 3290 2355 3398 1971 3398 
C 1747 3398 1549 3347 1370 3245 
C 1178 3136 1024 2976 909 2765 
L 909 4659 
L 397 4659 
z
" transform="scale(0.015625)"/>
      <path id="PingFangSC-Regular-4c" d="M 819 4557 
C 710 4557 621 4525 544 4448 
C 467 4384 435 4294 435 4179 
C 435 4070 467 3981 544 3904 
C 621 3834 710 3795 819 3795 
C 928 3795 1018 3834 1094 3904 
C 1171 3981 1210 4070 1210 4179 
C 1210 4294 1171 4384 1094 4448 
C 1018 4525 928 4557 819 4557 
z
M 563 3309 
L 563 0 
L 1075 0 
L 1075 3309 
L 563 3309 
z
" transform="scale(0.015625)"/>
      <path id="PingFangSC-Regular-b" d="M 1312 5293 
C 1030 4883 813 4442 653 3974 
C 461 3424 371 2867 371 2298 
C 371 1741 461 1184 653 634 
C 813 173 1030 -269 1312 -685 
L 1760 -685 
C 1498 -256 1293 186 1152 640 
C 960 1203 870 1760 870 2304 
C 870 2854 960 3405 1152 3968 
C 1293 4429 1498 4870 1760 5293 
L 1312 5293 
z
" transform="scale(0.015625)"/>
      <path id="PingFangSC-Regular-c" d="M 371 5293 
C 627 4870 832 4429 979 3968 
C 1165 3405 1261 2854 1261 2304 
C 1261 1760 1165 1203 979 640 
C 832 186 627 -256 371 -685 
L 819 -685 
C 1094 -269 1312 173 1478 634 
C 1664 1184 1760 1741 1760 2298 
C 1760 2867 1664 3424 1478 3974 
C 1312 4442 1094 4883 819 5293 
L 371 5293 
z
" transform="scale(0.015625)"/>
      <path id="PingFangSC-Regular-d49" d="M 1056 -582 
C 1421 -582 1606 -397 1606 -38 
L 1606 1850 
C 1792 1939 1978 2029 2157 2125 
L 2157 2592 
C 1978 2490 1792 2400 1606 2310 
L 1606 3558 
L 2253 3558 
L 2253 4000 
L 1606 4000 
L 1606 5210 
L 1133 5210 
L 1133 4000 
L 358 4000 
L 358 3558 
L 1133 3558 
L 1133 2112 
C 851 2003 570 1914 282 1843 
L 390 1382 
C 640 1459 890 1549 1133 1645 
L 1133 83 
C 1133 -77 1050 -160 896 -160 
C 730 -160 563 -147 384 -134 
L 480 -582 
L 1056 -582 
z
M 2752 5005 
L 2752 2784 
L 5542 2784 
L 5542 5005 
L 2752 5005 
z
M 5094 3162 
L 3200 3162 
L 3200 3712 
L 5094 3712 
L 5094 3162 
z
M 3200 4070 
L 3200 4627 
L 5094 4627 
L 5094 4070 
L 3200 4070 
z
M 2304 2336 
L 2304 1926 
L 3923 1926 
L 3923 58 
C 3866 77 3814 96 3770 115 
C 3501 237 3264 512 3059 941 
C 3110 1158 3142 1376 3155 1606 
L 2746 1651 
C 2694 922 2426 256 1939 -333 
L 2278 -627 
C 2554 -294 2765 70 2918 467 
C 3110 109 3334 -134 3578 -262 
C 3885 -416 4461 -499 5306 -506 
C 5510 -506 5747 -512 6003 -512 
L 6131 -64 
C 5894 -83 5606 -96 5274 -96 
C 4922 -96 4621 -77 4365 -38 
L 4365 787 
L 5702 787 
L 5702 1203 
L 4365 1203 
L 4365 1926 
L 5965 1926 
L 5965 2336 
L 2304 2336 
z
" transform="scale(0.015625)"/>
      <path id="PingFangSC-Regular-750" d="M 3501 1114 
C 3309 1062 3117 1018 2918 973 
L 2918 4544 
L 3411 4544 
L 3411 4186 
L 3667 4186 
C 3757 3110 4038 2118 4512 1210 
C 4166 634 3738 147 3219 -262 
L 3533 -621 
C 4013 -243 4422 218 4768 755 
C 5062 275 5421 -186 5850 -627 
L 6157 -275 
C 5702 166 5318 653 5011 1178 
C 5453 2016 5747 3027 5888 4211 
L 5888 4634 
L 3411 4634 
L 3411 4979 
L 365 4979 
L 365 4544 
L 870 4544 
L 870 582 
C 678 557 486 525 294 499 
L 403 51 
C 1120 154 1805 275 2470 416 
L 2470 -640 
L 2918 -640 
L 2918 518 
C 3110 563 3302 608 3501 659 
L 3501 1114 
z
M 4090 4186 
L 5453 4186 
C 5338 3232 5101 2394 4755 1664 
C 4390 2426 4166 3264 4090 4186 
z
M 2470 870 
C 2093 794 1709 717 1318 653 
L 1318 1741 
L 2470 1741 
L 2470 870 
z
M 1318 2157 
L 1318 3130 
L 2470 3130 
L 2470 2157 
L 1318 2157 
z
M 1318 3552 
L 1318 4544 
L 2470 4544 
L 2470 3552 
L 1318 3552 
z
" transform="scale(0.015625)"/>
     </defs>
     <use xlink:href="#PingFangSC-Regular-11d9"/>
     <use xlink:href="#PingFangSC-Regular-b84" transform="translate(100 0)"/>
     <use xlink:href="#PingFangSC-Regular-77b" transform="translate(200 0)"/>
     <use xlink:href="#PingFangSC-Regular-1c01" transform="translate(300 0)"/>
     <use xlink:href="#PingFangSC-Regular-3" transform="translate(400 0)"/>
     <use xlink:href="#PingFangSC-Regular-53" transform="translate(433.296875 0)"/>
     <use xlink:href="#PingFangSC-Regular-4b" transform="translate(491.890625 0)"/>
     <use xlink:href="#PingFangSC-Regular-4c" transform="translate(547.484375 0)"/>
     <use xlink:href="#PingFangSC-Regular-b" transform="translate(573.078125 0)"/>
     <use xlink:href="#PingFangSC-Regular-56" transform="translate(606.375 0)"/>
     <use xlink:href="#PingFangSC-Regular-c" transform="translate(656.875 0)"/>
     <use xlink:href="#PingFangSC-Regular-481" transform="translate(690.171875 0)"/>
     <use xlink:href="#PingFangSC-Regular-d49" transform="translate(790.171875 0)"/>
     <use xlink:href="#PingFangSC-Regular-750" transform="translate(890.171875 0)"/>
     <use xlink:href="#PingFangSC-Regular-11d9" transform="translate(990.171875 0)"/>
     <use xlink:href="#PingFangSC-Regular-b84" transform="translate(1090.171875 0)"/>
     <use xlink:href="#PingFangSC-Regular-482" transform="translate(1190.171875 0)"/>
    </g>
   </g>
   <g id="text_4">
    <g id="patch_6">
     <path d="M 157.831875 313.094878 
L 340.408125 313.094878 
Q 344.008125 313.094878 344.008125 309.494878 
L 344.008125 275.894878 
Q 344.008125 272.294878 340.408125 272.294878 
L 157.831875 272.294878 
Q 154.231875 272.294878 154.231875 275.894878 
L 154.231875 309.494878 
Q 154.231875 313.094878 157.831875 313.094878 
z
" style="fill: #ffffff; stroke: #3b82f6; stroke-width: 1.6; stroke-linejoin: miter"/>
    </g>
    <!-- 价值估计 V_hat(s) = theta^T * ph -->
    <g style="fill: #1e293b" transform="translate(157.831875 288.069253) scale(0.12 -0.12)">
     <defs>
      <path id="PingFangSC-Regular-39" d="M 32 4570 
L 1722 0 
L 2368 0 
L 4058 4570 
L 3482 4570 
L 2054 570 
L 2035 570 
L 608 4570 
L 32 4570 
z
" transform="scale(0.015625)"/>
      <path id="PingFangSC-Regular-42" d="M 0 -467 
L 0 -896 
L 3200 -896 
L 3200 -467 
L 0 -467 
z
" transform="scale(0.015625)"/>
      <path id="PingFangSC-Regular-44" d="M 1837 3398 
C 1440 3398 1126 3322 883 3168 
C 614 3002 442 2739 371 2394 
L 877 2355 
C 928 2566 1037 2726 1210 2829 
C 1363 2931 1562 2976 1805 2976 
C 2381 2976 2669 2701 2669 2144 
L 2669 1971 
L 1875 1958 
C 1376 1952 992 1856 723 1677 
C 416 1485 269 1203 269 826 
C 269 557 371 333 576 160 
C 774 -6 1037 -90 1370 -90 
C 1677 -90 1952 -19 2195 115 
C 2400 230 2573 378 2701 557 
L 2701 0 
L 3181 0 
L 3181 2125 
C 3181 2509 3078 2810 2886 3027 
C 2656 3277 2310 3398 1837 3398 
z
M 2669 1587 
L 2669 1306 
C 2669 1050 2547 819 2310 621 
C 2067 416 1792 314 1478 314 
C 1274 314 1107 365 979 461 
C 851 563 794 685 794 838 
C 794 1318 1165 1562 1907 1574 
L 2669 1587 
z
" transform="scale(0.015625)"/>
      <path id="PingFangSC-Regular-57" d="M 1280 4378 
L 774 4166 
L 774 3309 
L 109 3309 
L 109 2880 
L 774 2880 
L 774 774 
C 774 525 826 339 934 211 
C 1050 70 1248 0 1517 0 
L 2016 0 
L 2016 429 
L 1594 429 
C 1478 429 1395 461 1350 512 
C 1299 563 1280 653 1280 774 
L 1280 2880 
L 2099 2880 
L 2099 3309 
L 1280 3309 
L 1280 4378 
z
" transform="scale(0.015625)"/>
      <path id="PingFangSC-Regular-20" d="M 320 2528 
L 320 2099 
L 3552 2099 
L 3552 2528 
L 320 2528 
z
M 320 1216 
L 320 781 
L 3552 781 
L 3552 1216 
L 320 1216 
z
" transform="scale(0.015625)"/>
      <path id="PingFangSC-Regular-48" d="M 1760 3398 
C 1280 3398 902 3226 621 2880 
C 339 2554 205 2144 205 1658 
C 205 1120 346 698 640 378 
C 922 70 1306 -90 1779 -90 
C 2208 -90 2560 38 2835 282 
C 3059 486 3206 742 3283 1062 
L 2771 1062 
C 2688 832 2579 659 2438 544 
C 2272 410 2048 339 1779 339 
C 1466 339 1216 442 1037 646 
C 858 851 762 1139 736 1510 
L 3347 1510 
C 3334 2086 3206 2541 2963 2861 
C 2694 3219 2291 3398 1760 3398 
z
M 1773 2970 
C 2400 2970 2752 2618 2816 1907 
L 749 1907 
C 781 2234 883 2490 1062 2682 
C 1242 2874 1478 2970 1773 2970 
z
" transform="scale(0.015625)"/>
      <path id="PingFangSC-Regular-41" d="M 1414 4570 
L 384 2368 
L 813 2368 
L 1658 4128 
L 2502 2368 
L 2931 2368 
L 1901 4570 
L 1414 4570 
z
" transform="scale(0.015625)"/>
      <path id="PingFangSC-Regular-37" d="M 109 4570 
L 109 4115 
L 1722 4115 
L 1722 0 
L 2240 0 
L 2240 4115 
L 3853 4115 
L 3853 4570 
L 109 4570 
z
" transform="scale(0.015625)"/>
      <path id="PingFangSC-Regular-d" d="M 1395 4570 
L 1446 3322 
L 301 3757 
L 160 3334 
L 1338 2982 
L 544 2042 
L 890 1766 
L 1619 2778 
L 2349 1766 
L 2694 2042 
L 1901 2982 
L 3078 3334 
L 2938 3757 
L 1798 3322 
L 1843 4570 
L 1395 4570 
z
" transform="scale(0.015625)"/>
     </defs>
     <use xlink:href="#PingFangSC-Regular-570"/>
     <use xlink:href="#PingFangSC-Regular-a9ca" transform="translate(100 0)"/>
     <use xlink:href="#PingFangSC-Regular-58c" transform="translate(200 0)"/>
     <use xlink:href="#PingFangSC-Regular-1987" transform="translate(300 0)"/>
     <use xlink:href="#PingFangSC-Regular-3" transform="translate(400 0)"/>
     <use xlink:href="#PingFangSC-Regular-39" transform="translate(433.296875 0)"/>
     <use xlink:href="#PingFangSC-Regular-42" transform="translate(497.203125 0)"/>
     <use xlink:href="#PingFangSC-Regular-4b" transform="translate(547.203125 0)"/>
     <use xlink:href="#PingFangSC-Regular-44" transform="translate(602.796875 0)"/>
     <use xlink:href="#PingFangSC-Regular-57" transform="translate(658.703125 0)"/>
     <use xlink:href="#PingFangSC-Regular-b" transform="translate(694.203125 0)"/>
     <use xlink:href="#PingFangSC-Regular-56" transform="translate(727.5 0)"/>
     <use xlink:href="#PingFangSC-Regular-c" transform="translate(778 0)"/>
     <use xlink:href="#PingFangSC-Regular-3" transform="translate(811.296875 0)"/>
     <use xlink:href="#PingFangSC-Regular-20" transform="translate(844.59375 0)"/>
     <use xlink:href="#PingFangSC-Regular-3" transform="translate(905.09375 0)"/>
     <use xlink:href="#PingFangSC-Regular-57" transform="translate(938.390625 0)"/>
     <use xlink:href="#PingFangSC-Regular-4b" transform="translate(973.890625 0)"/>
     <use xlink:href="#PingFangSC-Regular-48" transform="translate(1029.484375 0)"/>
     <use xlink:href="#PingFangSC-Regular-57" transform="translate(1084.984375 0)"/>
     <use xlink:href="#PingFangSC-Regular-44" transform="translate(1120.484375 0)"/>
     <use xlink:href="#PingFangSC-Regular-41" transform="translate(1176.390625 0)"/>
     <use xlink:href="#PingFangSC-Regular-37" transform="translate(1228.1875 0)"/>
     <use xlink:href="#PingFangSC-Regular-3" transform="translate(1290.09375 0)"/>
     <use xlink:href="#PingFangSC-Regular-d" transform="translate(1323.390625 0)"/>
     <use xlink:href="#PingFangSC-Regular-3" transform="translate(1373.984375 0)"/>
     <use xlink:href="#PingFangSC-Regular-53" transform="translate(1407.28125 0)"/>
     <use xlink:href="#PingFangSC-Regular-4b" transform="translate(1465.875 0)"/>
    </g>
    <!-- i(s) -->
    <g style="fill: #1e293b" transform="translate(240.55875 305.414878) scale(0.12 -0.12)">
     <use xlink:href="#PingFangSC-Regular-4c"/>
     <use xlink:href="#PingFangSC-Regular-b" transform="translate(25.59375 0)"/>
     <use xlink:href="#PingFangSC-Regular-56" transform="translate(58.890625 0)"/>
     <use xlink:href="#PingFangSC-Regular-c" transform="translate(109.390625 0)"/>
    </g>
   </g>
  </g>
 </g>
</svg>
