<?xml version="1.0" encoding="utf-8" standalone="no"?>
<!DOCTYPE svg PUBLIC "-//W3C//DTD SVG 1.1//EN"
  "http://www.w3.org/Graphics/SVG/1.1/DTD/svg11.dtd">
<svg stroke-linejoin="round" stroke-linecap="butt" xmlns:xlink="http://www.w3.org/1999/xlink" width="685.44pt" height="355.68pt" viewBox="0 0 685.44 355.68" xmlns="http://www.w3.org/2000/svg" version="1.1">
 <metadata>
  <rdf:RDF xmlns:dc="http://purl.org/dc/elements/1.1/" xmlns:cc="http://creativecommons.org/ns#" xmlns:rdf="http://www.w3.org/1999/02/22-rdf-syntax-ns#">
   <cc:Work>
    <dc:type rdf:resource="http://purl.org/dc/dcmitype/StillImage"/>
    <dc:date>1970-01-01T00:00:00</dc:date>
    <dc:format>image/svg+xml</dc:format>
    <dc:creator>
     <cc:Agent>
      <dc:title>Matplotlib v3.11.2, https://matplotlib.org/</dc:title>
     </cc:Agent>
    </dc:creator>
   </cc:Work>
  </rdf:RDF>
 </metadata>
 <defs>
  
 </defs>
 <g id="figure_1">
  <g id="patch_1">
   <path d="M 0 355.68 
L 685.44 355.68 
L 685.44 0 
L 0 0 
z
" style="fill: #ffffff"/>
  </g>
  <g id="axes_1">
   <g id="patch_2">
    <path d="M 77.833125 312.268437 
L 663.84 312.268437 
L 663.84 47.36 
L 77.833125 47.36 
z
" style="fill: #ffffff"/>
   </g>
   <g id="patch_3">
    <path d="M 156.024658 288.545294 
L 189.942327 288.545294 
L 189.942327 284.979405 
L 156.024658 284.979405 
z
" clip-path="url(#p0999d420a5)" style="fill: #3b82f6; opacity: 0.85"/>
   </g>
   <g id="patch_4">
    <path d="M 212.554107 288.545294 
L 246.471776 288.545294 
L 246.471776 286.405761 
L 212.554107 286.405761 
z
" clip-path="url(#p0999d420a5)" style="fill: #3b82f6; opacity: 0.85"/>
   </g>
   <g id="patch_5">
    <path d="M 269.083555 288.545294 
L 303.001224 288.545294 
L 303.001224 287.404209 
L 269.083555 287.404209 
z
" clip-path="url(#p0999d420a5)" style="fill: #3b82f6; opacity: 0.85"/>
   </g>
   <g id="patch_6">
    <path d="M 325.613004 288.545294 
L 359.530673 288.545294 
L 359.530673 285.193359 
L 325.613004 285.193359 
z
" clip-path="url(#p0999d420a5)" style="fill: #3b82f6; opacity: 0.85"/>
   </g>
   <g id="patch_7">
    <path d="M 382.142452 288.545294 
L 416.060121 288.545294 
L 416.060121 288.260023 
L 382.142452 288.260023 
z
" clip-path="url(#p0999d420a5)" style="fill: #3b82f6; opacity: 0.85"/>
   </g>
   <g id="patch_8">
    <path d="M 438.671901 288.545294 
L 472.58957 288.545294 
L 472.58957 282.126694 
L 438.671901 282.126694 
z
" clip-path="url(#p0999d420a5)" style="fill: #3b82f6; opacity: 0.85"/>
   </g>
   <g id="patch_9">
    <path d="M 495.201349 288.545294 
L 529.119018 288.545294 
L 529.119018 163.739193 
L 495.201349 163.739193 
z
" clip-path="url(#p0999d420a5)" style="fill: #3b82f6; opacity: 0.85"/>
   </g>
   <g id="patch_10">
    <path d="M 551.730798 288.545294 
L 585.648467 288.545294 
L 585.648467 100.266376 
L 551.730798 100.266376 
z
" clip-path="url(#p0999d420a5)" style="fill: #3b82f6; opacity: 0.85"/>
   </g>
   <g id="matplotlib.axis_1">
    <g id="xtick_1">
     <g id="line2d_1">
      <path d="M 172.983493 312.268437 
L 172.983493 47.36 
" clip-path="url(#p0999d420a5)" style="fill: none; stroke: #e2e8f0; stroke-opacity: 0.6; stroke-width: 0.6; stroke-linecap: square"/>
     </g>
     <g id="line2d_2">
      <defs>
       <path id="mebfbe0068a" d="M 0 0 
L 0 3.5 
" style="stroke: #1e293b; stroke-width: 0.8"/>
      </defs>
      <g>
       <use xlink:href="#mebfbe0068a" x="172.983493" y="312.268437" style="fill: #1e293b; stroke: #1e293b; stroke-width: 0.8"/>
      </g>
     </g>
     <g id="text_1">
      <!-- 网络 -->
      <g style="fill: #1e293b" transform="translate(158.983493 331.308437) scale(0.14 -0.14)">
       <defs>
        <path id="PingFangSC-Regular-15d1" d="M 3014 813 
L 3322 1120 
C 3066 1517 2810 1882 2566 2214 
C 2733 2758 2867 3360 2970 4019 
L 2547 4096 
C 2470 3584 2368 3098 2246 2650 
C 1978 3008 1722 3309 1485 3558 
L 1197 3283 
C 1491 2944 1792 2573 2099 2163 
C 1882 1517 1606 954 1274 480 
L 1568 122 
C 1894 570 2176 1107 2406 1734 
C 2605 1446 2810 1139 3014 813 
z
M 4890 518 
L 5203 826 
C 4928 1286 4666 1702 4422 2074 
C 4614 2650 4768 3290 4883 4000 
L 4448 4077 
C 4358 3526 4250 3008 4109 2528 
C 3840 2912 3584 3232 3354 3494 
L 3066 3219 
C 3360 2861 3648 2464 3942 2029 
C 3706 1376 3405 806 3046 320 
L 3341 -32 
C 3686 416 3987 954 4243 1581 
C 4454 1248 4672 896 4890 518 
z
M 5184 -602 
C 5562 -602 5754 -403 5754 -13 
L 5754 4966 
L 646 4966 
L 646 -627 
L 1101 -627 
L 1101 4525 
L 5299 4525 
L 5299 90 
C 5299 -83 5210 -173 5030 -173 
L 4416 -154 
L 4538 -602 
L 5184 -602 
z
" transform="scale(0.015625)"/>
        <path id="PingFangSC-Regular-1576" d="M 2579 634 
C 1952 397 1216 205 378 64 
L 435 -390 
C 1242 -237 1952 -45 2579 198 
L 2579 634 
z
M 1434 5242 
C 1178 4486 883 3821 544 3238 
C 486 3155 422 3098 352 3066 
L 467 2643 
C 819 2694 1165 2752 1510 2816 
C 1171 2202 883 1773 653 1517 
C 602 1466 531 1421 448 1382 
L 570 966 
C 1171 1050 1798 1210 2458 1440 
L 2458 1856 
C 2003 1690 1555 1562 1107 1466 
C 1466 1926 1920 2694 2470 3776 
L 2074 3923 
C 1958 3686 1843 3456 1734 3238 
C 1453 3187 1178 3142 902 3104 
C 1222 3590 1542 4250 1862 5075 
L 1434 5242 
z
M 5594 1760 
L 2963 1760 
L 2963 -602 
L 3405 -602 
L 3405 -326 
L 5152 -326 
L 5152 -602 
L 5594 -602 
L 5594 1760 
z
M 3405 96 
L 3405 1338 
L 5152 1338 
L 5152 96 
L 3405 96 
z
M 3597 5242 
C 3392 4563 3008 3987 2438 3520 
L 2707 3162 
C 2918 3334 3110 3526 3283 3731 
C 3456 3450 3661 3181 3904 2938 
C 3462 2618 2931 2349 2317 2118 
L 2598 1747 
C 3226 1990 3776 2291 4237 2637 
C 4698 2266 5261 1984 5933 1779 
L 6195 2157 
C 5568 2336 5024 2592 4576 2918 
C 5018 3322 5357 3789 5594 4320 
L 5594 4653 
L 3859 4653 
C 3923 4813 3987 4979 4038 5158 
L 3597 5242 
z
M 3533 4058 
C 3571 4115 3610 4179 3648 4243 
L 5094 4243 
C 4883 3859 4595 3514 4230 3200 
C 3955 3450 3725 3738 3533 4058 
z
" transform="scale(0.015625)"/>
       </defs>
       <use xlink:href="#PingFangSC-Regular-15d1"/>
       <use xlink:href="#PingFangSC-Regular-1576" transform="translate(100 0)"/>
      </g>
     </g>
    </g>
    <g id="xtick_2">
     <g id="line2d_3">
      <path d="M 229.512941 312.268437 
L 229.512941 47.36 
" clip-path="url(#p0999d420a5)" style="fill: none; stroke: #e2e8f0; stroke-opacity: 0.6; stroke-width: 0.6; stroke-linecap: square"/>
     </g>
     <g id="line2d_4">
      <g>
       <use xlink:href="#mebfbe0068a" x="229.512941" y="312.268437" style="fill: #1e293b; stroke: #1e293b; stroke-width: 0.8"/>
      </g>
     </g>
     <g id="text_2">
      <!-- 排队 -->
      <g style="fill: #1e293b" transform="translate(215.512941 331.308437) scale(0.14 -0.14)">
       <defs>
        <path id="PingFangSC-Regular-d2d" d="M 3328 5222 
L 3328 4198 
L 2323 4198 
L 2323 3782 
L 3328 3782 
L 3328 2720 
L 2426 2720 
L 2426 2298 
L 3328 2298 
L 3328 1190 
L 2067 1190 
L 2067 768 
L 3328 768 
L 3328 -640 
L 3770 -640 
L 3770 5222 
L 3328 5222 
z
M 992 -582 
C 1363 -582 1555 -403 1555 -45 
L 1555 1792 
C 1766 1888 1971 1990 2176 2099 
L 2176 2573 
C 1971 2458 1766 2355 1555 2253 
L 1555 3558 
L 2125 3558 
L 2125 4000 
L 1555 4000 
L 1555 5210 
L 1107 5210 
L 1107 4000 
L 416 4000 
L 416 3558 
L 1107 3558 
L 1107 2067 
C 838 1965 570 1882 294 1811 
L 403 1344 
C 640 1421 877 1510 1107 1600 
L 1107 70 
C 1107 -83 1011 -160 832 -160 
C 666 -160 486 -147 301 -134 
L 403 -582 
L 992 -582 
z
M 4531 5222 
L 4531 -640 
L 4979 -640 
L 4979 768 
L 6118 768 
L 6118 1190 
L 4979 1190 
L 4979 2298 
L 5939 2298 
L 5939 2720 
L 4979 2720 
L 4979 3782 
L 6074 3782 
L 6074 4198 
L 4979 4198 
L 4979 5222 
L 4531 5222 
z
" transform="scale(0.015625)"/>
        <path id="PingFangSC-Regular-1d1a" d="M 550 4960 
L 550 -646 
L 998 -646 
L 998 4525 
L 2035 4525 
C 1869 3987 1638 3386 1331 2720 
C 1786 2182 2016 1696 2016 1261 
C 2016 1126 1971 1030 1894 973 
C 1818 922 1658 883 1427 870 
C 1363 870 1280 883 1178 896 
L 1331 429 
C 1779 435 2086 512 2266 666 
C 2394 787 2464 986 2464 1261 
C 2432 1722 2208 2227 1792 2790 
C 2061 3418 2291 4019 2490 4595 
L 2490 4960 
L 550 4960 
z
M 3878 5184 
C 3872 3942 3770 2925 3578 2125 
C 3322 1178 2803 384 2022 -243 
L 2330 -608 
C 3226 96 3795 998 4038 2099 
C 4064 2208 4083 2317 4109 2432 
C 4493 1235 5069 230 5837 -582 
L 6170 -192 
C 5261 698 4621 1907 4250 3443 
C 4301 3968 4333 4550 4333 5184 
L 3878 5184 
z
" transform="scale(0.015625)"/>
       </defs>
       <use xlink:href="#PingFangSC-Regular-d2d"/>
       <use xlink:href="#PingFangSC-Regular-1d1a" transform="translate(100 0)"/>
      </g>
     </g>
    </g>
    <g id="xtick_3">
     <g id="line2d_5">
      <path d="M 286.04239 312.268437 
L 286.04239 47.36 
" clip-path="url(#p0999d420a5)" style="fill: none; stroke: #e2e8f0; stroke-opacity: 0.6; stroke-width: 0.6; stroke-linecap: square"/>
     </g>
     <g id="line2d_6">
      <g>
       <use xlink:href="#mebfbe0068a" x="286.04239" y="312.268437" style="fill: #1e293b; stroke: #1e293b; stroke-width: 0.8"/>
      </g>
     </g>
     <g id="text_3">
      <!-- embed -->
      <g style="fill: #1e293b" transform="translate(264.084265 331.308437) scale(0.14 -0.14)">
       <defs>
        <path id="PingFangSC-Regular-48" d="M 1760 3398 
C 1280 3398 902 3226 621 2880 
C 339 2554 205 2144 205 1658 
C 205 1120 346 698 640 378 
C 922 70 1306 -90 1779 -90 
C 2208 -90 2560 38 2835 282 
C 3059 486 3206 742 3283 1062 
L 2771 1062 
C 2688 832 2579 659 2438 544 
C 2272 410 2048 339 1779 339 
C 1466 339 1216 442 1037 646 
C 858 851 762 1139 736 1510 
L 3347 1510 
C 3334 2086 3206 2541 2963 2861 
C 2694 3219 2291 3398 1760 3398 
z
M 1773 2970 
C 2400 2970 2752 2618 2816 1907 
L 749 1907 
C 781 2234 883 2490 1062 2682 
C 1242 2874 1478 2970 1773 2970 
z
" transform="scale(0.015625)"/>
        <path id="PingFangSC-Regular-50" d="M 1843 3398 
C 1472 3398 1158 3226 909 2867 
L 909 3309 
L 397 3309 
L 397 0 
L 909 0 
L 909 2016 
C 909 2278 986 2502 1139 2682 
C 1293 2874 1485 2963 1722 2963 
C 2227 2963 2483 2675 2483 2086 
L 2483 0 
L 2995 0 
L 2995 2074 
C 2995 2342 3066 2554 3219 2720 
C 3360 2886 3546 2963 3763 2963 
C 4045 2963 4250 2893 4378 2739 
C 4499 2598 4563 2381 4563 2086 
L 4563 0 
L 5075 0 
L 5075 2170 
C 5075 2547 4966 2848 4762 3072 
C 4544 3290 4269 3398 3923 3398 
C 3693 3398 3501 3347 3341 3245 
C 3162 3149 3008 2989 2880 2771 
C 2694 3194 2349 3398 1843 3398 
z
" transform="scale(0.015625)"/>
        <path id="PingFangSC-Regular-45" d="M 397 4659 
L 397 0 
L 877 0 
L 877 544 
C 1101 122 1466 -90 1978 -90 
C 2458 -90 2835 90 3110 435 
C 3354 755 3482 1165 3482 1664 
C 3482 2150 3354 2547 3110 2867 
C 2842 3226 2470 3398 2003 3398 
C 1530 3398 1165 3168 909 2701 
L 909 4659 
L 397 4659 
z
M 1894 2976 
C 2253 2976 2522 2848 2707 2592 
C 2874 2368 2957 2061 2957 1664 
C 2957 1267 2874 954 2720 723 
C 2541 467 2272 333 1914 333 
C 1581 333 1318 461 1139 717 
C 973 947 890 1248 890 1619 
L 890 1683 
C 890 2067 979 2381 1171 2618 
C 1350 2861 1594 2976 1894 2976 
z
" transform="scale(0.015625)"/>
        <path id="PingFangSC-Regular-47" d="M 2842 4659 
L 2842 2701 
C 2586 3168 2221 3398 1747 3398 
C 1274 3398 909 3226 640 2867 
C 390 2547 269 2150 269 1664 
C 269 1165 390 755 640 435 
C 909 90 1286 -90 1773 -90 
C 2272 -90 2643 122 2874 544 
L 2874 0 
L 3354 0 
L 3354 4659 
L 2842 4659 
z
M 1856 2976 
C 2150 2976 2394 2861 2579 2618 
C 2758 2381 2854 2067 2854 1683 
L 2854 1619 
C 2854 1248 2771 947 2611 717 
C 2426 461 2170 333 1837 333 
C 1478 333 1210 467 1030 723 
C 870 954 794 1267 794 1664 
C 794 2061 870 2368 1037 2592 
C 1216 2848 1491 2976 1856 2976 
z
" transform="scale(0.015625)"/>
       </defs>
       <use xlink:href="#PingFangSC-Regular-48"/>
       <use xlink:href="#PingFangSC-Regular-50" transform="translate(55.5 0)"/>
       <use xlink:href="#PingFangSC-Regular-45" transform="translate(141 0)"/>
       <use xlink:href="#PingFangSC-Regular-48" transform="translate(199.59375 0)"/>
       <use xlink:href="#PingFangSC-Regular-47" transform="translate(255.09375 0)"/>
      </g>
     </g>
    </g>
    <g id="xtick_4">
     <g id="line2d_7">
      <path d="M 342.571838 312.268437 
L 342.571838 47.36 
" clip-path="url(#p0999d420a5)" style="fill: none; stroke: #e2e8f0; stroke-opacity: 0.6; stroke-width: 0.6; stroke-linecap: square"/>
     </g>
     <g id="line2d_8">
      <g>
       <use xlink:href="#mebfbe0068a" x="342.571838" y="312.268437" style="fill: #1e293b; stroke: #1e293b; stroke-width: 0.8"/>
      </g>
     </g>
     <g id="text_4">
      <!-- ANN -->
      <g style="fill: #1e293b" transform="translate(327.905744 331.308437) scale(0.14 -0.14)">
       <defs>
        <path id="PingFangSC-Regular-24" d="M 1798 4570 
L 0 0 
L 563 0 
L 1050 1280 
L 3149 1280 
L 3635 0 
L 4205 0 
L 2406 4570 
L 1798 4570 
z
M 1216 1722 
L 2093 4006 
L 2118 4006 
L 2982 1722 
L 1216 1722 
z
" transform="scale(0.015625)"/>
        <path id="PingFangSC-Regular-31" d="M 461 4570 
L 461 0 
L 986 0 
L 986 3757 
L 1005 3757 
L 3603 0 
L 4141 0 
L 4141 4570 
L 3616 4570 
L 3616 851 
L 3597 851 
L 1011 4570 
L 461 4570 
z
" transform="scale(0.015625)"/>
       </defs>
       <use xlink:href="#PingFangSC-Regular-24"/>
       <use xlink:href="#PingFangSC-Regular-31" transform="translate(65.703125 0)"/>
       <use xlink:href="#PingFangSC-Regular-31" transform="translate(137.609375 0)"/>
      </g>
     </g>
    </g>
    <g id="xtick_5">
     <g id="line2d_9">
      <path d="M 399.101287 312.268437 
L 399.101287 47.36 
" clip-path="url(#p0999d420a5)" style="fill: none; stroke: #e2e8f0; stroke-opacity: 0.6; stroke-width: 0.6; stroke-linecap: square"/>
     </g>
     <g id="line2d_10">
      <g>
       <use xlink:href="#mebfbe0068a" x="399.101287" y="312.268437" style="fill: #1e293b; stroke: #1e293b; stroke-width: 0.8"/>
      </g>
     </g>
     <g id="text_5">
      <!-- 过滤 -->
      <g style="fill: #1e293b" transform="translate(385.101287 331.308437) scale(0.14 -0.14)">
       <defs>
        <path id="PingFangSC-Regular-1b26" d="M 787 5139 
L 467 4838 
C 928 4467 1286 4115 1549 3789 
L 1882 4128 
C 1587 4461 1222 4800 787 5139 
z
M 4678 -525 
L 6029 -525 
L 6144 -58 
C 5990 -70 5766 -77 5478 -83 
C 5184 -83 4902 -90 4621 -90 
C 4096 -90 3654 -83 3302 -77 
C 2906 -64 2598 -19 2394 64 
C 2208 154 2035 288 1869 467 
C 1811 531 1754 576 1702 614 
L 1702 3014 
L 339 3014 
L 339 2579 
L 1261 2579 
L 1261 640 
C 992 525 691 192 346 -358 
L 691 -666 
C 1050 -64 1312 230 1466 230 
C 1549 230 1638 179 1728 70 
C 1933 -160 2170 -320 2438 -397 
C 2701 -467 3053 -506 3488 -512 
C 3917 -518 4314 -525 4678 -525 
z
M 4486 333 
C 4870 333 5069 525 5069 896 
L 5069 3725 
L 6016 3725 
L 6016 4179 
L 5069 4179 
L 5069 5216 
L 4602 5216 
L 4602 4179 
L 2182 4179 
L 2182 3725 
L 4602 3725 
L 4602 1005 
C 4602 832 4506 742 4326 742 
C 4058 742 3770 755 3475 774 
L 3578 333 
L 4486 333 
z
M 2880 3155 
L 2522 2925 
C 2912 2458 3219 2035 3450 1651 
L 3821 1907 
C 3603 2266 3290 2682 2880 3155 
z
" transform="scale(0.015625)"/>
        <path id="PingFangSC-Regular-1101" d="M 3661 5242 
L 3661 4006 
L 2138 4006 
L 2138 2368 
C 2112 1280 1862 384 1389 -320 
L 1728 -621 
C 2272 211 2547 1210 2547 2381 
L 2547 3610 
L 3533 3610 
L 3533 3027 
L 2803 2912 
L 2854 2547 
L 3533 2650 
L 3533 2298 
C 3533 1984 3718 1824 4102 1824 
L 4998 1824 
C 5216 1824 5370 1862 5472 1926 
C 5587 2003 5664 2214 5702 2566 
L 5318 2694 
C 5293 2464 5248 2317 5184 2266 
C 5133 2227 5043 2208 4922 2208 
L 4224 2208 
C 4032 2208 3942 2272 3942 2387 
L 3942 2714 
L 5062 2880 
L 4998 3251 
L 3942 3091 
L 3942 3610 
L 5453 3610 
C 5389 3373 5312 3162 5222 2970 
L 5626 2861 
C 5754 3168 5843 3475 5901 3795 
L 5901 4006 
L 4102 4006 
L 4102 4499 
L 5773 4499 
L 5773 4883 
L 4102 4883 
L 4102 5242 
L 3661 5242 
z
M 794 5152 
L 474 4851 
C 928 4538 1286 4237 1549 3955 
L 1862 4275 
C 1568 4570 1216 4858 794 5152 
z
M 634 3610 
L 314 3296 
C 749 2950 1094 2630 1350 2323 
L 1670 2643 
C 1389 2963 1043 3290 634 3610 
z
M 1254 1920 
C 1005 1139 710 378 365 -365 
L 806 -557 
C 1120 166 1402 941 1658 1760 
L 1254 1920 
z
M 5562 1248 
L 5216 1094 
C 5421 659 5606 166 5779 -390 
L 6138 -205 
C 5971 326 5779 813 5562 1248 
z
M 2835 1107 
C 2726 608 2554 147 2317 -275 
L 2675 -493 
C 2899 -64 3072 448 3200 1037 
L 2835 1107 
z
M 4646 -582 
C 4845 -582 4992 -544 5082 -474 
C 5184 -384 5261 -147 5299 243 
L 4915 371 
C 4890 102 4851 -64 4800 -115 
C 4749 -160 4672 -186 4570 -186 
L 4122 -186 
C 3974 -186 3904 -134 3904 -32 
L 3904 1229 
L 3494 1229 
L 3494 -109 
C 3494 -422 3661 -582 4000 -582 
L 4646 -582 
z
M 4301 1645 
L 4006 1427 
C 4224 1171 4448 864 4666 512 
L 4979 742 
C 4768 1075 4544 1376 4301 1645 
z
" transform="scale(0.015625)"/>
       </defs>
       <use xlink:href="#PingFangSC-Regular-1b26"/>
       <use xlink:href="#PingFangSC-Regular-1101" transform="translate(100 0)"/>
      </g>
     </g>
    </g>
    <g id="xtick_6">
     <g id="line2d_11">
      <path d="M 455.630735 312.268437 
L 455.630735 47.36 
" clip-path="url(#p0999d420a5)" style="fill: none; stroke: #e2e8f0; stroke-opacity: 0.6; stroke-width: 0.6; stroke-linecap: square"/>
     </g>
     <g id="line2d_12">
      <g>
       <use xlink:href="#mebfbe0068a" x="455.630735" y="312.268437" style="fill: #1e293b; stroke: #1e293b; stroke-width: 0.8"/>
      </g>
     </g>
     <g id="text_6">
      <!-- 重排 -->
      <g style="fill: #1e293b" transform="translate(441.630735 331.308437) scale(0.14 -0.14)">
       <defs>
        <path id="PingFangSC-Regular-1bff" d="M 986 3347 
L 986 1222 
L 2963 1222 
L 2963 781 
L 691 781 
L 691 410 
L 2963 410 
L 2963 -70 
L 371 -70 
L 371 -474 
L 6029 -474 
L 6029 -70 
L 3424 -70 
L 3424 410 
L 5715 410 
L 5715 781 
L 3424 781 
L 3424 1222 
L 5408 1222 
L 5408 3347 
L 3424 3347 
L 3424 3757 
L 5939 3757 
L 5939 4154 
L 3424 4154 
L 3424 4640 
C 4134 4685 4800 4736 5414 4800 
L 5274 5184 
C 4000 5043 2528 4947 864 4896 
L 941 4518 
C 1645 4544 2317 4576 2963 4614 
L 2963 4154 
L 461 4154 
L 461 3757 
L 2963 3757 
L 2963 3347 
L 986 3347 
z
M 4960 1594 
L 3424 1594 
L 3424 2112 
L 4960 2112 
L 4960 1594 
z
M 2963 1594 
L 1427 1594 
L 1427 2112 
L 2963 2112 
L 2963 1594 
z
M 1427 2470 
L 1427 2976 
L 2963 2976 
L 2963 2470 
L 1427 2470 
z
M 3424 2976 
L 4960 2976 
L 4960 2470 
L 3424 2470 
L 3424 2976 
z
" transform="scale(0.015625)"/>
       </defs>
       <use xlink:href="#PingFangSC-Regular-1bff"/>
       <use xlink:href="#PingFangSC-Regular-d2d" transform="translate(100 0)"/>
      </g>
     </g>
    </g>
    <g id="xtick_7">
     <g id="line2d_13">
      <path d="M 512.160184 312.268437 
L 512.160184 47.36 
" clip-path="url(#p0999d420a5)" style="fill: none; stroke: #e2e8f0; stroke-opacity: 0.6; stroke-width: 0.6; stroke-linecap: square"/>
     </g>
     <g id="line2d_14">
      <g>
       <use xlink:href="#mebfbe0068a" x="512.160184" y="312.268437" style="fill: #1e293b; stroke: #1e293b; stroke-width: 0.8"/>
      </g>
     </g>
     <g id="text_7">
      <!-- prefill -->
      <g style="fill: #1e293b" transform="translate(494.07284 331.308437) scale(0.14 -0.14)">
       <defs>
        <path id="PingFangSC-Regular-53" d="M 1978 3398 
C 1478 3398 1114 3187 877 2765 
L 877 3309 
L 397 3309 
L 397 -1267 
L 909 -1267 
L 909 602 
C 1165 141 1530 -90 2003 -90 
C 2477 -90 2842 90 3110 435 
C 3354 755 3482 1158 3482 1645 
C 3482 2144 3354 2547 3104 2867 
C 2829 3226 2451 3398 1978 3398 
z
M 1914 2976 
C 2266 2976 2534 2848 2720 2579 
C 2874 2349 2957 2035 2957 1645 
C 2957 1248 2874 934 2707 704 
C 2522 461 2253 333 1894 333 
C 1587 333 1350 454 1171 685 
C 979 922 890 1229 890 1613 
L 890 1677 
C 890 2048 973 2355 1139 2586 
C 1318 2848 1581 2976 1914 2976 
z
" transform="scale(0.015625)"/>
        <path id="PingFangSC-Regular-55" d="M 1850 3398 
C 1619 3398 1421 3328 1248 3187 
C 1107 3078 992 2925 902 2733 
L 902 3309 
L 397 3309 
L 397 0 
L 902 0 
L 902 1754 
C 902 2061 986 2323 1165 2541 
C 1338 2771 1555 2880 1811 2880 
C 1971 2880 2138 2861 2304 2810 
L 2304 3322 
C 2182 3373 2029 3398 1850 3398 
z
" transform="scale(0.015625)"/>
        <path id="PingFangSC-Regular-189" d="M 1722 4570 
C 1440 4570 1222 4493 1075 4333 
C 934 4179 864 3968 864 3686 
L 864 3309 
L 32 3309 
L 32 2880 
L 864 2880 
L 864 0 
L 1376 0 
L 1376 2880 
L 2886 2880 
L 2886 0 
L 3392 0 
L 3392 3309 
L 1376 3309 
L 1376 3674 
C 1376 3834 1408 3949 1472 4019 
C 1536 4096 1645 4128 1786 4128 
L 2355 4128 
L 2355 4570 
L 1722 4570 
z
" transform="scale(0.015625)"/>
        <path id="PingFangSC-Regular-4f" d="M 499 4659 
L 499 0 
L 1005 0 
L 1005 4659 
L 499 4659 
z
" transform="scale(0.015625)"/>
       </defs>
       <use xlink:href="#PingFangSC-Regular-53"/>
       <use xlink:href="#PingFangSC-Regular-55" transform="translate(58.59375 0)"/>
       <use xlink:href="#PingFangSC-Regular-48" transform="translate(95.09375 0)"/>
       <use xlink:href="#PingFangSC-Regular-189" transform="translate(150.59375 0)"/>
       <use xlink:href="#PingFangSC-Regular-4f" transform="translate(211.390625 0)"/>
       <use xlink:href="#PingFangSC-Regular-4f" transform="translate(234.890625 0)"/>
      </g>
     </g>
    </g>
    <g id="xtick_8">
     <g id="line2d_15">
      <path d="M 568.689632 312.268437 
L 568.689632 47.36 
" clip-path="url(#p0999d420a5)" style="fill: none; stroke: #e2e8f0; stroke-opacity: 0.6; stroke-width: 0.6; stroke-linecap: square"/>
     </g>
     <g id="line2d_16">
      <g>
       <use xlink:href="#mebfbe0068a" x="568.689632" y="312.268437" style="fill: #1e293b; stroke: #1e293b; stroke-width: 0.8"/>
      </g>
     </g>
     <g id="text_8">
      <!-- decode -->
      <g style="fill: #1e293b" transform="translate(544.785726 331.308437) scale(0.14 -0.14)">
       <defs>
        <path id="PingFangSC-Regular-46" d="M 1824 3398 
C 1331 3398 941 3226 659 2874 
C 397 2554 269 2144 269 1638 
C 269 1133 397 723 659 410 
C 934 77 1318 -90 1818 -90 
C 2227 -90 2554 19 2803 230 
C 3059 448 3219 774 3296 1197 
L 2784 1197 
C 2707 627 2381 339 1818 339 
C 1485 339 1229 461 1056 691 
C 877 922 794 1242 794 1645 
C 794 2048 883 2368 1062 2605 
C 1248 2848 1504 2970 1824 2970 
C 2086 2970 2298 2912 2464 2784 
C 2624 2656 2726 2464 2771 2208 
L 3277 2208 
C 3219 2611 3066 2912 2810 3110 
C 2560 3302 2234 3398 1824 3398 
z
" transform="scale(0.015625)"/>
        <path id="PingFangSC-Regular-52" d="M 1875 3398 
C 1376 3398 986 3232 691 2886 
C 410 2560 269 2150 269 1651 
C 269 1158 410 749 691 429 
C 986 83 1376 -90 1875 -90 
C 2368 -90 2765 83 3066 429 
C 3341 749 3482 1158 3482 1651 
C 3482 2150 3341 2560 3059 2886 
C 2765 3232 2368 3398 1875 3398 
z
M 1875 2970 
C 2221 2970 2496 2835 2701 2566 
C 2874 2323 2963 2022 2963 1651 
C 2963 1293 2874 986 2701 742 
C 2496 474 2221 339 1875 339 
C 1523 339 1248 474 1056 742 
C 877 986 794 1286 794 1651 
C 794 2022 877 2323 1056 2566 
C 1248 2835 1523 2970 1875 2970 
z
" transform="scale(0.015625)"/>
       </defs>
       <use xlink:href="#PingFangSC-Regular-47"/>
       <use xlink:href="#PingFangSC-Regular-48" transform="translate(58.59375 0)"/>
       <use xlink:href="#PingFangSC-Regular-46" transform="translate(114.09375 0)"/>
       <use xlink:href="#PingFangSC-Regular-52" transform="translate(168.796875 0)"/>
       <use xlink:href="#PingFangSC-Regular-47" transform="translate(227.390625 0)"/>
       <use xlink:href="#PingFangSC-Regular-48" transform="translate(285.984375 0)"/>
      </g>
     </g>
    </g>
   </g>
   <g id="matplotlib.axis_2">
    <g id="ytick_1">
     <g id="line2d_17">
      <path d="M 77.833125 288.545294 
L 663.84 288.545294 
" clip-path="url(#p0999d420a5)" style="fill: none; stroke: #e2e8f0; stroke-opacity: 0.6; stroke-width: 0.6; stroke-linecap: square"/>
     </g>
     <g id="line2d_18">
      <defs>
       <path id="m3c62bc7a6c" d="M 0 0 
L -3.5 0 
" style="stroke: #1e293b; stroke-width: 0.8"/>
      </defs>
      <g>
       <use xlink:href="#m3c62bc7a6c" x="77.833125" y="288.545294" style="fill: #1e293b; stroke: #1e293b; stroke-width: 0.8"/>
      </g>
     </g>
     <g id="text_9">
      <!-- 0 -->
      <g style="fill: #1e293b" transform="translate(62.433125 294.565294) scale(0.14 -0.14)">
       <defs>
        <path id="PingFangSC-Regular-13" d="M 1920 4659 
C 1370 4659 960 4422 685 3936 
C 442 3526 320 2976 320 2285 
C 320 1594 442 1043 685 634 
C 960 154 1370 -90 1920 -90 
C 2464 -90 2874 154 3155 634 
C 3398 1043 3520 1594 3520 2285 
C 3520 2976 3398 3526 3155 3936 
C 2874 4422 2464 4659 1920 4659 
z
M 1920 4211 
C 2330 4211 2624 3994 2803 3552 
C 2931 3245 3002 2822 3002 2285 
C 3002 1754 2931 1331 2803 1018 
C 2624 582 2330 358 1920 358 
C 1510 358 1216 582 1037 1018 
C 909 1331 845 1754 845 2285 
C 845 2822 909 3245 1037 3552 
C 1216 3994 1510 4211 1920 4211 
z
" transform="scale(0.015625)"/>
       </defs>
       <use xlink:href="#PingFangSC-Regular-13"/>
      </g>
     </g>
    </g>
    <g id="ytick_2">
     <g id="line2d_19">
      <path d="M 77.833125 252.886408 
L 663.84 252.886408 
" clip-path="url(#p0999d420a5)" style="fill: none; stroke: #e2e8f0; stroke-opacity: 0.6; stroke-width: 0.6; stroke-linecap: square"/>
     </g>
     <g id="line2d_20">
      <g>
       <use xlink:href="#m3c62bc7a6c" x="77.833125" y="252.886408" style="fill: #1e293b; stroke: #1e293b; stroke-width: 0.8"/>
      </g>
     </g>
     <g id="text_10">
      <!-- 250 -->
      <g style="fill: #1e293b" transform="translate(45.633125 258.906408) scale(0.14 -0.14)">
       <defs>
        <path id="PingFangSC-Regular-15" d="M 1984 4659 
C 1523 4659 1146 4506 864 4198 
C 582 3898 435 3488 435 2976 
L 960 2976 
C 966 3379 1062 3686 1242 3891 
C 1408 4109 1651 4211 1965 4211 
C 2259 4211 2496 4134 2662 3981 
C 2829 3827 2912 3616 2912 3334 
C 2912 3040 2790 2765 2560 2515 
C 2438 2387 2202 2202 1843 1946 
C 1357 1613 1030 1338 851 1133 
C 544 794 397 416 397 0 
L 3443 0 
L 3443 467 
L 1043 467 
C 1126 774 1459 1126 2042 1517 
C 2515 1837 2829 2086 2989 2253 
C 3283 2573 3437 2931 3437 3328 
C 3437 3725 3296 4051 3027 4294 
C 2752 4538 2406 4659 1984 4659 
z
" transform="scale(0.015625)"/>
        <path id="PingFangSC-Regular-18" d="M 672 4570 
L 429 2048 
L 928 2048 
C 1018 2227 1158 2368 1338 2458 
C 1510 2554 1702 2598 1920 2598 
C 2253 2598 2515 2502 2701 2298 
C 2893 2099 2995 1818 2995 1453 
C 2995 1133 2886 870 2682 666 
C 2470 461 2208 358 1888 358 
C 1606 358 1370 429 1190 563 
C 986 717 870 941 845 1229 
L 326 1229 
C 358 813 531 480 851 237 
C 1133 19 1478 -90 1882 -90 
C 2330 -90 2714 51 3021 326 
C 3347 621 3514 998 3514 1459 
C 3514 1952 3373 2336 3104 2618 
C 2835 2893 2483 3027 2048 3027 
C 1837 3027 1645 2995 1466 2918 
C 1267 2842 1101 2726 973 2573 
L 947 2573 
L 1101 4102 
L 3328 4102 
L 3328 4570 
L 672 4570 
z
" transform="scale(0.015625)"/>
       </defs>
       <use xlink:href="#PingFangSC-Regular-15"/>
       <use xlink:href="#PingFangSC-Regular-18" transform="translate(60 0)"/>
       <use xlink:href="#PingFangSC-Regular-13" transform="translate(120 0)"/>
      </g>
     </g>
    </g>
    <g id="ytick_3">
     <g id="line2d_21">
      <path d="M 77.833125 217.227522 
L 663.84 217.227522 
" clip-path="url(#p0999d420a5)" style="fill: none; stroke: #e2e8f0; stroke-opacity: 0.6; stroke-width: 0.6; stroke-linecap: square"/>
     </g>
     <g id="line2d_22">
      <g>
       <use xlink:href="#m3c62bc7a6c" x="77.833125" y="217.227522" style="fill: #1e293b; stroke: #1e293b; stroke-width: 0.8"/>
      </g>
     </g>
     <g id="text_11">
      <!-- 500 -->
      <g style="fill: #1e293b" transform="translate(45.633125 223.247522) scale(0.14 -0.14)">
       <use xlink:href="#PingFangSC-Regular-18"/>
       <use xlink:href="#PingFangSC-Regular-13" transform="translate(60 0)"/>
       <use xlink:href="#PingFangSC-Regular-13" transform="translate(120 0)"/>
      </g>
     </g>
    </g>
    <g id="ytick_4">
     <g id="line2d_23">
      <path d="M 77.833125 181.568636 
L 663.84 181.568636 
" clip-path="url(#p0999d420a5)" style="fill: none; stroke: #e2e8f0; stroke-opacity: 0.6; stroke-width: 0.6; stroke-linecap: square"/>
     </g>
     <g id="line2d_24">
      <g>
       <use xlink:href="#m3c62bc7a6c" x="77.833125" y="181.568636" style="fill: #1e293b; stroke: #1e293b; stroke-width: 0.8"/>
      </g>
     </g>
     <g id="text_12">
      <!-- 750 -->
      <g style="fill: #1e293b" transform="translate(46.374688 187.588636) scale(0.14 -0.14)">
       <defs>
        <path id="PingFangSC-Regular-1a" d="M 218 4570 
L 218 4090 
L 2682 4090 
L 979 0 
L 1536 0 
L 3219 4141 
L 3219 4570 
L 218 4570 
z
" transform="scale(0.015625)"/>
       </defs>
       <use xlink:href="#PingFangSC-Regular-1a"/>
       <use xlink:href="#PingFangSC-Regular-18" transform="translate(54.703125 0)"/>
       <use xlink:href="#PingFangSC-Regular-13" transform="translate(114.703125 0)"/>
      </g>
     </g>
    </g>
    <g id="ytick_5">
     <g id="line2d_25">
      <path d="M 77.833125 145.90975 
L 663.84 145.90975 
" clip-path="url(#p0999d420a5)" style="fill: none; stroke: #e2e8f0; stroke-opacity: 0.6; stroke-width: 0.6; stroke-linecap: square"/>
     </g>
     <g id="line2d_26">
      <g>
       <use xlink:href="#m3c62bc7a6c" x="77.833125" y="145.90975" style="fill: #1e293b; stroke: #1e293b; stroke-width: 0.8"/>
      </g>
     </g>
     <g id="text_13">
      <!-- 1000 -->
      <g style="fill: #1e293b" transform="translate(40.02 151.92975) scale(0.14 -0.14)">
       <defs>
        <path id="PingFangSC-Regular-14" d="M 1472 4570 
C 1318 4397 1139 4243 922 4102 
C 704 3974 486 3885 282 3827 
L 282 3302 
C 710 3430 1069 3635 1357 3930 
L 1357 0 
L 1882 0 
L 1882 4570 
L 1472 4570 
z
" transform="scale(0.015625)"/>
       </defs>
       <use xlink:href="#PingFangSC-Regular-14"/>
       <use xlink:href="#PingFangSC-Regular-13" transform="translate(40.09375 0)"/>
       <use xlink:href="#PingFangSC-Regular-13" transform="translate(100.09375 0)"/>
       <use xlink:href="#PingFangSC-Regular-13" transform="translate(160.09375 0)"/>
      </g>
     </g>
    </g>
    <g id="ytick_6">
     <g id="line2d_27">
      <path d="M 77.833125 110.250864 
L 663.84 110.250864 
" clip-path="url(#p0999d420a5)" style="fill: none; stroke: #e2e8f0; stroke-opacity: 0.6; stroke-width: 0.6; stroke-linecap: square"/>
     </g>
     <g id="line2d_28">
      <g>
       <use xlink:href="#m3c62bc7a6c" x="77.833125" y="110.250864" style="fill: #1e293b; stroke: #1e293b; stroke-width: 0.8"/>
      </g>
     </g>
     <g id="text_14">
      <!-- 1250 -->
      <g style="fill: #1e293b" transform="translate(40.02 116.270864) scale(0.14 -0.14)">
       <use xlink:href="#PingFangSC-Regular-14"/>
       <use xlink:href="#PingFangSC-Regular-15" transform="translate(40.09375 0)"/>
       <use xlink:href="#PingFangSC-Regular-18" transform="translate(100.09375 0)"/>
       <use xlink:href="#PingFangSC-Regular-13" transform="translate(160.09375 0)"/>
      </g>
     </g>
    </g>
    <g id="ytick_7">
     <g id="line2d_29">
      <path d="M 77.833125 74.591978 
L 663.84 74.591978 
" clip-path="url(#p0999d420a5)" style="fill: none; stroke: #e2e8f0; stroke-opacity: 0.6; stroke-width: 0.6; stroke-linecap: square"/>
     </g>
     <g id="line2d_30">
      <g>
       <use xlink:href="#m3c62bc7a6c" x="77.833125" y="74.591978" style="fill: #1e293b; stroke: #1e293b; stroke-width: 0.8"/>
      </g>
     </g>
     <g id="text_15">
      <!-- 1500 -->
      <g style="fill: #1e293b" transform="translate(40.02 80.611978) scale(0.14 -0.14)">
       <use xlink:href="#PingFangSC-Regular-14"/>
       <use xlink:href="#PingFangSC-Regular-18" transform="translate(40.09375 0)"/>
       <use xlink:href="#PingFangSC-Regular-13" transform="translate(100.09375 0)"/>
       <use xlink:href="#PingFangSC-Regular-13" transform="translate(160.09375 0)"/>
      </g>
     </g>
    </g>
    <g id="text_16">
     <!-- 时延（ms，$k=50$） -->
     <g style="fill: #1e293b" transform="translate(33.64 245.894219) rotate(-90) scale(0.14 -0.14)">
      <defs>
       <path id="PingFangSC-Regular-df8" d="M 2368 4749 
L 525 4749 
L 525 -122 
L 973 -122 
L 973 461 
L 1920 461 
L 1920 32 
L 2368 32 
L 2368 4749 
z
M 973 890 
L 973 2432 
L 1920 2432 
L 1920 890 
L 973 890 
z
M 973 2861 
L 973 4326 
L 1920 4326 
L 1920 2861 
L 973 2861 
z
M 3290 2842 
L 2912 2605 
C 3296 2016 3597 1478 3821 998 
L 4205 1267 
C 3994 1715 3686 2240 3290 2842 
z
M 4749 -576 
C 5146 -576 5344 -371 5344 32 
L 5344 3610 
L 6131 3610 
L 6131 4051 
L 5344 4051 
L 5344 5178 
L 4877 5178 
L 4877 4051 
L 2662 4051 
L 2662 3610 
L 4877 3610 
L 4877 147 
C 4877 -51 4781 -154 4595 -154 
C 4256 -154 3904 -141 3533 -128 
L 3629 -576 
L 4749 -576 
z
" transform="scale(0.015625)"/>
       <path id="PingFangSC-Regular-b4a" d="M 442 4877 
L 442 4454 
L 1683 4454 
C 1363 3917 1005 3418 608 2957 
L 608 2624 
L 1811 2624 
C 1773 1997 1632 1459 1402 998 
C 1171 1306 973 1690 794 2150 
L 403 2003 
C 608 1440 858 973 1152 602 
C 915 288 614 26 243 -186 
L 474 -589 
C 864 -358 1197 -70 1466 275 
C 1619 134 1798 13 1990 -77 
C 2630 -378 3667 -531 5107 -531 
L 6067 -531 
L 6157 -70 
C 5722 -96 5306 -109 4896 -109 
C 3699 -96 2822 26 2266 262 
C 2074 352 1888 480 1709 646 
C 2029 1216 2195 1920 2221 2752 
L 2221 3014 
L 1197 3014 
C 1517 3411 1843 3904 2189 4506 
L 2189 4877 
L 442 4877 
z
M 2854 3482 
L 2854 710 
L 5914 710 
L 5914 1146 
L 4582 1146 
L 4582 2694 
L 5696 2694 
L 5696 3117 
L 4582 3117 
L 4582 4435 
C 5043 4512 5459 4621 5818 4762 
L 5594 5152 
C 4800 4864 3795 4717 2586 4717 
L 2726 4301 
C 3232 4301 3706 4326 4141 4378 
L 4141 1146 
L 3296 1146 
L 3296 3482 
L 2854 3482 
z
" transform="scale(0.015625)"/>
       <path id="PingFangSC-Regular-481" d="M 5440 5293 
C 5158 4883 4941 4442 4781 3974 
C 4589 3424 4499 2867 4499 2298 
C 4499 1741 4589 1184 4781 634 
C 4941 173 5158 -269 5440 -685 
L 5888 -685 
C 5632 -256 5427 186 5280 640 
C 5088 1203 4998 1760 4998 2304 
C 4998 2854 5088 3405 5280 3968 
C 5427 4429 5632 4870 5888 5293 
L 5440 5293 
z
" transform="scale(0.015625)"/>
       <path id="PingFangSC-Regular-56" d="M 1568 3398 
C 1197 3398 890 3315 659 3149 
C 410 2982 288 2765 288 2483 
C 288 2202 410 1990 666 1837 
C 819 1734 1094 1638 1485 1542 
C 1843 1453 2080 1382 2189 1331 
C 2394 1229 2502 1088 2502 902 
C 2502 531 2202 339 1613 339 
C 1331 339 1120 390 979 493 
C 838 608 742 794 704 1056 
L 205 1056 
C 282 294 755 -90 1626 -90 
C 2560 -90 3027 256 3027 934 
C 3027 1222 2893 1446 2630 1613 
C 2458 1722 2176 1824 1779 1920 
C 1446 2010 1216 2080 1094 2138 
C 902 2234 813 2355 813 2496 
C 813 2643 883 2758 1024 2842 
C 1152 2931 1331 2970 1562 2970 
C 1824 2970 2029 2918 2170 2816 
C 2298 2726 2381 2573 2426 2368 
L 2925 2368 
C 2835 3059 2387 3398 1568 3398 
z
" transform="scale(0.015625)"/>
       <path id="PingFangSC-Regular-485" d="M 1190 762 
C 1062 762 966 730 890 653 
C 813 582 774 486 774 365 
C 774 256 813 160 890 83 
C 966 6 1056 -32 1165 -32 
C 1229 -32 1280 -19 1306 -6 
C 1306 -160 1254 -301 1165 -435 
C 1062 -563 928 -659 762 -717 
L 762 -1030 
C 1030 -960 1254 -819 1421 -614 
C 1587 -397 1670 -147 1670 134 
C 1670 320 1626 467 1542 582 
C 1453 704 1331 762 1190 762 
z
" transform="scale(0.015625)"/>
       <path id="DejaVuSans-Oblique-4e" d="M 1172 4863 
L 1747 4863 
L 1197 2028 
L 3169 3500 
L 3916 3500 
L 1716 1825 
L 3322 0 
L 2625 0 
L 1131 1709 
L 800 0 
L 225 0 
L 1172 4863 
z
" transform="scale(0.015625)"/>
       <path id="DejaVuSans-20" d="M 678 2906 
L 4684 2906 
L 4684 2381 
L 678 2381 
L 678 2906 
z
M 678 1631 
L 4684 1631 
L 4684 1100 
L 678 1100 
L 678 1631 
z
" transform="scale(0.015625)"/>
       <path id="DejaVuSans-18" d="M 691 4666 
L 3169 4666 
L 3169 4134 
L 1269 4134 
L 1269 2991 
Q 1406 3038 1543 3061 
Q 1681 3084 1819 3084 
Q 2600 3084 3056 2656 
Q 3513 2228 3513 1497 
Q 3513 744 3044 326 
Q 2575 -91 1722 -91 
Q 1428 -91 1123 -41 
Q 819 9 494 109 
L 494 744 
Q 775 591 1075 516 
Q 1375 441 1709 441 
Q 2250 441 2565 725 
Q 2881 1009 2881 1497 
Q 2881 1984 2565 2268 
Q 2250 2553 1709 2553 
Q 1456 2553 1204 2497 
Q 953 2441 691 2322 
L 691 4666 
z
" transform="scale(0.015625)"/>
       <path id="DejaVuSans-13" d="M 2034 4250 
Q 1547 4250 1301 3770 
Q 1056 3291 1056 2328 
Q 1056 1369 1301 889 
Q 1547 409 2034 409 
Q 2525 409 2770 889 
Q 3016 1369 3016 2328 
Q 3016 3291 2770 3770 
Q 2525 4250 2034 4250 
z
M 2034 4750 
Q 2819 4750 3233 4129 
Q 3647 3509 3647 2328 
Q 3647 1150 3233 529 
Q 2819 -91 2034 -91 
Q 1250 -91 836 529 
Q 422 1150 422 2328 
Q 422 3509 836 4129 
Q 1250 4750 2034 4750 
z
" transform="scale(0.015625)"/>
       <path id="PingFangSC-Regular-482" d="M 512 5293 
C 768 4870 966 4429 1120 3968 
C 1306 3405 1402 2854 1402 2304 
C 1402 1760 1306 1203 1120 640 
C 966 186 768 -256 512 -685 
L 960 -685 
C 1235 -269 1453 173 1619 634 
C 1805 1184 1901 1741 1901 2298 
C 1901 2867 1805 3424 1619 3974 
C 1453 4442 1235 4883 960 5293 
L 512 5293 
z
" transform="scale(0.015625)"/>
      </defs>
      <use xlink:href="#PingFangSC-Regular-df8" transform="translate(0 0.296875)"/>
      <use xlink:href="#PingFangSC-Regular-b4a" transform="translate(99.999908 0.296875)"/>
      <use xlink:href="#PingFangSC-Regular-481" transform="translate(199.999817 0.296875)"/>
      <use xlink:href="#PingFangSC-Regular-50" transform="translate(299.999725 0.296875)"/>
      <use xlink:href="#PingFangSC-Regular-56" transform="translate(385.499649 0.296875)"/>
      <use xlink:href="#PingFangSC-Regular-485" transform="translate(435.999603 0.296875)"/>
      <use xlink:href="#DejaVuSans-Oblique-4e" transform="translate(535.999512 0.296875)"/>
      <use xlink:href="#DejaVuSans-20" transform="translate(613.39209 0.296875)"/>
      <use xlink:href="#DejaVuSans-18" transform="translate(716.663574 0.296875)"/>
      <use xlink:href="#DejaVuSans-13" transform="translate(780.286621 0.296875)"/>
      <use xlink:href="#PingFangSC-Regular-482" transform="translate(843.909668 0.296875)"/>
     </g>
    </g>
   </g>
   <g id="patch_11">
    <path d="M 77.833125 312.268437 
L 77.833125 47.36 
" style="fill: none; stroke: #e2e8f0; stroke-width: 0.8; stroke-linejoin: miter; stroke-linecap: square"/>
   </g>
   <g id="patch_12">
    <path d="M 77.833125 312.268437 
L 663.84 312.268437 
" style="fill: none; stroke: #e2e8f0; stroke-width: 0.8; stroke-linejoin: miter; stroke-linecap: square"/>
   </g>
   <g id="text_17">
    <!-- 延迟分解：decode 是不可压缩的地板 -->
    <g style="fill: #1e293b" transform="translate(236.854062 35.36) scale(0.16 -0.16)">
     <defs>
      <path id="PingFangSC-Regular-1b34" d="M 5235 4544 
L 5235 3302 
L 3194 3302 
L 3194 4544 
L 5235 4544 
z
M 3187 2880 
L 5670 2880 
L 5670 4973 
L 2746 4973 
L 2746 3136 
C 2739 2163 2509 1376 2048 762 
L 2387 454 
C 2874 1133 3136 1946 3187 2880 
z
M 3904 2573 
L 3603 2278 
C 4461 1619 5139 998 5632 410 
L 5958 742 
C 5408 1350 4723 1958 3904 2573 
z
M 819 5126 
L 506 4826 
C 960 4461 1318 4122 1574 3808 
L 1907 4134 
C 1613 4467 1248 4794 819 5126 
z
M 4538 -525 
L 6003 -525 
L 6112 -64 
C 5946 -77 5702 -83 5395 -90 
C 5082 -96 4774 -102 4474 -102 
C 3981 -102 3565 -96 3232 -90 
C 2861 -77 2573 -26 2381 64 
C 2202 147 2042 282 1888 467 
C 1837 525 1786 576 1734 614 
L 1734 3008 
L 390 3008 
L 390 2586 
L 1306 2586 
L 1306 640 
C 1043 525 742 198 403 -339 
L 749 -653 
C 1101 -64 1350 230 1504 230 
C 1581 230 1664 179 1747 70 
C 1946 -160 2170 -320 2419 -397 
C 2675 -467 3002 -506 3411 -512 
C 3814 -518 4192 -525 4538 -525 
z
" transform="scale(0.015625)"/>
      <path id="PingFangSC-Regular-693" d="M 2310 5094 
C 2054 4608 1773 4192 1466 3834 
C 1114 3430 717 3104 282 2854 
L 531 2451 
C 1062 2810 1491 3174 1811 3546 
C 2112 3885 2413 4320 2714 4851 
L 2310 5094 
z
M 2522 2240 
C 2387 1638 2189 1152 1920 781 
C 1619 397 1171 45 582 -275 
L 877 -659 
C 1530 -294 2022 115 2349 576 
C 2624 986 2835 1542 2989 2240 
L 4582 2240 
C 4550 1242 4480 595 4365 288 
C 4256 -6 4032 -154 3686 -154 
C 3354 -154 3002 -147 2630 -134 
L 2758 -589 
L 3923 -589 
C 4243 -570 4474 -467 4614 -282 
C 4762 -90 4864 256 4928 742 
C 4992 1235 5030 1882 5050 2682 
L 1229 2682 
L 1229 2240 
L 2522 2240 
z
M 4115 5178 
L 3718 4954 
C 4109 3942 4800 3117 5792 2477 
L 6099 2842 
C 5146 3411 4486 4192 4115 5178 
z
" transform="scale(0.015625)"/>
      <path id="PingFangSC-Regular-1974" d="M 3802 1792 
L 4557 1792 
L 4557 1011 
L 3162 1011 
L 3162 595 
L 4557 595 
L 4557 -659 
L 5005 -659 
L 5005 595 
L 6093 595 
L 6093 1011 
L 5005 1011 
L 5005 1792 
L 5958 1792 
L 5958 2208 
L 5005 2208 
L 5005 2803 
L 4557 2803 
L 4557 2208 
L 3968 2208 
C 4006 2355 4045 2515 4083 2688 
L 3699 2758 
C 3603 2246 3418 1843 3136 1536 
L 3405 1210 
C 3558 1376 3686 1568 3802 1792 
z
M 4064 4435 
C 4019 4224 3949 4038 3853 3872 
C 3712 3642 3494 3437 3206 3270 
L 3475 2918 
C 3802 3136 4051 3386 4218 3654 
C 4339 3878 4435 4141 4499 4435 
L 5440 4435 
C 5427 3974 5402 3686 5363 3578 
C 5318 3469 5210 3411 5030 3405 
C 4883 3411 4698 3424 4480 3437 
L 4589 3053 
C 4794 3040 4973 3027 5126 3027 
C 5402 3027 5594 3117 5709 3283 
C 5824 3456 5882 3974 5882 4845 
L 3213 4845 
L 3213 4435 
L 4064 4435 
z
M 1043 2125 
L 1626 2125 
L 1626 1286 
L 1037 1286 
C 1037 1338 1043 1382 1043 1434 
L 1043 2125 
z
M 1018 896 
L 1626 896 
L 1626 -550 
L 1997 -550 
L 1997 896 
L 2592 896 
L 2592 6 
C 2592 -147 2522 -230 2381 -230 
C 2278 -230 2163 -218 2042 -205 
L 2150 -589 
L 2515 -589 
C 2822 -589 2982 -435 2982 -134 
L 2982 3706 
L 2214 3706 
C 2355 3904 2502 4147 2643 4429 
L 2643 4749 
L 1504 4749 
C 1555 4877 1613 5018 1664 5158 
L 1248 5254 
C 998 4589 685 4051 301 3642 
L 582 3302 
C 602 3328 621 3347 646 3373 
L 646 1408 
C 640 678 512 70 269 -403 
L 582 -691 
C 813 -269 960 262 1018 896 
z
M 1747 3706 
L 915 3706 
C 1056 3910 1197 4128 1325 4371 
L 2157 4371 
C 2016 4122 1882 3898 1747 3706 
z
M 2592 1286 
L 1997 1286 
L 1997 2125 
L 2592 2125 
L 2592 1286 
z
M 2592 2509 
L 1997 2509 
L 1997 3309 
L 2592 3309 
L 2592 2509 
z
M 1626 3309 
L 1626 2509 
L 1043 2509 
L 1043 3309 
L 1626 3309 
z
" transform="scale(0.015625)"/>
      <path id="PingFangSC-Regular-493" d="M 1600 3898 
C 1485 3898 1395 3859 1318 3776 
C 1242 3706 1210 3616 1210 3501 
C 1210 3392 1242 3302 1318 3226 
C 1395 3149 1485 3110 1600 3110 
C 1709 3110 1805 3149 1882 3226 
C 1958 3302 1997 3392 1997 3501 
C 1997 3616 1958 3706 1882 3776 
C 1805 3859 1709 3898 1600 3898 
z
M 1600 1555 
C 1485 1555 1395 1517 1318 1434 
C 1242 1363 1210 1274 1210 1158 
C 1210 1050 1242 960 1318 883 
C 1395 806 1485 768 1600 768 
C 1709 768 1805 806 1882 883 
C 1958 960 1997 1050 1997 1158 
C 1997 1274 1958 1363 1882 1434 
C 1805 1517 1709 1555 1600 1555 
z
" transform="scale(0.015625)"/>
      <path id="PingFangSC-Regular-3" transform="scale(0.015625)"/>
      <path id="PingFangSC-Regular-e0e" d="M 1280 5011 
L 1280 2790 
L 5171 2790 
L 5171 5011 
L 1280 5011 
z
M 4717 3181 
L 1734 3181 
L 1734 3706 
L 4717 3706 
L 4717 3181 
z
M 1734 4083 
L 1734 4614 
L 4717 4614 
L 4717 4083 
L 1734 4083 
z
M 3040 1894 
L 3040 -19 
C 2906 6 2790 38 2688 70 
C 2355 192 2048 474 1779 922 
C 1862 1133 1933 1357 1997 1594 
L 1562 1670 
C 1350 870 947 230 358 -243 
L 659 -621 
C 1043 -307 1363 83 1613 557 
C 1869 134 2163 -147 2490 -294 
C 2867 -454 3584 -538 4640 -538 
C 5005 -544 5414 -550 5875 -550 
L 6003 -115 
C 5626 -128 5158 -134 4608 -134 
C 4186 -134 3814 -115 3507 -90 
L 3507 762 
L 5350 762 
L 5350 1171 
L 3507 1171 
L 3507 1894 
L 6035 1894 
L 6035 2317 
L 371 2317 
L 371 1894 
L 3040 1894 
z
" transform="scale(0.015625)"/>
      <path id="PingFangSC-Regular-4e7" d="M 480 4896 
L 480 4442 
L 3322 4442 
C 2758 3251 1747 2240 301 1408 
L 602 1005 
C 1574 1587 2362 2253 2963 3002 
L 2963 -653 
L 3437 -653 
L 3437 3680 
C 3584 3923 3718 4179 3834 4442 
L 5920 4442 
L 5920 4896 
L 480 4896 
z
M 4243 3174 
L 3910 2861 
C 4685 2227 5293 1632 5741 1069 
L 6093 1427 
C 5594 2010 4979 2592 4243 3174 
z
" transform="scale(0.015625)"/>
      <path id="PingFangSC-Regular-762" d="M 352 4845 
L 352 4397 
L 4755 4397 
L 4755 160 
C 4755 -58 4646 -173 4442 -173 
C 4122 -173 3782 -160 3430 -147 
L 3533 -595 
L 4602 -595 
C 5011 -595 5216 -378 5216 45 
L 5216 4397 
L 6061 4397 
L 6061 4845 
L 352 4845 
z
M 3584 3418 
L 1094 3418 
L 1094 506 
L 1542 506 
L 1542 1069 
L 3584 1069 
L 3584 3418 
z
M 1542 1491 
L 1542 3002 
L 3142 3002 
L 3142 1491 
L 1542 1491 
z
" transform="scale(0.015625)"/>
      <path id="PingFangSC-Regular-734" d="M 1690 2778 
L 1690 2323 
L 3456 2323 
L 3456 77 
L 1344 77 
L 1344 -371 
L 6106 -371 
L 6106 77 
L 3917 77 
L 3917 2323 
L 5754 2323 
L 5754 2778 
L 3917 2778 
L 3917 4090 
L 3456 4090 
L 3456 2778 
L 1690 2778 
z
M 4774 1965 
L 4416 1741 
C 4781 1235 5069 774 5286 352 
L 5658 614 
C 5453 998 5158 1453 4774 1965 
z
M 5946 4960 
L 813 4960 
L 813 2931 
C 800 1530 602 435 224 -346 
L 576 -659 
C 1018 237 1248 1434 1274 2931 
L 1274 4512 
L 5946 4512 
L 5946 4960 
z
" transform="scale(0.015625)"/>
      <path id="PingFangSC-Regular-15bd" d="M 5997 4717 
L 4448 4717 
C 4378 4922 4307 5107 4230 5274 
L 3744 5197 
C 3827 5056 3904 4896 3974 4717 
L 2374 4717 
L 2374 3757 
L 2810 3757 
L 2810 4333 
L 5562 4333 
L 5562 3853 
L 5997 3853 
L 5997 4717 
z
M 2797 2240 
L 2797 -563 
L 3213 -563 
L 3213 2957 
C 3341 3226 3450 3507 3539 3802 
L 3155 3981 
C 2950 3277 2618 2650 2170 2099 
L 2317 1626 
C 2490 1818 2650 2022 2797 2240 
z
M 3718 3680 
L 3718 3270 
L 4608 3270 
L 4486 2675 
L 3789 2675 
L 3789 -570 
L 4198 -570 
L 4198 -275 
L 5414 -275 
L 5414 -570 
L 5824 -570 
L 5824 2675 
L 4890 2675 
L 5024 3270 
L 5901 3270 
L 5901 3680 
L 3718 3680 
z
M 4198 115 
L 4198 1037 
L 5414 1037 
L 5414 115 
L 4198 115 
z
M 4198 1421 
L 4198 2278 
L 5414 2278 
L 5414 1421 
L 4198 1421 
z
M 2323 614 
C 1766 378 1114 192 371 51 
L 429 -410 
C 1133 -262 1766 -70 2323 173 
L 2323 614 
z
M 1299 5248 
C 1069 4493 800 3814 493 3226 
C 435 3136 371 3078 294 3040 
L 410 2618 
C 742 2669 1075 2726 1408 2790 
C 1088 2163 813 1722 589 1466 
C 531 1414 461 1370 378 1331 
L 499 909 
C 1024 986 1568 1146 2138 1376 
L 2138 1805 
C 1773 1645 1408 1517 1050 1427 
C 1389 1888 1818 2656 2336 3731 
L 1926 3885 
C 1818 3648 1715 3424 1619 3219 
C 1350 3162 1088 3117 832 3078 
C 1139 3578 1440 4243 1741 5075 
L 1299 5248 
z
" transform="scale(0.015625)"/>
      <path id="PingFangSC-Regular-1331" d="M 2586 4122 
L 1555 4122 
C 1683 4442 1779 4794 1856 5171 
L 1395 5235 
C 1338 4851 1248 4480 1120 4122 
L 525 4122 
L 525 -429 
L 973 -429 
L 973 122 
L 2138 122 
L 2138 -243 
L 2586 -243 
L 2586 4122 
z
M 973 550 
L 973 1952 
L 2138 1952 
L 2138 550 
L 973 550 
z
M 973 2368 
L 973 3686 
L 2138 3686 
L 2138 2368 
L 973 2368 
z
M 3699 2637 
L 3328 2406 
C 3770 1882 4122 1408 4384 986 
L 4749 1242 
C 4506 1638 4160 2106 3699 2637 
z
M 5894 4115 
L 3853 4115 
C 3968 4448 4058 4806 4134 5184 
L 3680 5242 
C 3514 4333 3213 3565 2765 2938 
L 3040 2573 
C 3290 2899 3501 3264 3680 3667 
L 5440 3667 
C 5427 1824 5402 717 5363 358 
C 5312 32 5139 -134 4838 -134 
C 4640 -134 4410 -128 4141 -115 
L 4250 -538 
C 4557 -550 4774 -563 4902 -563 
C 5440 -563 5734 -314 5798 173 
C 5862 672 5894 1990 5894 4115 
z
" transform="scale(0.015625)"/>
      <path id="PingFangSC-Regular-8c8" d="M 5907 3994 
L 4531 3571 
L 4531 5229 
L 4083 5229 
L 4083 3430 
L 3149 3142 
L 3149 4576 
L 2701 4576 
L 2701 3002 
L 2163 2835 
L 2163 2387 
L 2701 2554 
L 2701 115 
C 2701 -307 2912 -525 3341 -525 
L 5363 -525 
C 5600 -525 5773 -461 5882 -339 
C 6010 -198 6093 192 6138 838 
L 5709 973 
C 5683 454 5632 141 5562 38 
C 5510 -45 5414 -90 5280 -90 
L 3482 -90 
C 3258 -90 3149 13 3149 205 
L 3149 2688 
L 4083 2970 
L 4083 685 
L 4531 685 
L 4531 3104 
L 5466 3386 
C 5459 2515 5440 2010 5408 1875 
C 5370 1734 5261 1664 5088 1664 
C 5011 1664 4922 1670 4826 1677 
L 4954 1222 
L 4992 1222 
C 5472 1222 5747 1363 5811 1632 
C 5875 1914 5907 2701 5907 3994 
z
M 2246 1274 
C 2003 1158 1747 1050 1491 954 
L 1491 3078 
L 2157 3078 
L 2157 3526 
L 1491 3526 
L 1491 5178 
L 1037 5178 
L 1037 3526 
L 307 3526 
L 307 3078 
L 1037 3078 
L 1037 800 
C 768 723 499 653 230 595 
L 346 134 
C 1024 314 1658 544 2246 819 
L 2246 1274 
z
" transform="scale(0.015625)"/>
      <path id="PingFangSC-Regular-e83" d="M 346 3987 
L 346 3539 
L 1248 3539 
C 1043 2733 710 2016 237 1382 
L 435 883 
C 768 1395 1043 1965 1254 2592 
L 1254 -608 
L 1722 -608 
L 1722 2765 
C 1888 2522 2080 2202 2310 1805 
L 2573 2195 
C 2285 2566 2003 2906 1722 3206 
L 1722 3539 
L 2483 3539 
L 2483 3987 
L 1722 3987 
L 1722 5222 
L 1254 5222 
L 1254 3987 
L 346 3987 
z
M 5683 5178 
C 4826 4902 3859 4755 2790 4736 
L 2790 2272 
C 2752 1178 2528 320 2118 -294 
L 2451 -640 
C 2944 83 3206 1056 3238 2272 
L 3238 2925 
L 3526 2925 
C 3654 2099 3930 1382 4365 768 
C 4006 371 3558 13 3008 -294 
L 3309 -646 
C 3834 -339 4282 13 4646 410 
C 4992 13 5421 -333 5933 -614 
L 6170 -205 
C 5683 64 5274 390 4941 768 
C 5427 1414 5702 2170 5766 3027 
L 5766 3373 
L 3238 3373 
L 3238 4346 
C 4218 4384 5107 4518 5914 4749 
L 5683 5178 
z
M 4653 1133 
C 4288 1645 4051 2246 3936 2925 
L 5338 2925 
C 5248 2259 5024 1664 4653 1133 
z
" transform="scale(0.015625)"/>
     </defs>
     <use xlink:href="#PingFangSC-Regular-b4a"/>
     <use xlink:href="#PingFangSC-Regular-1b34" transform="translate(100 0)"/>
     <use xlink:href="#PingFangSC-Regular-693" transform="translate(200 0)"/>
     <use xlink:href="#PingFangSC-Regular-1974" transform="translate(300 0)"/>
     <use xlink:href="#PingFangSC-Regular-493" transform="translate(400 0)"/>
     <use xlink:href="#PingFangSC-Regular-47" transform="translate(500 0)"/>
     <use xlink:href="#PingFangSC-Regular-48" transform="translate(558.59375 0)"/>
     <use xlink:href="#PingFangSC-Regular-46" transform="translate(614.09375 0)"/>
     <use xlink:href="#PingFangSC-Regular-52" transform="translate(668.796875 0)"/>
     <use xlink:href="#PingFangSC-Regular-47" transform="translate(727.390625 0)"/>
     <use xlink:href="#PingFangSC-Regular-48" transform="translate(785.984375 0)"/>
     <use xlink:href="#PingFangSC-Regular-3" transform="translate(841.484375 0)"/>
     <use xlink:href="#PingFangSC-Regular-e0e" transform="translate(874.78125 0)"/>
     <use xlink:href="#PingFangSC-Regular-4e7" transform="translate(974.78125 0)"/>
     <use xlink:href="#PingFangSC-Regular-762" transform="translate(1074.78125 0)"/>
     <use xlink:href="#PingFangSC-Regular-734" transform="translate(1174.78125 0)"/>
     <use xlink:href="#PingFangSC-Regular-15bd" transform="translate(1274.78125 0)"/>
     <use xlink:href="#PingFangSC-Regular-1331" transform="translate(1374.78125 0)"/>
     <use xlink:href="#PingFangSC-Regular-8c8" transform="translate(1474.78125 0)"/>
     <use xlink:href="#PingFangSC-Regular-e83" transform="translate(1574.78125 0)"/>
    </g>
   </g>
  </g>
 </g>
 <defs>
  <clipPath id="p0999d420a5">
   <rect x="77.833125" y="47.36" width="586.006875" height="264.908437"/>
  </clipPath>
 </defs>
</svg>
