<?xml version="1.0" encoding="utf-8" standalone="no"?>
<!DOCTYPE svg PUBLIC "-//W3C//DTD SVG 1.1//EN"
  "http://www.w3.org/Graphics/SVG/1.1/DTD/svg11.dtd">
<svg xmlns:xlink="http://www.w3.org/1999/xlink" width="576pt" height="324pt" viewBox="0 0 576 324" xmlns="http://www.w3.org/2000/svg" version="1.1">
 <metadata>
  <rdf:RDF xmlns:dc="http://purl.org/dc/elements/1.1/" xmlns:cc="http://creativecommons.org/ns#" xmlns:rdf="http://www.w3.org/1999/02/22-rdf-syntax-ns#">
   <cc:Work>
    <dc:type rdf:resource="http://purl.org/dc/dcmitype/StillImage"/>
    <dc:date>2026-10-09T08:41:34.044443</dc:date>
    <dc:format>image/svg+xml</dc:format>
    <dc:creator>
     <cc:Agent>
      <dc:title>Matplotlib v3.11.2, https://matplotlib.org/</dc:title>
     </cc:Agent>
    </dc:creator>
   </cc:Work>
  </rdf:RDF>
 </metadata>
 <defs>
  <style type="text/css">*{stroke-linejoin: round; stroke-linecap: butt}</style>
 </defs>
 <g id="figure_1">
  <g id="patch_1">
   <path d="M 0 324 
L 576 324 
L 576 0 
L 0 0 
z
" style="fill: #ffffff"/>
  </g>
  <g id="axes_1">
   <g id="patch_2">
    <path d="M 66.770313 255.806208 
L 523.935313 255.806208 
L 523.935313 37 
L 66.770313 37 
z
" style="fill: #ffffff"/>
   </g>
   <g id="matplotlib.axis_1">
    <g id="xtick_1">
     <g id="line2d_1">
      <path d="M 104.999586 255.806208 
L 104.999586 37 
" clip-path="url(#pd6e42b8974)" style="fill: none; stroke-dasharray: 2.96,1.28; stroke-dashoffset: 0; stroke: #f1f3f5; stroke-width: 0.8"/>
     </g>
     <g id="line2d_2">
      <defs>
       <path id="m52ba6824c8" d="M 0 0 
L 0 3.5 
" style="stroke: #6b7280; stroke-width: 0.8"/>
      </defs>
      <g>
       <use xlink:href="#m52ba6824c8" x="104.999586" y="255.806208" style="fill: #6b7280; stroke: #6b7280; stroke-width: 0.8"/>
      </g>
     </g>
     <g id="text_1">
      <!-- 0 -->
      <g style="fill: #6b7280" transform="translate(101.699586 272.266208) scale(0.11 -0.11)">
       <defs>
        <path id="PingFangSC-Regular-13" d="M 1920 4659 
C 1370 4659 960 4422 685 3936 
C 442 3526 320 2976 320 2285 
C 320 1594 442 1043 685 634 
C 960 154 1370 -90 1920 -90 
C 2464 -90 2874 154 3155 634 
C 3398 1043 3520 1594 3520 2285 
C 3520 2976 3398 3526 3155 3936 
C 2874 4422 2464 4659 1920 4659 
z
M 1920 4211 
C 2330 4211 2624 3994 2803 3552 
C 2931 3245 3002 2822 3002 2285 
C 3002 1754 2931 1331 2803 1018 
C 2624 582 2330 358 1920 358 
C 1510 358 1216 582 1037 1018 
C 909 1331 845 1754 845 2285 
C 845 2822 909 3245 1037 3552 
C 1216 3994 1510 4211 1920 4211 
z
" transform="scale(0.015625)"/>
       </defs>
       <use xlink:href="#PingFangSC-Regular-13"/>
      </g>
     </g>
    </g>
    <g id="xtick_2">
     <g id="line2d_3">
      <path d="M 168.450661 255.806208 
L 168.450661 37 
" clip-path="url(#pd6e42b8974)" style="fill: none; stroke-dasharray: 2.96,1.28; stroke-dashoffset: 0; stroke: #f1f3f5; stroke-width: 0.8"/>
     </g>
     <g id="line2d_4">
      <g>
       <use xlink:href="#m52ba6824c8" x="168.450661" y="255.806208" style="fill: #6b7280; stroke: #6b7280; stroke-width: 0.8"/>
      </g>
     </g>
     <g id="text_2">
      <!-- 1 -->
      <g style="fill: #6b7280" transform="translate(166.245505 272.266208) scale(0.11 -0.11)">
       <defs>
        <path id="PingFangSC-Regular-14" d="M 1472 4570 
C 1318 4397 1139 4243 922 4102 
C 704 3974 486 3885 282 3827 
L 282 3302 
C 710 3430 1069 3635 1357 3930 
L 1357 0 
L 1882 0 
L 1882 4570 
L 1472 4570 
z
" transform="scale(0.015625)"/>
       </defs>
       <use xlink:href="#PingFangSC-Regular-14"/>
      </g>
     </g>
    </g>
    <g id="xtick_3">
     <g id="line2d_5">
      <path d="M 231.901737 255.806208 
L 231.901737 37 
" clip-path="url(#pd6e42b8974)" style="fill: none; stroke-dasharray: 2.96,1.28; stroke-dashoffset: 0; stroke: #f1f3f5; stroke-width: 0.8"/>
     </g>
     <g id="line2d_6">
      <g>
       <use xlink:href="#m52ba6824c8" x="231.901737" y="255.806208" style="fill: #6b7280; stroke: #6b7280; stroke-width: 0.8"/>
      </g>
     </g>
     <g id="text_3">
      <!-- 2 -->
      <g style="fill: #6b7280" transform="translate(228.601737 272.266208) scale(0.11 -0.11)">
       <defs>
        <path id="PingFangSC-Regular-15" d="M 1984 4659 
C 1523 4659 1146 4506 864 4198 
C 582 3898 435 3488 435 2976 
L 960 2976 
C 966 3379 1062 3686 1242 3891 
C 1408 4109 1651 4211 1965 4211 
C 2259 4211 2496 4134 2662 3981 
C 2829 3827 2912 3616 2912 3334 
C 2912 3040 2790 2765 2560 2515 
C 2438 2387 2202 2202 1843 1946 
C 1357 1613 1030 1338 851 1133 
C 544 794 397 416 397 0 
L 3443 0 
L 3443 467 
L 1043 467 
C 1126 774 1459 1126 2042 1517 
C 2515 1837 2829 2086 2989 2253 
C 3283 2573 3437 2931 3437 3328 
C 3437 3725 3296 4051 3027 4294 
C 2752 4538 2406 4659 1984 4659 
z
" transform="scale(0.015625)"/>
       </defs>
       <use xlink:href="#PingFangSC-Regular-15"/>
      </g>
     </g>
    </g>
    <g id="xtick_4">
     <g id="line2d_7">
      <path d="M 295.352813 255.806208 
L 295.352813 37 
" clip-path="url(#pd6e42b8974)" style="fill: none; stroke-dasharray: 2.96,1.28; stroke-dashoffset: 0; stroke: #f1f3f5; stroke-width: 0.8"/>
     </g>
     <g id="line2d_8">
      <g>
       <use xlink:href="#m52ba6824c8" x="295.352813" y="255.806208" style="fill: #6b7280; stroke: #6b7280; stroke-width: 0.8"/>
      </g>
     </g>
     <g id="text_4">
      <!-- 3 -->
      <g style="fill: #6b7280" transform="translate(292.052813 272.266208) scale(0.11 -0.11)">
       <defs>
        <path id="PingFangSC-Regular-16" d="M 1965 4659 
C 1530 4659 1178 4538 909 4288 
C 627 4038 461 3693 422 3251 
L 941 3251 
C 973 3558 1075 3795 1254 3962 
C 1427 4128 1664 4205 1971 4205 
C 2266 4205 2502 4134 2669 3981 
C 2822 3840 2906 3642 2906 3386 
C 2906 3130 2822 2931 2662 2790 
C 2502 2656 2272 2586 1965 2586 
L 1613 2586 
L 1613 2176 
L 1984 2176 
C 2304 2176 2547 2106 2726 1952 
C 2906 1798 2995 1587 2995 1312 
C 2995 1043 2899 819 2720 640 
C 2522 454 2259 358 1933 358 
C 1645 358 1408 442 1216 595 
C 992 781 870 1056 858 1414 
L 326 1414 
C 365 902 544 512 870 243 
C 1146 26 1498 -90 1933 -90 
C 2406 -90 2790 45 3085 314 
C 3373 576 3520 915 3520 1331 
C 3520 1600 3443 1824 3290 2003 
C 3149 2182 2944 2310 2675 2394 
C 3174 2560 3424 2906 3424 3418 
C 3424 3802 3290 4102 3027 4326 
C 2758 4550 2400 4659 1965 4659 
z
" transform="scale(0.015625)"/>
       </defs>
       <use xlink:href="#PingFangSC-Regular-16"/>
      </g>
     </g>
    </g>
    <g id="xtick_5">
     <g id="line2d_9">
      <path d="M 358.803888 255.806208 
L 358.803888 37 
" clip-path="url(#pd6e42b8974)" style="fill: none; stroke-dasharray: 2.96,1.28; stroke-dashoffset: 0; stroke: #f1f3f5; stroke-width: 0.8"/>
     </g>
     <g id="line2d_10">
      <g>
       <use xlink:href="#m52ba6824c8" x="358.803888" y="255.806208" style="fill: #6b7280; stroke: #6b7280; stroke-width: 0.8"/>
      </g>
     </g>
     <g id="text_5">
      <!-- 4 -->
      <g style="fill: #6b7280" transform="translate(355.503888 272.266208) scale(0.11 -0.11)">
       <defs>
        <path id="PingFangSC-Regular-17" d="M 2458 4570 
L 154 1536 
L 154 1037 
L 2451 1037 
L 2451 0 
L 2950 0 
L 2950 1037 
L 3693 1037 
L 3693 1466 
L 2950 1466 
L 2950 4570 
L 2458 4570 
z
M 2432 3885 
L 2451 3885 
L 2451 1466 
L 595 1466 
L 2432 3885 
z
" transform="scale(0.015625)"/>
       </defs>
       <use xlink:href="#PingFangSC-Regular-17"/>
      </g>
     </g>
    </g>
    <g id="xtick_6">
     <g id="line2d_11">
      <path d="M 422.254964 255.806208 
L 422.254964 37 
" clip-path="url(#pd6e42b8974)" style="fill: none; stroke-dasharray: 2.96,1.28; stroke-dashoffset: 0; stroke: #f1f3f5; stroke-width: 0.8"/>
     </g>
     <g id="line2d_12">
      <g>
       <use xlink:href="#m52ba6824c8" x="422.254964" y="255.806208" style="fill: #6b7280; stroke: #6b7280; stroke-width: 0.8"/>
      </g>
     </g>
     <g id="text_6">
      <!-- 5 -->
      <g style="fill: #6b7280" transform="translate(418.954964 272.266208) scale(0.11 -0.11)">
       <defs>
        <path id="PingFangSC-Regular-18" d="M 672 4570 
L 429 2048 
L 928 2048 
C 1018 2227 1158 2368 1338 2458 
C 1510 2554 1702 2598 1920 2598 
C 2253 2598 2515 2502 2701 2298 
C 2893 2099 2995 1818 2995 1453 
C 2995 1133 2886 870 2682 666 
C 2470 461 2208 358 1888 358 
C 1606 358 1370 429 1190 563 
C 986 717 870 941 845 1229 
L 326 1229 
C 358 813 531 480 851 237 
C 1133 19 1478 -90 1882 -90 
C 2330 -90 2714 51 3021 326 
C 3347 621 3514 998 3514 1459 
C 3514 1952 3373 2336 3104 2618 
C 2835 2893 2483 3027 2048 3027 
C 1837 3027 1645 2995 1466 2918 
C 1267 2842 1101 2726 973 2573 
L 947 2573 
L 1101 4102 
L 3328 4102 
L 3328 4570 
L 672 4570 
z
" transform="scale(0.015625)"/>
       </defs>
       <use xlink:href="#PingFangSC-Regular-18"/>
      </g>
     </g>
    </g>
    <g id="xtick_7">
     <g id="line2d_13">
      <path d="M 485.706039 255.806208 
L 485.706039 37 
" clip-path="url(#pd6e42b8974)" style="fill: none; stroke-dasharray: 2.96,1.28; stroke-dashoffset: 0; stroke: #f1f3f5; stroke-width: 0.8"/>
     </g>
     <g id="line2d_14">
      <g>
       <use xlink:href="#m52ba6824c8" x="485.706039" y="255.806208" style="fill: #6b7280; stroke: #6b7280; stroke-width: 0.8"/>
      </g>
     </g>
     <g id="text_7">
      <!-- 6 -->
      <g style="fill: #6b7280" transform="translate(482.406039 272.266208) scale(0.11 -0.11)">
       <defs>
        <path id="PingFangSC-Regular-19" d="M 1984 4659 
C 1466 4659 1056 4422 755 3942 
C 467 3488 326 2893 326 2163 
C 326 1466 454 922 723 531 
C 1005 122 1421 -90 1978 -90 
C 2426 -90 2790 64 3085 358 
C 3373 653 3520 1030 3520 1478 
C 3520 1926 3386 2285 3123 2566 
C 2854 2848 2502 2989 2067 2989 
C 1798 2989 1562 2925 1357 2790 
C 1139 2662 979 2477 864 2240 
L 838 2240 
C 832 2323 832 2381 832 2406 
C 832 2925 928 3354 1133 3686 
C 1338 4045 1619 4218 1978 4218 
C 2509 4218 2822 3962 2925 3437 
L 3443 3437 
C 3315 4256 2829 4659 1984 4659 
z
M 1965 2554 
C 2278 2554 2528 2458 2720 2253 
C 2906 2061 3002 1805 3002 1478 
C 3002 1152 2906 883 2714 666 
C 2522 461 2272 352 1965 352 
C 1645 352 1395 461 1203 678 
C 1011 883 922 1146 922 1466 
C 922 1786 1018 2042 1216 2246 
C 1414 2451 1664 2554 1965 2554 
z
" transform="scale(0.015625)"/>
       </defs>
       <use xlink:href="#PingFangSC-Regular-19"/>
      </g>
     </g>
    </g>
    <g id="text_8">
     <!-- 档位序号（25/50/100/200/300/500/800 req/s） -->
     <g style="fill: #4b5563" transform="translate(157.08375 288.126208) scale(0.12 -0.12)">
      <defs>
       <path id="PingFangSC-Regular-ee9" d="M 2643 3008 
L 2643 2560 
L 5395 2560 
L 5395 1549 
L 2803 1549 
L 2803 1114 
L 5395 1114 
L 5395 77 
L 2528 77 
L 2528 -371 
L 5395 -371 
L 5395 -640 
L 5856 -640 
L 5856 3008 
L 4538 3008 
L 4538 5229 
L 4070 5229 
L 4070 3008 
L 2643 3008 
z
M 5626 4902 
C 5459 4454 5229 4000 4947 3539 
L 5344 3334 
C 5626 3782 5856 4237 6035 4710 
L 5626 4902 
z
M 2963 4858 
L 2560 4659 
C 2790 4275 3014 3840 3219 3347 
L 3616 3546 
C 3411 4019 3194 4461 2963 4858 
z
M 1702 2650 
C 1882 2413 2086 2099 2330 1709 
L 2592 2093 
C 2291 2490 1997 2848 1702 3162 
L 1702 3533 
L 2464 3533 
L 2464 3974 
L 1702 3974 
L 1702 5222 
L 1235 5222 
L 1235 3974 
L 365 3974 
L 365 3533 
L 1229 3533 
C 1030 2746 698 2042 224 1421 
L 422 928 
C 755 1427 1024 1978 1235 2592 
L 1235 -614 
L 1702 -614 
L 1702 2650 
z
" transform="scale(0.015625)"/>
       <path id="PingFangSC-Regular-596" d="M 1722 5267 
C 1408 4275 909 3398 230 2630 
L 378 2138 
C 627 2400 858 2675 1069 2957 
L 1069 -653 
L 1530 -653 
L 1530 3661 
C 1779 4102 1984 4570 2150 5069 
L 1722 5267 
z
M 2118 4198 
L 2118 3757 
L 5971 3757 
L 5971 4198 
L 4301 4198 
C 4211 4582 4115 4922 4013 5216 
L 3526 5133 
C 3642 4851 3750 4538 3840 4198 
L 2118 4198 
z
M 2010 115 
L 2010 -339 
L 6138 -339 
L 6138 115 
L 4685 115 
C 5005 1018 5280 2054 5504 3226 
L 5062 3341 
C 4819 2048 4538 973 4211 115 
L 2010 115 
z
M 2906 3270 
L 2483 3142 
C 2752 2234 2976 1293 3149 320 
L 3578 435 
C 3379 1498 3155 2445 2906 3270 
z
" transform="scale(0.015625)"/>
       <path id="PingFangSC-Regular-b27" d="M 3443 5254 
L 2976 5178 
C 3072 5030 3162 4870 3245 4698 
L 838 4698 
L 838 2630 
C 826 1376 634 390 269 -320 
L 614 -627 
C 1050 192 1274 1274 1299 2630 
L 1299 4275 
L 6022 4275 
L 6022 4698 
L 3706 4698 
C 3622 4902 3533 5088 3443 5254 
z
M 2886 3059 
L 2611 2790 
C 3117 2534 3539 2285 3872 2054 
L 1594 2054 
L 1594 1626 
L 3475 1626 
L 3475 26 
C 3475 -154 3386 -250 3213 -250 
C 2931 -250 2637 -237 2330 -218 
L 2426 -653 
L 3366 -653 
C 3744 -653 3936 -461 3936 -83 
L 3936 1626 
L 5408 1626 
C 5184 1267 4941 960 4672 704 
L 5018 429 
C 5344 774 5638 1197 5901 1696 
L 5901 2054 
L 4275 2054 
L 4371 2150 
C 4282 2221 4186 2291 4083 2355 
C 4544 2656 4973 3014 5363 3430 
L 5363 3763 
L 1965 3763 
L 1965 3366 
L 4787 3366 
C 4467 3072 4115 2810 3731 2586 
C 3475 2746 3194 2906 2886 3059 
z
" transform="scale(0.015625)"/>
       <path id="PingFangSC-Regular-769" d="M 1325 4998 
L 1325 3270 
L 5075 3270 
L 5075 4998 
L 1325 4998 
z
M 4602 3686 
L 1798 3686 
L 1798 4582 
L 4602 4582 
L 4602 3686 
z
M 1786 2278 
L 1485 1114 
L 4698 1114 
C 4659 538 4602 179 4525 38 
C 4442 -102 4230 -173 3885 -173 
C 3622 -173 3322 -160 2982 -134 
L 3136 -557 
C 3386 -582 3667 -595 3987 -595 
C 4422 -595 4717 -499 4870 -307 
C 5024 -109 5126 506 5165 1530 
L 2035 1530 
L 2253 2278 
L 6074 2278 
L 6074 2720 
L 320 2720 
L 320 2278 
L 1786 2278 
z
" transform="scale(0.015625)"/>
       <path id="PingFangSC-Regular-481" d="M 5440 5293 
C 5158 4883 4941 4442 4781 3974 
C 4589 3424 4499 2867 4499 2298 
C 4499 1741 4589 1184 4781 634 
C 4941 173 5158 -269 5440 -685 
L 5888 -685 
C 5632 -256 5427 186 5280 640 
C 5088 1203 4998 1760 4998 2304 
C 4998 2854 5088 3405 5280 3968 
C 5427 4429 5632 4870 5888 5293 
L 5440 5293 
z
" transform="scale(0.015625)"/>
       <path id="PingFangSC-Regular-12" d="M 2509 5248 
L 237 -640 
L 698 -640 
L 2963 5248 
L 2509 5248 
z
" transform="scale(0.015625)"/>
       <path id="PingFangSC-Regular-1b" d="M 1920 4659 
C 1440 4659 1069 4538 800 4288 
C 550 4064 429 3782 429 3450 
C 429 3206 486 3002 602 2835 
C 723 2656 902 2522 1146 2438 
L 1146 2426 
C 902 2368 704 2234 538 2029 
C 358 1811 269 1555 269 1261 
C 269 858 410 531 691 288 
C 979 38 1389 -90 1920 -90 
C 2445 -90 2854 38 3149 288 
C 3430 531 3571 858 3571 1261 
C 3571 1555 3482 1811 3302 2029 
C 3136 2234 2931 2368 2694 2426 
L 2694 2438 
C 2931 2522 3110 2656 3238 2835 
C 3354 3002 3411 3206 3411 3450 
C 3411 3782 3283 4064 3040 4288 
C 2771 4538 2394 4659 1920 4659 
z
M 1920 4230 
C 2240 4230 2496 4147 2682 3981 
C 2835 3840 2918 3654 2918 3430 
C 2918 3200 2848 3008 2707 2867 
C 2534 2701 2272 2611 1920 2611 
C 1562 2611 1299 2701 1133 2867 
C 992 3008 922 3200 922 3430 
C 922 3654 998 3840 1158 3981 
C 1338 4147 1594 4230 1920 4230 
z
M 1920 2202 
C 2285 2202 2573 2112 2778 1926 
C 2957 1760 3053 1536 3053 1261 
C 3053 992 2957 774 2778 608 
C 2573 429 2291 339 1920 339 
C 1549 339 1261 429 1069 602 
C 877 768 787 992 787 1261 
C 787 1536 877 1760 1069 1926 
C 1267 2112 1549 2202 1920 2202 
z
" transform="scale(0.015625)"/>
       <path id="PingFangSC-Regular-3" transform="scale(0.015625)"/>
       <path id="PingFangSC-Regular-55" d="M 1850 3398 
C 1619 3398 1421 3328 1248 3187 
C 1107 3078 992 2925 902 2733 
L 902 3309 
L 397 3309 
L 397 0 
L 902 0 
L 902 1754 
C 902 2061 986 2323 1165 2541 
C 1338 2771 1555 2880 1811 2880 
C 1971 2880 2138 2861 2304 2810 
L 2304 3322 
C 2182 3373 2029 3398 1850 3398 
z
" transform="scale(0.015625)"/>
       <path id="PingFangSC-Regular-48" d="M 1760 3398 
C 1280 3398 902 3226 621 2880 
C 339 2554 205 2144 205 1658 
C 205 1120 346 698 640 378 
C 922 70 1306 -90 1779 -90 
C 2208 -90 2560 38 2835 282 
C 3059 486 3206 742 3283 1062 
L 2771 1062 
C 2688 832 2579 659 2438 544 
C 2272 410 2048 339 1779 339 
C 1466 339 1216 442 1037 646 
C 858 851 762 1139 736 1510 
L 3347 1510 
C 3334 2086 3206 2541 2963 2861 
C 2694 3219 2291 3398 1760 3398 
z
M 1773 2970 
C 2400 2970 2752 2618 2816 1907 
L 749 1907 
C 781 2234 883 2490 1062 2682 
C 1242 2874 1478 2970 1773 2970 
z
" transform="scale(0.015625)"/>
       <path id="PingFangSC-Regular-54" d="M 1773 3398 
C 1286 3398 909 3226 640 2867 
C 390 2547 269 2144 269 1645 
C 269 1158 390 755 634 435 
C 902 90 1274 -90 1747 -90 
C 2221 -90 2586 141 2842 602 
L 2842 -1267 
L 3354 -1267 
L 3354 3309 
L 2874 3309 
L 2874 2765 
C 2630 3187 2266 3398 1773 3398 
z
M 1837 2976 
C 2170 2976 2426 2848 2611 2586 
C 2771 2355 2854 2048 2854 1677 
L 2854 1613 
C 2854 1229 2758 922 2579 685 
C 2394 454 2150 333 1856 333 
C 1498 333 1222 461 1043 704 
C 877 934 794 1248 794 1645 
C 794 2035 870 2349 1030 2579 
C 1210 2848 1478 2976 1837 2976 
z
" transform="scale(0.015625)"/>
       <path id="PingFangSC-Regular-56" d="M 1568 3398 
C 1197 3398 890 3315 659 3149 
C 410 2982 288 2765 288 2483 
C 288 2202 410 1990 666 1837 
C 819 1734 1094 1638 1485 1542 
C 1843 1453 2080 1382 2189 1331 
C 2394 1229 2502 1088 2502 902 
C 2502 531 2202 339 1613 339 
C 1331 339 1120 390 979 493 
C 838 608 742 794 704 1056 
L 205 1056 
C 282 294 755 -90 1626 -90 
C 2560 -90 3027 256 3027 934 
C 3027 1222 2893 1446 2630 1613 
C 2458 1722 2176 1824 1779 1920 
C 1446 2010 1216 2080 1094 2138 
C 902 2234 813 2355 813 2496 
C 813 2643 883 2758 1024 2842 
C 1152 2931 1331 2970 1562 2970 
C 1824 2970 2029 2918 2170 2816 
C 2298 2726 2381 2573 2426 2368 
L 2925 2368 
C 2835 3059 2387 3398 1568 3398 
z
" transform="scale(0.015625)"/>
       <path id="PingFangSC-Regular-482" d="M 512 5293 
C 768 4870 966 4429 1120 3968 
C 1306 3405 1402 2854 1402 2304 
C 1402 1760 1306 1203 1120 640 
C 966 186 768 -256 512 -685 
L 960 -685 
C 1235 -269 1453 173 1619 634 
C 1805 1184 1901 1741 1901 2298 
C 1901 2867 1805 3424 1619 3974 
C 1453 4442 1235 4883 960 5293 
L 512 5293 
z
" transform="scale(0.015625)"/>
      </defs>
      <use xlink:href="#PingFangSC-Regular-ee9"/>
      <use xlink:href="#PingFangSC-Regular-596" transform="translate(100 0)"/>
      <use xlink:href="#PingFangSC-Regular-b27" transform="translate(200 0)"/>
      <use xlink:href="#PingFangSC-Regular-769" transform="translate(300 0)"/>
      <use xlink:href="#PingFangSC-Regular-481" transform="translate(400 0)"/>
      <use xlink:href="#PingFangSC-Regular-15" transform="translate(500 0)"/>
      <use xlink:href="#PingFangSC-Regular-18" transform="translate(560 0)"/>
      <use xlink:href="#PingFangSC-Regular-12" transform="translate(620 0)"/>
      <use xlink:href="#PingFangSC-Regular-18" transform="translate(670 0)"/>
      <use xlink:href="#PingFangSC-Regular-13" transform="translate(730 0)"/>
      <use xlink:href="#PingFangSC-Regular-12" transform="translate(790 0)"/>
      <use xlink:href="#PingFangSC-Regular-14" transform="translate(840 0)"/>
      <use xlink:href="#PingFangSC-Regular-13" transform="translate(880.09375 0)"/>
      <use xlink:href="#PingFangSC-Regular-13" transform="translate(940.09375 0)"/>
      <use xlink:href="#PingFangSC-Regular-12" transform="translate(1000.09375 0)"/>
      <use xlink:href="#PingFangSC-Regular-15" transform="translate(1050.09375 0)"/>
      <use xlink:href="#PingFangSC-Regular-13" transform="translate(1110.09375 0)"/>
      <use xlink:href="#PingFangSC-Regular-13" transform="translate(1170.09375 0)"/>
      <use xlink:href="#PingFangSC-Regular-12" transform="translate(1230.09375 0)"/>
      <use xlink:href="#PingFangSC-Regular-16" transform="translate(1280.09375 0)"/>
      <use xlink:href="#PingFangSC-Regular-13" transform="translate(1340.09375 0)"/>
      <use xlink:href="#PingFangSC-Regular-13" transform="translate(1400.09375 0)"/>
      <use xlink:href="#PingFangSC-Regular-12" transform="translate(1460.09375 0)"/>
      <use xlink:href="#PingFangSC-Regular-18" transform="translate(1510.09375 0)"/>
      <use xlink:href="#PingFangSC-Regular-13" transform="translate(1570.09375 0)"/>
      <use xlink:href="#PingFangSC-Regular-13" transform="translate(1630.09375 0)"/>
      <use xlink:href="#PingFangSC-Regular-12" transform="translate(1690.09375 0)"/>
      <use xlink:href="#PingFangSC-Regular-1b" transform="translate(1740.09375 0)"/>
      <use xlink:href="#PingFangSC-Regular-13" transform="translate(1800.09375 0)"/>
      <use xlink:href="#PingFangSC-Regular-13" transform="translate(1860.09375 0)"/>
      <use xlink:href="#PingFangSC-Regular-3" transform="translate(1920.09375 0)"/>
      <use xlink:href="#PingFangSC-Regular-55" transform="translate(1953.390625 0)"/>
      <use xlink:href="#PingFangSC-Regular-48" transform="translate(1989.890625 0)"/>
      <use xlink:href="#PingFangSC-Regular-54" transform="translate(2045.390625 0)"/>
      <use xlink:href="#PingFangSC-Regular-12" transform="translate(2103.984375 0)"/>
      <use xlink:href="#PingFangSC-Regular-56" transform="translate(2153.984375 0)"/>
      <use xlink:href="#PingFangSC-Regular-482" transform="translate(2204.484375 0)"/>
     </g>
    </g>
   </g>
   <g id="matplotlib.axis_2">
    <g id="ytick_1">
     <g id="line2d_15">
      <path d="M 66.770313 255.806208 
L 523.935313 255.806208 
" clip-path="url(#pd6e42b8974)" style="fill: none; stroke-dasharray: 2.96,1.28; stroke-dashoffset: 0; stroke: #f1f3f5; stroke-width: 0.8"/>
     </g>
     <g id="line2d_16">
      <defs>
       <path id="mebcdc12075" d="M 0 0 
L -3.5 0 
" style="stroke: #6b7280; stroke-width: 0.8"/>
      </defs>
      <g>
       <use xlink:href="#mebcdc12075" x="66.770313" y="255.806208" style="fill: #6b7280; stroke: #6b7280; stroke-width: 0.8"/>
      </g>
     </g>
     <g id="text_9">
      <!-- 0 -->
      <g style="fill: #6b7280" transform="translate(53.170313 260.536208) scale(0.11 -0.11)">
       <use xlink:href="#PingFangSC-Regular-13"/>
      </g>
     </g>
    </g>
    <g id="ytick_2">
     <g id="line2d_17">
      <path d="M 66.770313 228.380615 
L 523.935313 228.380615 
" clip-path="url(#pd6e42b8974)" style="fill: none; stroke-dasharray: 2.96,1.28; stroke-dashoffset: 0; stroke: #f1f3f5; stroke-width: 0.8"/>
     </g>
     <g id="line2d_18">
      <g>
       <use xlink:href="#mebcdc12075" x="66.770313" y="228.380615" style="fill: #6b7280; stroke: #6b7280; stroke-width: 0.8"/>
      </g>
     </g>
     <g id="text_10">
      <!-- 2500 -->
      <g style="fill: #6b7280" transform="translate(33.370313 233.110615) scale(0.11 -0.11)">
       <use xlink:href="#PingFangSC-Regular-15"/>
       <use xlink:href="#PingFangSC-Regular-18" transform="translate(60 0)"/>
       <use xlink:href="#PingFangSC-Regular-13" transform="translate(120 0)"/>
       <use xlink:href="#PingFangSC-Regular-13" transform="translate(180 0)"/>
      </g>
     </g>
    </g>
    <g id="ytick_3">
     <g id="line2d_19">
      <path d="M 66.770313 200.955022 
L 523.935313 200.955022 
" clip-path="url(#pd6e42b8974)" style="fill: none; stroke-dasharray: 2.96,1.28; stroke-dashoffset: 0; stroke: #f1f3f5; stroke-width: 0.8"/>
     </g>
     <g id="line2d_20">
      <g>
       <use xlink:href="#mebcdc12075" x="66.770313" y="200.955022" style="fill: #6b7280; stroke: #6b7280; stroke-width: 0.8"/>
      </g>
     </g>
     <g id="text_11">
      <!-- 5000 -->
      <g style="fill: #6b7280" transform="translate(33.370313 205.685022) scale(0.11 -0.11)">
       <use xlink:href="#PingFangSC-Regular-18"/>
       <use xlink:href="#PingFangSC-Regular-13" transform="translate(60 0)"/>
       <use xlink:href="#PingFangSC-Regular-13" transform="translate(120 0)"/>
       <use xlink:href="#PingFangSC-Regular-13" transform="translate(180 0)"/>
      </g>
     </g>
    </g>
    <g id="ytick_4">
     <g id="line2d_21">
      <path d="M 66.770313 173.529429 
L 523.935313 173.529429 
" clip-path="url(#pd6e42b8974)" style="fill: none; stroke-dasharray: 2.96,1.28; stroke-dashoffset: 0; stroke: #f1f3f5; stroke-width: 0.8"/>
     </g>
     <g id="line2d_22">
      <g>
       <use xlink:href="#mebcdc12075" x="66.770313" y="173.529429" style="fill: #6b7280; stroke: #6b7280; stroke-width: 0.8"/>
      </g>
     </g>
     <g id="text_12">
      <!-- 7500 -->
      <g style="fill: #6b7280" transform="translate(33.952969 178.259429) scale(0.11 -0.11)">
       <defs>
        <path id="PingFangSC-Regular-1a" d="M 218 4570 
L 218 4090 
L 2682 4090 
L 979 0 
L 1536 0 
L 3219 4141 
L 3219 4570 
L 218 4570 
z
" transform="scale(0.015625)"/>
       </defs>
       <use xlink:href="#PingFangSC-Regular-1a"/>
       <use xlink:href="#PingFangSC-Regular-18" transform="translate(54.703125 0)"/>
       <use xlink:href="#PingFangSC-Regular-13" transform="translate(114.703125 0)"/>
       <use xlink:href="#PingFangSC-Regular-13" transform="translate(174.703125 0)"/>
      </g>
     </g>
    </g>
    <g id="ytick_5">
     <g id="line2d_23">
      <path d="M 66.770313 146.103836 
L 523.935313 146.103836 
" clip-path="url(#pd6e42b8974)" style="fill: none; stroke-dasharray: 2.96,1.28; stroke-dashoffset: 0; stroke: #f1f3f5; stroke-width: 0.8"/>
     </g>
     <g id="line2d_24">
      <g>
       <use xlink:href="#mebcdc12075" x="66.770313" y="146.103836" style="fill: #6b7280; stroke: #6b7280; stroke-width: 0.8"/>
      </g>
     </g>
     <g id="text_13">
      <!-- 10000 -->
      <g style="fill: #6b7280" transform="translate(28.96 150.833836) scale(0.11 -0.11)">
       <use xlink:href="#PingFangSC-Regular-14"/>
       <use xlink:href="#PingFangSC-Regular-13" transform="translate(40.09375 0)"/>
       <use xlink:href="#PingFangSC-Regular-13" transform="translate(100.09375 0)"/>
       <use xlink:href="#PingFangSC-Regular-13" transform="translate(160.09375 0)"/>
       <use xlink:href="#PingFangSC-Regular-13" transform="translate(220.09375 0)"/>
      </g>
     </g>
    </g>
    <g id="ytick_6">
     <g id="line2d_25">
      <path d="M 66.770313 118.678243 
L 523.935313 118.678243 
" clip-path="url(#pd6e42b8974)" style="fill: none; stroke-dasharray: 2.96,1.28; stroke-dashoffset: 0; stroke: #f1f3f5; stroke-width: 0.8"/>
     </g>
     <g id="line2d_26">
      <g>
       <use xlink:href="#mebcdc12075" x="66.770313" y="118.678243" style="fill: #6b7280; stroke: #6b7280; stroke-width: 0.8"/>
      </g>
     </g>
     <g id="text_14">
      <!-- 12500 -->
      <g style="fill: #6b7280" transform="translate(28.96 123.408243) scale(0.11 -0.11)">
       <use xlink:href="#PingFangSC-Regular-14"/>
       <use xlink:href="#PingFangSC-Regular-15" transform="translate(40.09375 0)"/>
       <use xlink:href="#PingFangSC-Regular-18" transform="translate(100.09375 0)"/>
       <use xlink:href="#PingFangSC-Regular-13" transform="translate(160.09375 0)"/>
       <use xlink:href="#PingFangSC-Regular-13" transform="translate(220.09375 0)"/>
      </g>
     </g>
    </g>
    <g id="ytick_7">
     <g id="line2d_27">
      <path d="M 66.770313 91.25265 
L 523.935313 91.25265 
" clip-path="url(#pd6e42b8974)" style="fill: none; stroke-dasharray: 2.96,1.28; stroke-dashoffset: 0; stroke: #f1f3f5; stroke-width: 0.8"/>
     </g>
     <g id="line2d_28">
      <g>
       <use xlink:href="#mebcdc12075" x="66.770313" y="91.25265" style="fill: #6b7280; stroke: #6b7280; stroke-width: 0.8"/>
      </g>
     </g>
     <g id="text_15">
      <!-- 15000 -->
      <g style="fill: #6b7280" transform="translate(28.96 95.98265) scale(0.11 -0.11)">
       <use xlink:href="#PingFangSC-Regular-14"/>
       <use xlink:href="#PingFangSC-Regular-18" transform="translate(40.09375 0)"/>
       <use xlink:href="#PingFangSC-Regular-13" transform="translate(100.09375 0)"/>
       <use xlink:href="#PingFangSC-Regular-13" transform="translate(160.09375 0)"/>
       <use xlink:href="#PingFangSC-Regular-13" transform="translate(220.09375 0)"/>
      </g>
     </g>
    </g>
    <g id="ytick_8">
     <g id="line2d_29">
      <path d="M 66.770313 63.827057 
L 523.935313 63.827057 
" clip-path="url(#pd6e42b8974)" style="fill: none; stroke-dasharray: 2.96,1.28; stroke-dashoffset: 0; stroke: #f1f3f5; stroke-width: 0.8"/>
     </g>
     <g id="line2d_30">
      <g>
       <use xlink:href="#mebcdc12075" x="66.770313" y="63.827057" style="fill: #6b7280; stroke: #6b7280; stroke-width: 0.8"/>
      </g>
     </g>
     <g id="text_16">
      <!-- 17500 -->
      <g style="fill: #6b7280" transform="translate(29.542656 68.557057) scale(0.11 -0.11)">
       <use xlink:href="#PingFangSC-Regular-14"/>
       <use xlink:href="#PingFangSC-Regular-1a" transform="translate(40.09375 0)"/>
       <use xlink:href="#PingFangSC-Regular-18" transform="translate(94.796875 0)"/>
       <use xlink:href="#PingFangSC-Regular-13" transform="translate(154.796875 0)"/>
       <use xlink:href="#PingFangSC-Regular-13" transform="translate(214.796875 0)"/>
      </g>
     </g>
    </g>
    <g id="text_17">
     <!-- 写成本 -->
     <g style="fill: #4b5563" transform="translate(23.28 164.403104) rotate(-90) scale(0.12 -0.12)">
      <defs>
       <path id="PingFangSC-Regular-65f" d="M 2208 3162 
L 4922 3162 
L 4922 3597 
L 2310 3597 
C 2355 3795 2400 4000 2445 4218 
L 1990 4262 
C 1856 3578 1651 2784 1382 1888 
L 4941 1888 
C 4922 762 4851 134 4736 0 
C 4634 -115 4416 -179 4070 -186 
C 3853 -186 3622 -179 3366 -173 
L 3494 -602 
L 4051 -602 
C 4582 -595 4928 -506 5088 -333 
C 5280 -128 5382 755 5402 2317 
L 1965 2317 
C 2048 2579 2131 2861 2208 3162 
z
M 467 1120 
L 467 678 
L 4307 678 
L 4307 1120 
L 467 1120 
z
M 5754 4960 
L 646 4960 
L 646 3578 
L 1101 3578 
L 1101 4525 
L 5299 4525 
L 5299 3571 
L 5754 3571 
L 5754 4960 
z
" transform="scale(0.015625)"/>
       <path id="PingFangSC-Regular-c6e" d="M 4762 5248 
L 4467 4966 
C 4794 4717 5050 4480 5242 4250 
L 4045 4250 
C 4032 4557 4026 4883 4026 5242 
L 3552 5242 
C 3552 4896 3558 4570 3571 4250 
L 928 4250 
L 928 2118 
C 909 1075 698 262 288 -326 
L 640 -640 
C 1114 51 1370 973 1395 2118 
L 1395 2310 
L 2502 2310 
C 2490 1606 2470 1146 2432 928 
C 2394 749 2304 653 2163 646 
C 1990 646 1779 653 1530 666 
L 1670 250 
C 1875 237 2061 224 2214 224 
C 2534 237 2733 378 2816 653 
C 2899 966 2950 1664 2963 2746 
L 1395 2746 
L 1395 3808 
L 3590 3808 
C 3642 3008 3731 2336 3872 1798 
C 3942 1523 4026 1267 4115 1030 
C 3674 474 3130 51 2490 -237 
L 2746 -621 
C 3347 -352 3872 38 4320 563 
C 4416 365 4525 186 4640 32 
C 4947 -352 5235 -544 5504 -544 
C 5792 -544 6010 -115 6163 736 
L 5747 966 
C 5651 307 5542 -26 5427 -32 
C 5299 -32 5126 122 4915 429 
C 4813 576 4717 755 4627 960 
C 5037 1536 5370 2253 5626 3098 
L 5210 3277 
C 5011 2592 4755 1990 4435 1478 
C 4390 1619 4346 1766 4307 1926 
C 4192 2387 4109 3014 4064 3808 
L 6035 3808 
L 6035 4250 
L 5254 4250 
L 5549 4544 
C 5331 4781 5069 5018 4762 5248 
z
" transform="scale(0.015625)"/>
       <path id="PingFangSC-Regular-e5c" d="M 461 4051 
L 461 3610 
L 2554 3610 
C 2080 2477 1312 1549 237 832 
L 499 403 
C 1638 1242 2445 2310 2918 3610 
L 2963 3610 
L 2963 1114 
L 1645 1114 
L 1645 672 
L 2963 672 
L 2963 -640 
L 3437 -640 
L 3437 672 
L 4806 672 
L 4806 1114 
L 3437 1114 
L 3437 3610 
L 3488 3610 
C 3923 2451 4704 1408 5830 486 
L 6144 883 
C 5043 1683 4275 2592 3846 3610 
L 5933 3610 
L 5933 4051 
L 3437 4051 
L 3437 5210 
L 2963 5210 
L 2963 4051 
L 461 4051 
z
" transform="scale(0.015625)"/>
      </defs>
      <use xlink:href="#PingFangSC-Regular-65f"/>
      <use xlink:href="#PingFangSC-Regular-c6e" transform="translate(100 0)"/>
      <use xlink:href="#PingFangSC-Regular-e5c" transform="translate(200 0)"/>
     </g>
    </g>
   </g>
   <g id="patch_3">
    <path d="M 87.55054 255.806208 
L 122.448631 255.806208 
L 122.448631 234.480067 
L 87.55054 234.480067 
z
" clip-path="url(#pd6e42b8974)" style="fill: #93c5fd; stroke: #93c5fd; stroke-linejoin: miter"/>
   </g>
   <g id="patch_4">
    <path d="M 151.001615 255.806208 
L 185.899707 255.806208 
L 185.899707 234.480067 
L 151.001615 234.480067 
z
" clip-path="url(#pd6e42b8974)" style="fill: #93c5fd; stroke: #93c5fd; stroke-linejoin: miter"/>
   </g>
   <g id="patch_5">
    <path d="M 214.452691 255.806208 
L 249.350783 255.806208 
L 249.350783 213.153926 
L 214.452691 213.153926 
z
" clip-path="url(#pd6e42b8974)" style="fill: #93c5fd; stroke: #93c5fd; stroke-linejoin: miter"/>
   </g>
   <g id="patch_6">
    <path d="M 277.903767 255.806208 
L 312.801858 255.806208 
L 312.801858 191.827785 
L 277.903767 191.827785 
z
" clip-path="url(#pd6e42b8974)" style="fill: #93c5fd; stroke: #93c5fd; stroke-linejoin: miter"/>
   </g>
   <g id="patch_7">
    <path d="M 341.354842 255.806208 
L 376.252934 255.806208 
L 376.252934 170.501643 
L 341.354842 170.501643 
z
" clip-path="url(#pd6e42b8974)" style="fill: #93c5fd; stroke: #93c5fd; stroke-linejoin: miter"/>
   </g>
   <g id="patch_8">
    <path d="M 404.805918 255.806208 
L 439.70401 255.806208 
L 439.70401 127.849361 
L 404.805918 127.849361 
z
" clip-path="url(#pd6e42b8974)" style="fill: #93c5fd; stroke: #93c5fd; stroke-linejoin: miter"/>
   </g>
   <g id="patch_9">
    <path d="M 468.256994 255.806208 
L 503.155085 255.806208 
L 503.155085 63.870938 
L 468.256994 63.870938 
z
" clip-path="url(#pd6e42b8974)" style="fill: #93c5fd; stroke: #93c5fd; stroke-linejoin: miter"/>
   </g>
   <g id="patch_10">
    <path d="M 66.770313 255.806208 
L 66.770313 37 
" style="fill: none; stroke: #d1d5db; stroke-width: 0.8; stroke-linejoin: miter; stroke-linecap: square"/>
   </g>
   <g id="patch_11">
    <path d="M 66.770313 255.806208 
L 523.935313 255.806208 
" style="fill: none; stroke: #d1d5db; stroke-width: 0.8; stroke-linejoin: miter; stroke-linecap: square"/>
   </g>
   <g id="patch_12">
    <path d="M 103.044308 60.040692 
Q 104.009267 136.061147 104.974226 212.081602 
" style="fill: none; stroke: #9ca3af; stroke-linecap: round"/>
   </g>
   <g id="text_18">
    <!-- 交点约 f=0 -->
    <g style="fill: #4b5563" transform="translate(75.913612 54.504497) scale(0.11 -0.11)">
     <defs>
      <path id="PingFangSC-Regular-53b" d="M 371 4467 
L 371 4026 
L 6035 4026 
L 6035 4467 
L 3514 4467 
C 3398 4762 3270 5030 3142 5274 
L 2630 5184 
C 2771 4966 2899 4730 3014 4467 
L 371 4467 
z
M 4211 3834 
L 3898 3533 
C 4646 2918 5235 2349 5658 1811 
L 5997 2150 
C 5517 2714 4922 3270 4211 3834 
z
M 4275 2637 
C 4000 2099 3642 1632 3206 1222 
C 2752 1613 2381 2067 2099 2592 
L 1702 2368 
C 2003 1830 2387 1344 2854 922 
C 2182 410 1344 26 333 -230 
L 614 -653 
C 1638 -384 2509 38 3226 614 
C 3917 77 4781 -333 5818 -627 
L 6106 -198 
C 5107 58 4269 429 3578 928 
C 4019 1357 4390 1862 4698 2451 
L 4275 2637 
z
M 2150 3827 
C 1670 3226 1082 2707 384 2259 
L 678 1869 
C 1395 2342 1997 2899 2483 3533 
L 2150 3827 
z
" transform="scale(0.015625)"/>
      <path id="PingFangSC-Regular-1169" d="M 2867 5216 
L 2867 3347 
L 1126 3347 
L 1126 1293 
L 5363 1293 
L 5363 3347 
L 3322 3347 
L 3322 4160 
L 5805 4160 
L 5805 4595 
L 3322 4595 
L 3322 5216 
L 2867 5216 
z
M 4902 1722 
L 1587 1722 
L 1587 2912 
L 4902 2912 
L 4902 1722 
z
M 1114 1011 
C 883 486 608 32 288 -346 
L 666 -621 
C 986 -211 1261 269 1504 826 
L 1114 1011 
z
M 2509 826 
L 2080 736 
C 2202 333 2304 -128 2394 -653 
L 2854 -550 
C 2752 -58 2637 403 2509 826 
z
M 3846 890 
L 3411 800 
C 3603 384 3763 -96 3891 -640 
L 4346 -538 
C 4205 -26 4038 454 3846 890 
z
M 5158 1018 
L 4787 781 
C 5178 256 5485 -218 5709 -653 
L 6093 -384 
C 5875 13 5568 480 5158 1018 
z
" transform="scale(0.015625)"/>
      <path id="PingFangSC-Regular-1545" d="M 3603 2624 
L 3226 2387 
C 3680 1843 4038 1350 4294 902 
L 4685 1178 
C 4435 1587 4077 2074 3603 2624 
z
M 3699 5242 
C 3501 4314 3123 3526 2566 2886 
L 2854 2509 
C 3174 2867 3443 3277 3667 3725 
L 5414 3725 
C 5402 1805 5376 659 5338 288 
C 5286 -32 5088 -192 4742 -192 
C 4512 -192 4243 -179 3923 -166 
L 4038 -595 
C 4403 -608 4659 -621 4806 -621 
C 5382 -621 5702 -378 5773 102 
C 5837 621 5869 1984 5869 4192 
L 3866 4192 
C 3981 4499 4083 4832 4160 5184 
L 3699 5242 
z
M 2688 634 
C 2022 403 1248 211 352 70 
L 410 -384 
C 1261 -243 2022 -64 2688 160 
L 2688 634 
z
M 1395 5248 
C 1152 4493 864 3821 538 3232 
C 474 3142 410 3085 339 3053 
L 454 2624 
C 819 2682 1178 2739 1536 2803 
C 1184 2202 883 1779 634 1523 
C 576 1472 506 1427 422 1389 
L 544 960 
C 1203 1050 1894 1203 2611 1434 
L 2611 1843 
C 2106 1683 1600 1555 1101 1466 
C 1510 1939 2029 2739 2643 3866 
L 2202 4032 
C 2054 3750 1914 3488 1779 3238 
C 1485 3181 1184 3130 890 3091 
C 1210 3590 1530 4250 1843 5069 
L 1395 5248 
z
" transform="scale(0.015625)"/>
      <path id="PingFangSC-Regular-49" d="M 1722 4570 
C 1440 4570 1222 4493 1075 4333 
C 934 4179 864 3968 864 3686 
L 864 3309 
L 32 3309 
L 32 2880 
L 864 2880 
L 864 0 
L 1376 0 
L 1376 2880 
L 2310 2880 
L 2310 3309 
L 1376 3309 
L 1376 3674 
C 1376 3834 1408 3949 1472 4019 
C 1536 4096 1645 4128 1786 4128 
L 2355 4128 
L 2355 4570 
L 1722 4570 
z
" transform="scale(0.015625)"/>
      <path id="PingFangSC-Regular-20" d="M 320 2528 
L 320 2099 
L 3552 2099 
L 3552 2528 
L 320 2528 
z
M 320 1216 
L 320 781 
L 3552 781 
L 3552 1216 
L 320 1216 
z
" transform="scale(0.015625)"/>
     </defs>
     <use xlink:href="#PingFangSC-Regular-53b"/>
     <use xlink:href="#PingFangSC-Regular-1169" transform="translate(100 0)"/>
     <use xlink:href="#PingFangSC-Regular-1545" transform="translate(200 0)"/>
     <use xlink:href="#PingFangSC-Regular-3" transform="translate(300 0)"/>
     <use xlink:href="#PingFangSC-Regular-49" transform="translate(333.296875 0)"/>
     <use xlink:href="#PingFangSC-Regular-20" transform="translate(370.59375 0)"/>
     <use xlink:href="#PingFangSC-Regular-13" transform="translate(431.09375 0)"/>
    </g>
   </g>
   <g id="text_19">
    <!-- 线=单位成本，柱=月成本，方向相反 -->
    <g style="fill: #212529" transform="translate(181.882813 25) scale(0.14 -0.14)">
     <defs>
      <path id="PingFangSC-Semibold-155a" d="M 2541 736 
C 1907 506 1165 326 320 186 
L 403 -467 
C 1203 -320 1914 -128 2541 109 
L 2541 736 
z
M 1267 5299 
C 1056 4614 806 3987 518 3411 
C 435 3296 346 3213 243 3168 
L 403 2560 
L 1312 2682 
C 1037 2195 806 1850 627 1658 
C 544 1581 442 1517 326 1466 
L 499 864 
C 1120 941 1779 1101 2477 1338 
L 2477 1933 
C 2074 1792 1677 1683 1286 1600 
C 1632 2061 2061 2771 2560 3738 
L 1965 3968 
C 1850 3725 1734 3501 1632 3283 
L 1018 3206 
C 1318 3680 1613 4294 1907 5043 
L 1267 5299 
z
M 5658 4192 
L 4160 3981 
L 4160 5261 
L 3488 5261 
L 3488 3891 
L 2579 3763 
L 2675 3149 
L 3501 3264 
C 3514 3034 3526 2803 3552 2586 
L 2470 2413 
L 2566 1786 
L 3642 1952 
C 3661 1824 3686 1696 3718 1568 
C 3789 1261 3878 973 3994 710 
C 3546 384 3040 134 2477 -45 
L 2867 -582 
C 3373 -429 3853 -192 4301 128 
C 4326 83 4365 38 4403 -13 
C 4691 -397 4998 -595 5331 -602 
C 5702 -602 5978 -192 6170 627 
L 5600 998 
C 5510 422 5395 134 5254 134 
C 5114 134 4960 269 4787 525 
C 5139 851 5472 1242 5786 1696 
L 5254 2054 
C 5030 1722 4781 1414 4506 1146 
C 4429 1376 4365 1632 4314 1920 
C 4301 1965 4294 2010 4294 2054 
L 5933 2310 
L 5830 2938 
L 4218 2688 
C 4192 2899 4179 3123 4173 3360 
L 5754 3578 
L 5658 4192 
z
M 4877 5286 
L 4371 4966 
C 4659 4678 4890 4416 5056 4179 
L 5581 4544 
C 5414 4749 5178 4998 4877 5286 
z
" transform="scale(0.015625)"/>
      <path id="PingFangSC-Semibold-20" d="M 320 2618 
L 320 2016 
L 3552 2016 
L 3552 2618 
L 320 2618 
z
M 320 1293 
L 320 691 
L 3552 691 
L 3552 1293 
L 320 1293 
z
" transform="scale(0.015625)"/>
      <path id="PingFangSC-Semibold-714" d="M 902 4307 
L 902 1523 
L 2867 1523 
L 2867 1050 
L 333 1050 
L 333 422 
L 2867 422 
L 2867 -698 
L 3533 -698 
L 3533 422 
L 6067 422 
L 6067 1050 
L 3533 1050 
L 3533 1523 
L 5498 1523 
L 5498 4307 
L 4358 4307 
C 4525 4538 4685 4800 4826 5088 
L 4179 5318 
C 4032 4960 3859 4627 3661 4307 
L 2419 4307 
L 2797 4499 
C 2605 4787 2400 5050 2182 5286 
L 1626 5018 
C 1818 4806 2003 4570 2182 4307 
L 902 4307 
z
M 4851 2112 
L 3533 2112 
L 3533 2643 
L 4851 2643 
L 4851 2112 
z
M 2867 2112 
L 1549 2112 
L 1549 2643 
L 2867 2643 
L 2867 2112 
z
M 1549 3206 
L 1549 3725 
L 2867 3725 
L 2867 3206 
L 1549 3206 
z
M 3533 3725 
L 4851 3725 
L 4851 3206 
L 3533 3206 
L 3533 3725 
z
" transform="scale(0.015625)"/>
      <path id="PingFangSC-Semibold-596" d="M 1619 5318 
C 1306 4333 826 3475 179 2752 
L 403 2035 
C 602 2240 787 2451 966 2669 
L 966 -678 
L 1632 -678 
L 1632 3642 
C 1888 4077 2093 4538 2246 5018 
L 1619 5318 
z
M 2086 4294 
L 2086 3661 
L 6003 3661 
L 6003 4294 
L 4384 4294 
C 4301 4646 4218 4960 4134 5235 
L 3424 5120 
C 3526 4864 3622 4589 3712 4294 
L 2086 4294 
z
M 1984 230 
L 1984 -422 
L 6170 -422 
L 6170 230 
L 4832 230 
C 5133 1094 5389 2080 5594 3187 
L 4954 3354 
C 4723 2118 4461 1075 4154 230 
L 1984 230 
z
M 3021 3296 
L 2406 3098 
C 2662 2227 2874 1318 3040 371 
L 3661 538 
C 3469 1574 3258 2490 3021 3296 
z
" transform="scale(0.015625)"/>
      <path id="PingFangSC-Semibold-c6e" d="M 4858 5312 
L 4435 4909 
C 4685 4717 4890 4525 5050 4346 
L 4147 4346 
C 4134 4640 4128 4947 4128 5274 
L 3450 5274 
C 3450 4954 3450 4640 3462 4346 
L 826 4346 
L 826 2214 
C 806 1178 602 365 205 -218 
L 710 -672 
C 1203 51 1466 1005 1498 2195 
L 2400 2195 
C 2387 1542 2368 1139 2330 992 
C 2298 864 2227 800 2125 794 
C 1946 794 1734 806 1478 826 
L 1683 218 
C 1875 198 2048 186 2202 186 
C 2547 192 2771 326 2874 595 
C 2982 890 3046 1632 3066 2822 
L 1498 2822 
L 1498 3712 
L 3494 3712 
C 3546 2944 3635 2298 3776 1786 
C 3846 1523 3923 1280 4013 1056 
C 3590 544 3078 154 2477 -115 
L 2861 -678 
C 3411 -435 3898 -83 4320 378 
C 4397 237 4486 109 4576 -6 
C 4890 -384 5184 -576 5466 -576 
C 5786 -576 6022 -122 6189 781 
L 5587 1107 
C 5504 493 5427 186 5363 186 
C 5267 186 5126 326 4947 602 
C 4883 698 4819 813 4762 941 
C 5152 1510 5472 2202 5722 3014 
L 5114 3277 
C 4947 2701 4736 2182 4480 1734 
C 4454 1824 4429 1907 4410 1997 
C 4307 2394 4230 2970 4179 3712 
L 6061 3712 
L 6061 4346 
L 5299 4346 
L 5594 4646 
C 5389 4870 5146 5094 4858 5312 
z
" transform="scale(0.015625)"/>
      <path id="PingFangSC-Semibold-e5c" d="M 429 4154 
L 429 3507 
L 2355 3507 
C 1894 2477 1178 1626 192 960 
L 582 333 
C 1645 1152 2400 2202 2861 3488 
L 2861 1216 
L 1613 1216 
L 1613 570 
L 2861 570 
L 2861 -672 
L 3539 -672 
L 3539 570 
L 4838 570 
L 4838 1216 
L 3539 1216 
L 3539 3488 
C 3962 2355 4691 1331 5734 416 
L 6189 992 
C 5178 1728 4461 2566 4038 3507 
L 5965 3507 
L 5965 4154 
L 3539 4154 
L 3539 5242 
L 2861 5242 
L 2861 4154 
L 429 4154 
z
" transform="scale(0.015625)"/>
      <path id="PingFangSC-Semibold-485" d="M 1242 966 
C 1082 966 954 922 858 826 
C 755 736 704 614 704 461 
C 704 320 749 198 845 102 
C 941 6 1056 -45 1197 -45 
C 1267 -45 1318 -32 1357 -19 
C 1357 -173 1299 -320 1190 -474 
C 1069 -614 922 -717 749 -781 
L 749 -1203 
C 1082 -1107 1350 -934 1549 -685 
C 1741 -429 1843 -134 1843 205 
C 1843 429 1786 614 1677 755 
C 1562 896 1414 966 1242 966 
z
" transform="scale(0.015625)"/>
      <path id="PingFangSC-Semibold-eb6" d="M 2675 4218 
L 2675 3578 
L 4026 3578 
L 4026 2227 
L 2829 2227 
L 2829 1606 
L 4026 1606 
L 4026 90 
L 2470 90 
L 2470 -544 
L 6144 -544 
L 6144 90 
L 4685 90 
L 4685 1606 
L 5869 1606 
L 5869 2227 
L 4685 2227 
L 4685 3578 
L 6022 3578 
L 6022 4218 
L 4666 4218 
C 4576 4538 4448 4890 4282 5280 
L 3622 5101 
C 3763 4819 3891 4525 4006 4218 
L 2675 4218 
z
M 1862 2406 
C 2003 2170 2170 1869 2362 1510 
L 2746 2080 
C 2445 2483 2150 2842 1862 3162 
L 1862 3494 
L 2515 3494 
L 2515 4141 
L 1862 4141 
L 1862 5248 
L 1210 5248 
L 1210 4141 
L 358 4141 
L 358 3494 
L 1184 3494 
C 979 2720 653 2035 205 1434 
L 499 691 
C 781 1165 1018 1677 1210 2240 
L 1210 -640 
L 1862 -640 
L 1862 2406 
z
" transform="scale(0.015625)"/>
      <path id="PingFangSC-Semibold-e4c" d="M 2106 2886 
L 4634 2886 
L 4634 1939 
L 2106 1939 
L 2106 2886 
z
M 4634 3507 
L 2106 3507 
L 2106 4403 
L 4634 4403 
L 4634 3507 
z
M 2067 1318 
L 4634 1318 
L 4634 269 
C 4634 102 4570 13 4442 13 
C 4205 13 3942 26 3661 45 
L 3840 -608 
L 4659 -608 
C 5094 -608 5312 -397 5312 26 
L 5312 5043 
L 1434 5043 
L 1434 1901 
C 1421 1030 1222 314 826 -243 
L 1338 -710 
C 1734 -166 1978 512 2067 1318 
z
" transform="scale(0.015625)"/>
      <path id="PingFangSC-Semibold-ddc" d="M 352 4378 
L 352 3731 
L 2093 3731 
C 2086 3533 2074 3277 2061 2957 
C 2029 2355 1907 1811 1696 1331 
C 1478 851 1030 326 352 -237 
L 838 -710 
C 1408 -250 1850 262 2163 819 
C 2387 1222 2541 1664 2630 2150 
L 4666 2150 
C 4653 1267 4634 730 4595 531 
C 4518 173 4358 -13 4109 -26 
C 3872 -26 3584 -13 3245 6 
L 3443 -602 
C 3725 -621 3968 -634 4179 -634 
C 4678 -621 5005 -371 5152 128 
C 5254 474 5318 1363 5344 2784 
L 2707 2784 
C 2733 3174 2746 3488 2758 3731 
L 6074 3731 
L 6074 4378 
L 3712 4378 
C 3571 4730 3411 5037 3245 5293 
L 2611 5056 
C 2771 4838 2906 4614 3021 4378 
L 352 4378 
z
" transform="scale(0.015625)"/>
      <path id="PingFangSC-Semibold-77b" d="M 1965 3021 
L 1965 640 
L 4454 640 
L 4454 3021 
L 1965 3021 
z
M 3808 1267 
L 2611 1267 
L 2611 2400 
L 3808 2400 
L 3808 1267 
z
M 2701 5286 
C 2630 4979 2528 4685 2394 4397 
L 621 4397 
L 621 -659 
L 1293 -659 
L 1293 3750 
L 5158 3750 
L 5158 282 
C 5158 109 5075 19 4922 19 
L 4026 45 
L 4205 -634 
L 5146 -634 
C 5600 -634 5830 -378 5830 134 
L 5830 4397 
L 3110 4397 
C 3232 4640 3328 4909 3398 5190 
L 2701 5286 
z
" transform="scale(0.015625)"/>
      <path id="PingFangSC-Semibold-1358" d="M 5926 4922 
L 2803 4922 
L 2803 -672 
L 3437 -672 
L 3437 -314 
L 5274 -314 
L 5274 -666 
L 5926 -666 
L 5926 4922 
z
M 3437 307 
L 3437 1222 
L 5274 1222 
L 5274 307 
L 3437 307 
z
M 3437 1837 
L 3437 2784 
L 5274 2784 
L 5274 1837 
L 3437 1837 
z
M 3437 3398 
L 3437 4301 
L 5274 4301 
L 5274 3398 
L 3437 3398 
z
M 1824 2438 
C 1958 2246 2118 2003 2298 1715 
L 2656 2253 
C 2381 2586 2106 2893 1824 3174 
L 1824 3437 
L 2573 3437 
L 2573 4070 
L 1824 4070 
L 1824 5254 
L 1165 5254 
L 1165 4070 
L 339 4070 
L 339 3437 
L 1152 3437 
C 947 2720 634 2080 198 1530 
L 461 864 
C 730 1274 966 1728 1165 2221 
L 1165 -666 
L 1824 -666 
L 1824 2438 
z
" transform="scale(0.015625)"/>
      <path id="PingFangSC-Semibold-74d" d="M 2125 2707 
C 2323 2003 2726 1363 3328 787 
C 2803 422 2163 115 1402 -141 
L 1766 -710 
C 2592 -429 3290 -70 3853 352 
C 4371 -38 5018 -390 5786 -710 
L 6157 -115 
C 5453 141 4845 442 4346 774 
C 4922 1325 5312 1984 5517 2746 
L 5517 3334 
L 1722 3334 
L 1722 4224 
C 3200 4262 4538 4410 5728 4653 
L 5414 5222 
C 4141 4966 2688 4832 1056 4806 
L 1056 2867 
C 1018 1574 749 563 250 -166 
L 730 -672 
C 1318 173 1651 1299 1715 2707 
L 2125 2707 
z
M 3814 1178 
C 3296 1626 2944 2138 2765 2707 
L 4851 2707 
C 4646 2138 4301 1626 3814 1178 
z
" transform="scale(0.015625)"/>
     </defs>
     <use xlink:href="#PingFangSC-Semibold-155a"/>
     <use xlink:href="#PingFangSC-Semibold-20" transform="translate(100 0)"/>
     <use xlink:href="#PingFangSC-Semibold-714" transform="translate(160.5 0)"/>
     <use xlink:href="#PingFangSC-Semibold-596" transform="translate(260.5 0)"/>
     <use xlink:href="#PingFangSC-Semibold-c6e" transform="translate(360.5 0)"/>
     <use xlink:href="#PingFangSC-Semibold-e5c" transform="translate(460.5 0)"/>
     <use xlink:href="#PingFangSC-Semibold-485" transform="translate(560.5 0)"/>
     <use xlink:href="#PingFangSC-Semibold-eb6" transform="translate(660.5 0)"/>
     <use xlink:href="#PingFangSC-Semibold-20" transform="translate(760.5 0)"/>
     <use xlink:href="#PingFangSC-Semibold-e4c" transform="translate(821 0)"/>
     <use xlink:href="#PingFangSC-Semibold-c6e" transform="translate(921 0)"/>
     <use xlink:href="#PingFangSC-Semibold-e5c" transform="translate(1021 0)"/>
     <use xlink:href="#PingFangSC-Semibold-485" transform="translate(1121 0)"/>
     <use xlink:href="#PingFangSC-Semibold-ddc" transform="translate(1221 0)"/>
     <use xlink:href="#PingFangSC-Semibold-77b" transform="translate(1321 0)"/>
     <use xlink:href="#PingFangSC-Semibold-1358" transform="translate(1421 0)"/>
     <use xlink:href="#PingFangSC-Semibold-74d" transform="translate(1521 0)"/>
    </g>
   </g>
   <g id="legend_1">
    <g id="patch_13">
     <path d="M 182.052813 305.799077 
L 204.052813 305.799077 
L 204.052813 298.099077 
L 182.052813 298.099077 
z
" style="fill: #93c5fd; stroke: #93c5fd; stroke-linejoin: miter"/>
    </g>
    <g id="text_20">
     <!-- 写成本（条） -->
     <g style="fill: #374151" transform="translate(212.852813 305.799077) scale(0.11 -0.11)">
      <defs>
       <path id="PingFangSC-Regular-e75" d="M 800 1824 
L 800 1382 
L 2982 1382 
L 2982 77 
C 2982 -115 2886 -211 2701 -211 
C 2496 -211 2272 -198 2042 -179 
L 2144 -621 
L 2861 -621 
C 3258 -621 3456 -422 3456 -38 
L 3456 1382 
L 5581 1382 
L 5581 1824 
L 3456 1824 
L 3456 2451 
L 2982 2451 
L 2982 1824 
L 800 1824 
z
M 1856 986 
C 1472 570 992 211 422 -96 
L 717 -486 
C 1293 -147 1779 250 2176 704 
L 1856 986 
z
M 5536 -474 
L 5869 -134 
C 5312 378 4826 762 4416 1018 
L 4115 736 
C 4595 390 5069 -13 5536 -474 
z
M 2342 5299 
C 1901 4621 1344 4064 666 3642 
L 960 3290 
C 1254 3482 1536 3706 1798 3955 
C 2074 3680 2394 3430 2765 3206 
C 2061 2886 1235 2662 288 2528 
L 486 2112 
C 1536 2285 2438 2566 3206 2963 
C 3949 2598 4845 2336 5907 2182 
L 6118 2611 
C 5171 2733 4352 2938 3661 3226 
C 4179 3552 4621 3936 4986 4384 
L 4986 4742 
L 2490 4742 
C 2592 4883 2688 5037 2790 5197 
L 2342 5299 
z
M 2080 4237 
L 2163 4333 
L 4410 4333 
C 4070 3994 3674 3693 3213 3430 
C 2765 3661 2387 3930 2080 4237 
z
" transform="scale(0.015625)"/>
      </defs>
      <use xlink:href="#PingFangSC-Regular-65f"/>
      <use xlink:href="#PingFangSC-Regular-c6e" transform="translate(100 0)"/>
      <use xlink:href="#PingFangSC-Regular-e5c" transform="translate(200 0)"/>
      <use xlink:href="#PingFangSC-Regular-481" transform="translate(300 0)"/>
      <use xlink:href="#PingFangSC-Regular-e75" transform="translate(400 0)"/>
      <use xlink:href="#PingFangSC-Regular-482" transform="translate(500 0)"/>
     </g>
    </g>
    <g id="line2d_31">
     <path d="M 300.852813 301.949077 
L 311.852813 301.949077 
L 322.852813 301.949077 
" style="fill: none; stroke: #f87171; stroke-width: 2.2; stroke-linecap: square"/>
     <defs>
      <path id="m3bcfc40de8" d="M 0 2.25 
C 0.596707 2.25 1.169055 2.012926 1.59099 1.59099 
C 2.012926 1.169055 2.25 0.596707 2.25 0 
C 2.25 -0.596707 2.012926 -1.169055 1.59099 -1.59099 
C 1.169055 -2.012926 0.596707 -2.25 0 -2.25 
C -0.596707 -2.25 -1.169055 -2.012926 -1.59099 -1.59099 
C -2.012926 -1.169055 -2.25 -0.596707 -2.25 0 
C -2.25 0.596707 -2.012926 1.169055 -1.59099 1.59099 
C -1.169055 2.012926 -0.596707 2.25 0 2.25 
z
" style="stroke: #f87171; stroke-width: 1.4"/>
     </defs>
     <g>
      <use xlink:href="#m3bcfc40de8" x="311.852813" y="301.949077" style="fill: #ffffff; stroke: #f87171; stroke-width: 1.4"/>
     </g>
    </g>
    <g id="text_21">
     <!-- 损失成本（线） -->
     <g style="fill: #374151" transform="translate(331.652813 305.799077) scale(0.11 -0.11)">
      <defs>
       <path id="PingFangSC-Regular-d16" d="M 5805 3085 
L 2694 3085 
L 2694 646 
L 3142 646 
L 3142 2675 
L 5357 2675 
L 5357 653 
L 5805 653 
L 5805 3085 
z
M 2906 4986 
L 2906 3546 
L 5613 3546 
L 5613 4986 
L 2906 4986 
z
M 5165 3930 
L 3354 3930 
L 3354 4589 
L 5165 4589 
L 5165 3930 
z
M 4006 2317 
L 4006 1645 
C 3994 1158 3866 768 3622 461 
C 3360 166 2899 -64 2240 -243 
L 2490 -634 
C 3174 -442 3667 -173 3974 166 
C 4282 538 4448 1030 4467 1645 
L 4467 2317 
L 4006 2317 
z
M 1088 -570 
C 1466 -570 1658 -378 1658 0 
L 1658 1875 
C 1901 1984 2144 2106 2387 2234 
L 2387 2701 
C 2150 2573 1907 2451 1658 2336 
L 1658 3610 
L 2419 3610 
L 2419 4051 
L 1658 4051 
L 1658 5222 
L 1203 5222 
L 1203 4051 
L 346 4051 
L 346 3610 
L 1203 3610 
L 1203 2150 
C 890 2029 563 1926 230 1843 
L 346 1382 
C 634 1472 922 1574 1203 1683 
L 1203 115 
C 1203 -64 1107 -160 928 -160 
C 755 -160 576 -147 390 -128 
L 486 -570 
L 1088 -570 
z
M 4653 653 
L 4422 307 
C 4915 77 5395 -243 5862 -646 
L 6118 -256 
C 5677 102 5190 403 4653 653 
z
" transform="scale(0.015625)"/>
       <path id="PingFangSC-Regular-966" d="M 1587 5094 
C 1299 4237 870 3552 294 3040 
L 685 2701 
C 960 2957 1210 3277 1440 3654 
L 2970 3654 
L 2970 3238 
C 2957 2931 2931 2643 2880 2374 
L 403 2374 
L 403 1933 
L 2784 1933 
C 2688 1606 2554 1312 2387 1056 
C 1990 525 1286 96 288 -237 
L 538 -627 
C 1549 -301 2272 154 2714 736 
C 2938 1043 3110 1408 3232 1830 
C 3578 794 4448 -19 5843 -621 
L 6099 -218 
C 4762 294 3936 1011 3622 1933 
L 6003 1933 
L 6003 2374 
L 3360 2374 
C 3405 2643 3430 2931 3443 3238 
L 3443 3654 
L 5587 3654 
L 5587 4102 
L 3443 4102 
L 3443 5222 
L 2970 5222 
L 2970 4102 
L 1677 4102 
C 1798 4358 1914 4634 2016 4928 
L 1587 5094 
z
" transform="scale(0.015625)"/>
       <path id="PingFangSC-Regular-155a" d="M 2547 634 
C 1920 390 1184 192 339 51 
L 397 -397 
C 1203 -250 1920 -51 2547 192 
L 2547 634 
z
M 1408 5261 
C 1152 4499 851 3821 506 3232 
C 448 3149 384 3091 314 3066 
L 422 2643 
C 781 2688 1139 2733 1491 2784 
C 1158 2189 870 1766 634 1523 
C 576 1472 506 1427 422 1389 
L 550 966 
C 1165 1050 1805 1203 2477 1421 
L 2477 1837 
C 2016 1683 1555 1562 1094 1472 
C 1466 1926 1939 2694 2502 3776 
L 2093 3930 
C 1965 3674 1837 3430 1722 3200 
C 1434 3155 1146 3117 858 3091 
C 1190 3590 1523 4256 1850 5088 
L 1408 5261 
z
M 5651 4096 
L 4058 3872 
L 4058 5229 
L 3597 5229 
L 3597 3808 
L 2618 3667 
L 2688 3245 
L 3610 3379 
C 3616 3072 3635 2778 3667 2502 
L 2509 2317 
L 2573 1882 
L 3725 2067 
C 3750 1901 3776 1741 3814 1574 
C 3891 1229 3987 922 4109 640 
C 3635 288 3104 19 2515 -173 
L 2784 -544 
C 3328 -378 3840 -115 4314 237 
C 4352 154 4403 77 4461 0 
C 4736 -384 5024 -576 5331 -589 
C 5664 -589 5920 -160 6099 685 
L 5709 941 
C 5594 256 5446 -90 5280 -90 
C 5114 -90 4928 70 4717 384 
C 4691 422 4672 467 4646 506 
C 5043 851 5408 1274 5747 1766 
L 5382 2016 
C 5114 1606 4806 1248 4461 928 
C 4371 1184 4294 1472 4230 1805 
C 4211 1907 4192 2022 4179 2138 
L 5894 2406 
L 5824 2842 
L 4128 2573 
C 4102 2848 4083 3136 4070 3443 
L 5715 3674 
L 5651 4096 
z
M 4774 5248 
L 4416 5024 
C 4736 4730 4992 4454 5171 4205 
L 5530 4454 
C 5350 4678 5101 4941 4774 5248 
z
" transform="scale(0.015625)"/>
      </defs>
      <use xlink:href="#PingFangSC-Regular-d16"/>
      <use xlink:href="#PingFangSC-Regular-966" transform="translate(100 0)"/>
      <use xlink:href="#PingFangSC-Regular-c6e" transform="translate(200 0)"/>
      <use xlink:href="#PingFangSC-Regular-e5c" transform="translate(300 0)"/>
      <use xlink:href="#PingFangSC-Regular-481" transform="translate(400 0)"/>
      <use xlink:href="#PingFangSC-Regular-155a" transform="translate(500 0)"/>
      <use xlink:href="#PingFangSC-Regular-482" transform="translate(600 0)"/>
     </g>
    </g>
   </g>
  </g>
  <g id="axes_2">
   <g id="matplotlib.axis_3">
    <g id="ytick_9">
     <g id="line2d_32">
      <defs>
       <path id="mdbbd7b35b1" d="M 0 0 
L 3.5 0 
" style="stroke: #6b7280; stroke-width: 0.8"/>
      </defs>
      <g>
       <use xlink:href="#mdbbd7b35b1" x="523.935313" y="255.806208" style="fill: #6b7280; stroke: #6b7280; stroke-width: 0.8"/>
      </g>
     </g>
     <g id="text_22">
      <!-- 0.0 -->
      <g style="fill: #6b7280" transform="translate(530.935313 260.536208) scale(0.11 -0.11)">
       <defs>
        <path id="PingFangSC-Regular-11" d="M 845 762 
C 730 762 640 723 570 646 
C 493 570 454 480 454 365 
C 454 256 493 166 570 90 
C 640 13 730 -26 845 -26 
C 947 -26 1043 13 1120 90 
C 1197 166 1235 256 1235 365 
C 1235 480 1197 570 1120 646 
C 1043 723 947 762 845 762 
z
" transform="scale(0.015625)"/>
       </defs>
       <use xlink:href="#PingFangSC-Regular-13"/>
       <use xlink:href="#PingFangSC-Regular-11" transform="translate(60 0)"/>
       <use xlink:href="#PingFangSC-Regular-13" transform="translate(86.40625 0)"/>
      </g>
     </g>
    </g>
    <g id="ytick_10">
     <g id="line2d_33">
      <g>
       <use xlink:href="#mdbbd7b35b1" x="523.935313" y="217.419154" style="fill: #6b7280; stroke: #6b7280; stroke-width: 0.8"/>
      </g>
     </g>
     <g id="text_23">
      <!-- 0.2 -->
      <g style="fill: #6b7280" transform="translate(530.935313 222.149154) scale(0.11 -0.11)">
       <use xlink:href="#PingFangSC-Regular-13"/>
       <use xlink:href="#PingFangSC-Regular-11" transform="translate(60 0)"/>
       <use xlink:href="#PingFangSC-Regular-15" transform="translate(86.40625 0)"/>
      </g>
     </g>
    </g>
    <g id="ytick_11">
     <g id="line2d_34">
      <g>
       <use xlink:href="#mdbbd7b35b1" x="523.935313" y="179.0321" style="fill: #6b7280; stroke: #6b7280; stroke-width: 0.8"/>
      </g>
     </g>
     <g id="text_24">
      <!-- 0.4 -->
      <g style="fill: #6b7280" transform="translate(530.935313 183.7621) scale(0.11 -0.11)">
       <use xlink:href="#PingFangSC-Regular-13"/>
       <use xlink:href="#PingFangSC-Regular-11" transform="translate(60 0)"/>
       <use xlink:href="#PingFangSC-Regular-17" transform="translate(86.40625 0)"/>
      </g>
     </g>
    </g>
    <g id="ytick_12">
     <g id="line2d_35">
      <g>
       <use xlink:href="#mdbbd7b35b1" x="523.935313" y="140.645046" style="fill: #6b7280; stroke: #6b7280; stroke-width: 0.8"/>
      </g>
     </g>
     <g id="text_25">
      <!-- 0.6 -->
      <g style="fill: #6b7280" transform="translate(530.935313 145.375046) scale(0.11 -0.11)">
       <use xlink:href="#PingFangSC-Regular-13"/>
       <use xlink:href="#PingFangSC-Regular-11" transform="translate(60 0)"/>
       <use xlink:href="#PingFangSC-Regular-19" transform="translate(86.40625 0)"/>
      </g>
     </g>
    </g>
    <g id="ytick_13">
     <g id="line2d_36">
      <g>
       <use xlink:href="#mdbbd7b35b1" x="523.935313" y="102.257992" style="fill: #6b7280; stroke: #6b7280; stroke-width: 0.8"/>
      </g>
     </g>
     <g id="text_26">
      <!-- 0.8 -->
      <g style="fill: #6b7280" transform="translate(530.935313 106.987992) scale(0.11 -0.11)">
       <use xlink:href="#PingFangSC-Regular-13"/>
       <use xlink:href="#PingFangSC-Regular-11" transform="translate(60 0)"/>
       <use xlink:href="#PingFangSC-Regular-1b" transform="translate(86.40625 0)"/>
      </g>
     </g>
    </g>
    <g id="ytick_14">
     <g id="line2d_37">
      <g>
       <use xlink:href="#mdbbd7b35b1" x="523.935313" y="63.870938" style="fill: #6b7280; stroke: #6b7280; stroke-width: 0.8"/>
      </g>
     </g>
     <g id="text_27">
      <!-- 1.0 -->
      <g style="fill: #6b7280" transform="translate(530.935313 68.600938) scale(0.11 -0.11)">
       <use xlink:href="#PingFangSC-Regular-14"/>
       <use xlink:href="#PingFangSC-Regular-11" transform="translate(40.09375 0)"/>
       <use xlink:href="#PingFangSC-Regular-13" transform="translate(66.5 0)"/>
      </g>
     </g>
    </g>
    <g id="text_28">
     <!-- 损失成本 -->
     <g style="fill: #4b5563" transform="translate(561.36 170.403104) rotate(-90) scale(0.12 -0.12)">
      <use xlink:href="#PingFangSC-Regular-d16"/>
      <use xlink:href="#PingFangSC-Regular-966" transform="translate(100 0)"/>
      <use xlink:href="#PingFangSC-Regular-c6e" transform="translate(200 0)"/>
      <use xlink:href="#PingFangSC-Regular-e5c" transform="translate(300 0)"/>
     </g>
    </g>
   </g>
   <g id="line2d_38">
    <path d="M 104.999586 214.07948 
L 168.450661 234.904457 
L 231.901737 234.904457 
L 295.352813 240.125096 
L 358.803888 241.852514 
L 422.254964 243.253641 
L 485.706039 244.021382 
" clip-path="url(#pd6e42b8974)" style="fill: none; stroke: #f87171; stroke-width: 2.2; stroke-linecap: square"/>
    <g clip-path="url(#pd6e42b8974)">
     <use xlink:href="#m3bcfc40de8" x="104.999586" y="214.07948" style="fill: #ffffff; stroke: #f87171; stroke-width: 1.4"/>
     <use xlink:href="#m3bcfc40de8" x="168.450661" y="234.904457" style="fill: #ffffff; stroke: #f87171; stroke-width: 1.4"/>
     <use xlink:href="#m3bcfc40de8" x="231.901737" y="234.904457" style="fill: #ffffff; stroke: #f87171; stroke-width: 1.4"/>
     <use xlink:href="#m3bcfc40de8" x="295.352813" y="240.125096" style="fill: #ffffff; stroke: #f87171; stroke-width: 1.4"/>
     <use xlink:href="#m3bcfc40de8" x="358.803888" y="241.852514" style="fill: #ffffff; stroke: #f87171; stroke-width: 1.4"/>
     <use xlink:href="#m3bcfc40de8" x="422.254964" y="243.253641" style="fill: #ffffff; stroke: #f87171; stroke-width: 1.4"/>
     <use xlink:href="#m3bcfc40de8" x="485.706039" y="244.021382" style="fill: #ffffff; stroke: #f87171; stroke-width: 1.4"/>
    </g>
   </g>
   <g id="patch_14">
    <path d="M 66.770313 255.806208 
L 66.770313 37 
" style="fill: none; stroke: #d1d5db; stroke-width: 0.8; stroke-linejoin: miter; stroke-linecap: square"/>
   </g>
   <g id="patch_15">
    <path d="M 66.770313 255.806208 
L 523.935313 255.806208 
" style="fill: none; stroke: #d1d5db; stroke-width: 0.8; stroke-linejoin: miter; stroke-linecap: square"/>
   </g>
  </g>
 </g>
 <defs>
  <clipPath id="pd6e42b8974">
   <rect x="66.770313" y="37" width="457.165" height="218.806208"/>
  </clipPath>
 </defs>
</svg>
